<?xml version="1.0" standalone="no"?>
<!DOCTYPE svg PUBLIC "-//W3C//DTD SVG 1.1//EN" "http://www.w3.org/Graphics/SVG/1.1/DTD/svg11.dtd" >
<svg>
<metadata>
Created by FontForge 20090914 at Mon May  1 22:57:56 2017
 By www-data
Copyright 1993-1996 Brand Design Co., Inc./House Industries. Font by Ken Barber.
</metadata>
<defs>
<font id="FinkRoman" horiz-adv-x="409" >
  <font-face 
    font-family="FinkRoman"
    font-weight="400"
    font-stretch="normal"
    units-per-em="1000"
    panose-1="0 0 0 0 0 0 0 0 0 0"
    ascent="800"
    descent="-200"
    x-height="483"
    cap-height="700"
    bbox="-181.003 -417.054 952.633 899"
    underline-thickness="20"
    underline-position="-123"
    unicode-range="U+0020-U+F0BD"
  />
<missing-glyph horiz-adv-x="486" 
d="M40 0v540h406v-540h-406zM80 40h326v460h-326v-460z" />
    <glyph glyph-name=".notdef" horiz-adv-x="486" 
d="M40 0v540h406v-540h-406zM80 40h326v460h-326v-460z" />
    <glyph glyph-name="space" unicode=" " horiz-adv-x="250" 
 />
    <glyph glyph-name="exclam" unicode="!" horiz-adv-x="195" 
d="M172 713c-2.66699 -10.667 -5.33203 -29.8311 -7.99902 -57.498s-5 -60.167 -7 -97.5s-4 -77 -6 -119s-3.66699 -82.667 -5 -122s-2 -75 -2 -107s0.333008 -56.667 1 -74c-26 4.66699 -48.5 6.33398 -67.5 5.00098l-28.5 -2c0 8 1.16699 32.833 3.5 74.5
s4.16602 91.334 5.49902 149.001s1.5 118.667 0.5 183s-4.83301 123.166 -11.5 176.499c1.33301 -0.666992 7.5 -1.83398 18.5 -3.50098s26.5 -3.33398 46.5 -5.00098s40 -1.83398 60 -0.500977zM156.002 38.0029c1.33301 -4 1.16895 -10.165 -0.498047 -18.498
s-5.16699 -16.5 -10.5 -24.5s-12.833 -14.167 -22.5 -18.5s-21.834 -4.16602 -36.501 0.500977c-8.66699 2.66699 -17.5 7.16699 -26.5 13.5s-15.167 15.166 -18.5 26.499c-0.666992 3.33301 -0.833984 8.16602 -0.500977 14.499s2.33301 12.833 6 19.5
s9.5 12.834 17.5 18.501s19 9.5 33 11.5c12.667 1.33301 25 -2.83398 37 -12.501s19.333 -19.834 22 -30.501z" />
    <glyph glyph-name="quotedbl" unicode="&#x22;" horiz-adv-x="269" 
d="M247 514l-25.5 2.99805c-17 2 -37.167 1.66699 -60.5 -1c1.33301 12.667 2 27.334 2 44.001s-0.333008 34 -1 52s-1.83398 35.333 -3.50098 52s-3.5 31.334 -5.5 44.001l29.5 -1c19.667 -0.666992 40.167 2.33301 61.5 9l-1.5 -18c-1 -12 -1.66699 -27.5 -2 -46.5
s-0.166016 -40.5 0.500977 -64.5s2.66699 -48.333 6 -73zM121 507.998l-22.5 2.49805c-15 1.66699 -35.5 0.833984 -61.5 -2.49902c0.666992 12 1.16699 26.333 1.5 43s0 34.334 -1 53.001s-2.66699 37.834 -5 57.501s-5.83301 38.5 -10.5 56.5l29 -1
c19.333 -0.666992 42.333 1.66602 69 6.99902l-1 -19c-0.666992 -12.667 -1.16699 -29.167 -1.5 -49.5s-0.333008 -43.5 0 -69.5s1.5 -52 3.5 -78z" />
    <glyph glyph-name="numbersign" unicode="#" horiz-adv-x="508" 
d="M485 427l-11.4971 -24.998c-7.66699 -16.667 -13.5 -39.334 -17.5 -68.001c-6.66699 1.33301 -16.334 2.66602 -29.001 3.99902s-27.334 2.33301 -44.001 3l-10 -30.5c-3.33301 -10.333 -6.33301 -20.5 -9 -30.5c45.333 1.33301 79.666 3.33301 102.999 6l-10.5 -23.5
c-7 -15.667 -11.167 -36.167 -12.5 -61.5c-28.667 5.33301 -62 8 -100 8c-5.33301 -20 -10.333 -39.667 -15 -59s-8.66699 -37.666 -12 -54.999c-5.33301 0 -17 0.333008 -35 1s-36.667 -1.66602 -56 -6.99902c5.33301 12.667 11.5 29.5 18.5 50.5l22.5 69.5
c-24 0 -48 -1 -72 -3l-14.5 -49.5c-4.33301 -14.333 -7.16602 -25.5 -8.49902 -33.5c-11.333 0.666992 -25.5 0.333984 -42.5 -0.999023s-29.167 -3.66602 -36.5 -6.99902c1.33301 4.66699 4.83301 14.667 10.5 30s11.834 34.333 18.501 57c-20 -1.33301 -38.5 -3 -55.5 -5
s-31.833 -3.33301 -44.5 -4c12 26 18.833 47 20.5 63l2.5 24c12.667 -0.666992 27.667 -1.16699 45 -1.5s36 -0.5 56 -0.5c2.66699 9.33301 5.66699 19.166 9 29.499s6.33301 20.833 9 31.5c-16 -0.666992 -32 -2 -48 -4l-47 -6c6.66699 11.333 12.5 26.666 17.5 45.999
s7.83301 33.666 8.5 42.999c8.66699 -1.33301 20.667 -2.16602 36 -2.49902s32.666 -0.833008 51.999 -1.5l13 59.5c4 19 6.66699 36.167 8 51.5c4.66699 -0.666992 12 -1 22 -1s20.5 0.5 31.5 1.5s21.333 2.33301 31 4s16.167 3.5 19.5 5.5
c-4 -7.33301 -10.167 -22 -18.5 -44l-27.5 -76h33c11.333 0 22.333 0.333008 33 1l21.5 84c6.33301 25.333 10.5 45 12.5 59c3.33301 -0.666992 9 -1.33398 17 -2.00098s17 -1.33398 27 -2.00098s20.167 -1.16699 30.5 -1.5s19.833 -0.5 28.5 -0.5
c-8.66699 -17.333 -17.834 -37.333 -27.501 -60s-19.167 -47 -28.5 -73l43.5 3.5c13 1 23.833 2.16699 32.5 3.5zM308.003 344.002h-34c-12 0 -24 -0.333008 -36 -1l-21 -66c12 0 24 0.166992 36 0.5s23.667 0.5 35 0.5l10 33z" />
    <glyph glyph-name="dollar" unicode="$" horiz-adv-x="391" 
d="M368 551c-0.666992 -2 -2.6582 -9.49805 -5.99121 -22.498s-6.33301 -33.833 -9 -62.5s-2 -61 2 -97l-17.5 2c-11.667 1.33301 -27.5 0.666016 -47.5 -2.00098c1.33301 10.667 1 24.334 -1 41.001s-9.66699 28 -23 34c-9.33301 4 -18.333 7 -27 9
c-0.666992 -16.667 -1.33398 -35 -2.00098 -55s-1.33398 -42 -2.00098 -66c30 -8 54 -17.167 72 -27.5s31.167 -21.166 39.5 -32.499s13 -23.666 14 -36.999s-0.166992 -27 -3.5 -41c-7.33301 -30.667 -23.333 -51 -48 -61s-50.334 -14.333 -77.001 -13v-78l-20 2
c-13.333 1.33301 -27.666 1 -42.999 -1l2 43l2 42l-19 5.5c-6 1.66699 -11.333 3.5 -16 5.5c-20 7.33301 -33 6.33301 -39 -3s-7.66699 -22.333 -5 -39h-13c-8.66699 0 -23 -0.666992 -43 -2l1.5 16.5c1 11 1.33301 25 1 42s-1.83301 36 -4.5 57s-7.33398 41.5 -14.001 61.5
l19.5 -0.5c13 -0.333008 25.167 1.5 36.5 5.5c6.66699 -37.333 19.667 -63.833 39 -79.5s38.333 -26.167 57 -31.5c1.33301 37.333 1.33301 73.666 0 108.999h-2c-30.667 7.33301 -54.834 16.666 -72.501 27.999s-30.834 23.5 -39.501 36.5s-13.334 26.167 -14.001 39.5
s0.666016 25.666 3.99902 36.999c6.66699 21.333 20.667 38.333 42 51s45.666 20.334 72.999 23.001l-8 85.5l-3 31.5c1.33301 0 6.33301 -0.666992 15 -2s21 -2.33301 37 -3s31.333 -0.333984 46 0.999023l-3.5 -25.5c-2.33301 -17 -4.83301 -45.833 -7.5 -86.5
c16 0.666992 30.167 5.16699 42.5 13.5s20.166 25.833 23.499 52.5l17 -4c11.333 -2.66699 26 -3.33398 44 -2.00098zM172.009 351.002c-0.666992 16.667 -1.16797 32.833 -1.50098 48.5s-1.16602 30.5 -2.49902 44.5c-24 -10.667 -36 -26.667 -36 -48
c-0.666992 -10.667 3 -19.667 11 -27s17.667 -13.333 29 -18zM294.008 208.001c1.33301 10.667 -3.66895 20.168 -15.002 28.501s-26.666 15.833 -45.999 22.5c-0.666992 -15.333 -1 -31.166 -1 -47.499v-50.5c14.667 1.33301 28.334 5.66602 41.001 12.999
s19.667 18.666 21 33.999z" />
    <glyph glyph-name="percent" unicode="%" horiz-adv-x="589" 
d="M526 617c-16.667 -17.333 -35.334 -41.167 -56.001 -71.5s-42.334 -64.333 -65.001 -102s-45.5 -77.667 -68.5 -120l-65.5 -126l-58 -120c-18 -38.333 -33 -72.166 -45 -101.499c-18.667 8 -36.334 12.167 -53.001 12.5l-25 0.5c16 25.333 36.333 60.5 61 105.5l77 145.5
c26.667 52 52.167 104.333 76.5 157s44.5 99.334 60.5 140.001c-8 -4 -18 -6.66699 -30 -8s-24.333 -1.5 -37 -0.5s-24.834 2.83301 -36.501 5.5s-20.5 6.33398 -26.5 11.001c11.333 -11.333 20.166 -23.5 26.499 -36.5s10.5 -32.167 12.5 -57.5
c2 -20.667 -0.5 -38.834 -7.5 -54.501s-16 -28.834 -27 -39.501s-23 -19 -36 -25s-24.5 -9.66699 -34.5 -11c-10 -2 -23.167 -2 -39.5 0s-32.166 7.16699 -47.499 15.5s-28.833 20.833 -40.5 37.5s-18.167 38.667 -19.5 66c-1.33301 37.333 4.83398 66.833 18.501 88.5
s31.5 37.334 53.5 47.001s46.667 14.5 74 14.5s54 -3 80 -9c24.667 -6 45.834 -7.33301 63.501 -4s33.334 9.16602 47.001 17.499s26 18.333 37 30l32.5 34.5c5.33301 -8.66699 18.333 -17.834 39 -27.501s40.334 -14.5 59.001 -14.5zM566 138.999
c2 -54.667 -9.33301 -94.498 -34 -119.498s-54.334 -40.167 -89.001 -45.5c-20.667 -2.66699 -40.167 -1.33398 -58.5 3.99902s-34.5 13.333 -48.5 24s-25.333 23.5 -34 38.5s-13.667 30.833 -15 47.5c-1.33301 18 0.333984 37.167 5.00098 57.5s13.167 39.166 25.5 56.499
s28.333 32 48 44s43.834 18.333 72.501 19c15.333 0.666992 30.5 -1.33301 45.5 -6s28.5 -12 40.5 -22s21.667 -23.167 29 -39.5s11.666 -35.833 12.999 -58.5zM212 454.001c-0.666992 10.667 -2.5 21.6641 -5.5 32.9971s-7 21.666 -12 30.999s-11.333 16.833 -19 22.5
s-16.5 8.5 -26.5 8.5c-12 0 -21.833 -3.5 -29.5 -10.5s-13.667 -15.667 -18 -26s-7 -21.666 -8 -33.999s-0.833008 -24.166 0.5 -35.499c2.66699 -23.333 10.834 -45.166 24.501 -65.499s29.5 -29.5 47.5 -27.5c9.33301 1.33301 17 5.5 23 12.5s10.833 15.5 14.5 25.5
s6.16699 20.833 7.5 32.5s1.66602 22.834 0.999023 33.501zM498 108.998c0 30.667 -6.5 57.834 -19.5 81.501s-28.833 35.5 -47.5 35.5c-18 0 -33.833 -9.66699 -47.5 -29s-20.5 -44.333 -20.5 -75s6.83301 -57.834 20.5 -81.501s29.5 -35.5 47.5 -35.5
c18.667 0 34.5 9.66699 47.5 29s19.5 44.333 19.5 75z" />
    <glyph glyph-name="ampersand" unicode="&#x26;" horiz-adv-x="599" 
d="M576 421c0 -8.66699 -0.662109 -18.5039 -1.99512 -29.5039s-1.66602 -20.5 -0.999023 -28.5c-31.333 -1.33301 -54 -9.66602 -68 -24.999s-24.333 -34.5 -31 -57.5s-12 -48.167 -16 -75.5s-11.667 -53.666 -23 -78.999c21.333 -22.667 43.333 -34.667 66 -36s43 2 61 10
c-0.666992 -1.33301 -1.83398 -7.16602 -3.50098 -17.499s-3 -24.5 -4 -42.5s0.5 -35.667 4.5 -53c-37.333 -10 -70.333 -9 -99 3s-53.667 33.333 -75 64c-31.333 -26.667 -62 -44.334 -92 -53.001s-58.5 -11.334 -85.5 -8.00098s-51.833 11.5 -74.5 24.5
s-42.167 28 -58.5 45s-29.166 34.833 -38.499 53.5s-14 35.334 -14 50.001c0 20 2.16699 39.5 6.5 58.5s11.833 38.5 22.5 58.5s25.167 41 43.5 63s41.166 46 68.499 72c-5.33301 16 -11.5 35.667 -18.5 59s-10.833 48.333 -11.5 75c0 14 2.5 27.667 7.5 41
s12.167 25.333 21.5 36s21 19.334 35 26.001s29.333 10 46 10s30.167 -2.66699 40.5 -8s18.166 -12.5 23.499 -21.5s8.83301 -19 10.5 -30s2.16699 -22.5 1.5 -34.5c-0.666992 -23.333 -8.83398 -48.166 -24.501 -74.499s-35.5 -54.833 -59.5 -85.5
c2 -5.33301 7.66699 -16.833 17 -34.5s20.833 -37.5 34.5 -59.5s28.5 -43.833 44.5 -65.5s32 -39.5 48 -53.5c4.66699 38 7 69.333 7 94s-2.66699 44.667 -8 60s-13.833 26.5 -25.5 33.5s-26.834 11.5 -45.501 13.5c1.33301 6 2.66602 14.167 3.99902 24.5s2 19.5 2 27.5
c20.667 -7.33301 43.167 -13 67.5 -17s48.5 -7 72.5 -9s46.667 -3.16699 68 -3.5s39.666 -0.5 54.999 -0.5zM221.005 616.996c-10 0 -17 -4.16797 -21 -12.501s-6.16699 -19 -6.5 -32s0.833984 -27.667 3.50098 -44s6.33398 -32.5 11.001 -48.5
c10.667 12.667 19.167 26.834 25.5 42.501s10.166 30.5 11.499 44.5s0.166016 25.833 -3.50098 35.5s-10.5 14.5 -20.5 14.5zM339.005 108.995c-5.33301 5.33301 -14.6689 18.1689 -28.002 38.502l-43 68.5l-44.5 75c-14.333 24.667 -25.166 44.334 -32.499 59.001
c-4.66699 -6 -11 -15.333 -19 -28s-15.5 -27.834 -22.5 -45.501s-12.167 -36.834 -15.5 -57.501s-3 -42 1 -64s11 -40.167 21 -54.5s21 -25.833 33 -34.5s23.833 -14.834 35.5 -18.501s21.167 -5.5 28.5 -5.5c14.667 0 30.334 6.33301 47.001 19s29.667 28.667 39 48z" />
    <glyph glyph-name="quotesingle" unicode="'" horiz-adv-x="144" 
d="M121 508l-22.5 2.49805c-15 1.66699 -35.5 0.833984 -61.5 -2.49902c0.666992 12 1.16699 26.333 1.5 43s0 34.334 -1 53.001s-2.66699 37.834 -5 57.501s-5.83301 38.5 -10.5 56.5l29 -1c19.333 -0.666992 42.333 1.66602 69 6.99902l-1 -19
c-0.666992 -12.667 -1.16699 -29.167 -1.5 -49.5s-0.333008 -43.5 0 -69.5s1.5 -52 3.5 -78z" />
    <glyph glyph-name="parenleft" unicode="(" horiz-adv-x="293" 
d="M271 -134c-17.333 -12 -30.5039 -25.334 -39.5039 -40.001l-13.5 -22c-43.333 43.333 -79.333 95 -108 155s-50.167 123.833 -64.5 191.5s-22 137.167 -23 208.5s4.66699 140.166 17 206.499s31 128.333 56 186s56.167 106.834 93.5 147.501l8 -16
c4.66699 -9.33301 12.834 -21.333 24.501 -36s26.167 -26.667 43.5 -36c-31.333 -38 -57.166 -82.5 -77.499 -133.5s-35.666 -105.5 -45.999 -163.5s-15.166 -117.5 -14.499 -178.5s6.33398 -120.167 17.001 -177.5s26.667 -111.166 48 -161.499
s47.666 -93.833 78.999 -130.5z" />
    <glyph glyph-name="parenright" unicode=")" horiz-adv-x="293" 
d="M103 899c37.333 -40.667 68.5 -89.835 93.5 -147.502s43.667 -119.667 56 -186s18 -135.166 17 -206.499s-8.66699 -140.833 -23 -208.5s-35.833 -131.5 -64.5 -191.5s-64.667 -111.667 -108 -155l-12.5 22.5c-8.33301 15 -21.5 28.167 -39.5 39.5
c31.333 36.667 57.666 80.167 78.999 130.5s37.333 104.166 48 161.499s16.167 116.5 16.5 177.5s-4.5 120.5 -14.5 178.5s-25.333 112.5 -46 163.5s-46.334 95.5 -77.001 133.5c16.667 8.66699 30.834 20.334 42.501 35.001s19.834 26.834 24.501 36.501z" />
    <glyph glyph-name="asterisk" unicode="*" horiz-adv-x="292" 
d="M269 616c-1.33301 0 -5.66699 -0.666992 -13 -2s-16.5 -3.5 -27.5 -6.5s-19.5 -6.16699 -25.5 -9.5l13.5 -19c9 -12.667 21.833 -25.334 38.5 -38.001l-13.5 -10c-9 -6.66699 -22.5 -19 -40.5 -37l-13 23c-8.66699 15.333 -23 31 -43 47l-11.5 -20
c-7.66699 -13.333 -14.167 -30.333 -19.5 -51l-19 9.5c-12.667 6.33301 -27.334 11.833 -44.001 16.5l16 22c10.667 14.667 18 31.667 22 51l-20 6.5c-13.333 4.33301 -29 7.16602 -47 8.49902l8.5 21.5c5.66699 14.333 9.83398 29.833 12.501 46.5l16 -8.5
c10.667 -5.66699 27 -11.167 49 -16.5l-7.5 20c-5 13.333 -13.167 29.333 -24.5 48l29 7c19.333 4.66699 39 12.334 59 23.001c2 -28.667 4.5 -51.667 7.5 -69l4.5 -26l22 8.5c14.667 5.66699 30.667 14.834 48 27.501l4 -23.5c2.66699 -15.667 9 -32.167 19 -49.5z" />
    <glyph glyph-name="plus" unicode="+" horiz-adv-x="368" 
d="M345 246l-32.999 3.50293c-22 2.33301 -50 4.16602 -84 5.49902c1.33301 -39.333 3.33301 -78.333 6 -117l-32 2c-21.333 1.33301 -45.666 2.66602 -72.999 3.99902c2 37.333 3 75 3 113c-38 0 -74.667 -2 -110 -6l3 32.5c2 21.667 3.33301 45.834 4 72.501
c17.333 -1.33301 34.166 -2.33301 50.499 -3s32.5 -1.66699 48.5 -3c-1.33301 21.333 -3.33301 42.5 -6 63.5s-6 42.167 -10 63.5c1.33301 0 7.66602 0.166992 18.999 0.5s27 1.16602 47 2.49902s39.333 3.66602 58 6.99902l-3 -38.5c-2 -25.667 -3.33301 -58.167 -4 -97.5
c17.333 0.666992 35.333 2 54 4s38 4.66699 58 8v-18.5c0 -11 0.333008 -26 1 -45s1.66699 -36.833 3 -53.5z" />
    <glyph glyph-name="comma" unicode="," horiz-adv-x="163" 
d="M137 54c3.33301 -14.667 3.50098 -29 0.500977 -43s-7.66699 -26.833 -14 -38.5s-13.666 -21.834 -21.999 -30.501s-16.5 -15 -24.5 -19l-9 13c-6 8.66699 -16.333 16.334 -31 23.001c7.33301 3.33301 14.666 8 21.999 14s12 13.667 14 23
c-14.667 2.66699 -26.834 9 -36.501 19s-14.5 21.667 -14.5 35c0 14.667 5.33301 27.167 16 37.5s23.667 15.5 39 15.5s28.333 -4.66699 39 -14s17.667 -21 21 -35z" />
    <glyph glyph-name="hyphen" unicode="-" horiz-adv-x="350" 
d="M327 247l-30.5 3.00098c-20.333 2 -45.5 3.66699 -75.5 5s-62.167 2 -96.5 2s-65.5 -2 -93.5 -6l-9 92l75 -5.5c23.333 -1.66699 46.5 -2.5 69.5 -2.5s46.833 1 71.5 3s51.667 5.33301 81 10v-18c0 -10.667 0.666992 -24.334 2 -41.001s3.33301 -30.667 6 -42z" />
    <glyph glyph-name="period" unicode="." horiz-adv-x="162" 
d="M138 51c1.33301 -4 1.16895 -10.333 -0.498047 -19s-5.16699 -16.834 -10.5 -24.501s-12.833 -13.667 -22.5 -18s-21.834 -4.16602 -36.501 0.500977c-8.66699 2.66699 -17.5 7.16699 -26.5 13.5s-15.167 15.166 -18.5 26.499
c-0.666992 2.66699 -0.833984 7.33398 -0.500977 14.001s2.33301 13.334 6 20.001s9.5 12.834 17.5 18.501s19 9.5 33 11.5c12.667 1.33301 25 -2.83398 37 -12.501s19.333 -19.834 22 -30.501z" />
    <glyph glyph-name="slash" unicode="/" horiz-adv-x="560" 
d="M537 739c-17.333 -26.667 -38.501 -63.167 -63.501 -109.5l-80 -153.5l-87 -174.5l-83.5 -172l-69 -145.5l-45 -96c-4 2.66699 -10.167 5.5 -18.5 8.5s-17.166 5.83301 -26.499 8.5s-18 4.83398 -26 6.50098s-13.333 2.5 -16 2.5c37.333 66.667 76.333 141 117 223
l116 243c36.667 80 69.334 154.333 98.001 223s50 123 64 163l35 -11.5c23.333 -7.66699 51.666 -12.834 84.999 -15.501z" />
    <glyph glyph-name="zero" unicode="0" horiz-adv-x="614" 
d="M590 344c3.33301 -38.667 -0.50293 -78.499 -11.5029 -119.499s-27.167 -78.833 -48.5 -113.5s-46.666 -63.5 -75.999 -86.5s-60.333 -35.833 -93 -38.5c-61.333 -5.33301 -113.666 1.16699 -156.999 19.5s-78.5 43.333 -105.5 75s-46.667 67 -59 106
s-18.166 76.833 -17.499 113.5s9.16699 74.5 25.5 113.5s38 74.833 65 107.5s58 59.667 93 81s72.167 32.666 111.5 33.999c35.333 1.33301 69 -9 101 -31s60.5 -48.333 85.5 -79s45.167 -63 60.5 -97s24 -62.333 26 -85zM473.997 330.001
c-3.33301 24.667 -9.83105 51.6641 -19.498 80.9971s-21.334 56.5 -35.001 81.5s-29.167 46 -46.5 63s-35.666 25.833 -54.999 26.5c-26 0.666992 -49.333 -9.66602 -70 -30.999s-38.334 -47.666 -53.001 -78.999s-25.834 -65.166 -33.501 -101.499
s-11.167 -69.5 -10.5 -99.5c0.666992 -27.333 6 -55 16 -83s23.5 -53.333 40.5 -76s37 -41.167 60 -55.5s48.167 -21.833 75.5 -22.5c32 -0.666992 57.5 9.83301 76.5 31.5s33 48 42 79s14.167 63.5 15.5 97.5s0.333008 63.333 -3 88z" />
    <glyph glyph-name="one" unicode="1" horiz-adv-x="374" 
d="M351 17c-12.667 0 -30.668 -0.496094 -54.001 -1.49609s-48.166 -3.33301 -74.499 -7s-52.5 -8.83398 -78.5 -15.501s-47.667 -15.667 -65 -27c-1.33301 6.66699 -4.83301 17.5 -10.5 32.5s-10.5 26.833 -14.5 35.5c10 2 21.167 4.66699 33.5 8s24.333 8.33301 36 15
s21.667 15.667 30 27s13.166 26 14.499 44l4.5 66c1.66699 25.333 2.5 52.666 2.5 81.999s-0.666992 60 -2 92s-4.33301 64 -9 96c-26.667 -18 -48 -35.5 -64 -52.5l-24 -25.5c-8 18 -19 32.5 -33 43.5l-21 16.5c23.333 12.667 46.5 28.834 69.5 48.501
s44.5 40.167 64.5 61.5s37.833 42.166 53.5 62.499s28.167 37.166 37.5 50.499c-0.666992 -8 -1 -23.167 -1 -45.5s0.166992 -48.333 0.5 -78s0.833008 -60.834 1.5 -93.501l2 -93.5c0.666992 -29.667 1.33398 -55.667 2.00098 -78s1.33398 -37.5 2.00098 -45.5
c1.33301 -11.333 2.16602 -25.166 2.49902 -41.499s3.16602 -32.5 8.49902 -48.5s14.333 -30.333 27 -43s31.334 -21.334 56.001 -26.001c-1.33301 -6.66699 -1.33301 -16.167 0 -28.5s2.33301 -22.5 3 -30.5z" />
    <glyph glyph-name="two" unicode="2" horiz-adv-x="599" 
d="M576 284c-6.66699 -16 -11.833 -38 -15.5 -66s-6.5 -56.833 -8.5 -86.5s-3 -57.5 -3 -83.5v-57c-8.66699 0 -19.334 -0.5 -32.001 -1.5s-30.667 -6.83301 -54 -17.5c-0.666992 24.667 -12.667 40.334 -36 47.001s-51.666 8.83398 -84.999 6.50098
s-68.666 -7.33301 -105.999 -15s-70.333 -13.5 -99 -17.5c-3.33301 12.667 -9.33301 25.667 -18 39s-21.334 26.333 -38.001 39l48.5 45.5l63.5 60.5c22.667 22 45.667 45.5 69 70.5s44.666 49.667 63.999 74s35.5 47.833 48.5 70.5s20.833 43.334 23.5 62.001
c3.33301 27.333 1 51.166 -7 71.499s-19.167 36.833 -33.5 49.5s-30.833 21.667 -49.5 27s-36.667 6.66602 -54 3.99902s-33.333 -8.33398 -48 -17.001s-26.5 -20.667 -35.5 -36s-14.333 -34.5 -16 -57.5s1.83301 -50.5 10.5 -82.5
c-10.667 -2.66699 -23.334 -7.5 -38.001 -14.5s-28 -14.833 -40 -23.5c-2.66699 33.333 -6 61.5 -10 84.5s-8.83301 43.167 -14.5 60.5s-11.834 33.166 -18.501 47.499l-22 45.5c5.33301 0.666992 14.166 4.33398 26.499 11.001s21.833 13.334 28.5 20.001
c4 -10.667 8.83301 -19.334 14.5 -26.001s14.167 -10.5 25.5 -11.5s26 1.5 44 7.5s41.667 17 71 33c30.667 16.667 60.834 24.334 90.501 23.001s57.334 -8.5 83.001 -21.5s48.5 -30.833 68.5 -53.5s35.333 -46.834 46 -72.501s16 -51.5 16 -77.5s-7.33301 -49.333 -22 -70
c-17.333 -25.333 -38 -48.5 -62 -69.5s-49.667 -42.333 -77 -64l-85 -70c-29.333 -25 -58.333 -53.833 -87 -86.5c44.667 7.33301 89.334 12.666 134.001 15.999s86.334 1.66602 125.001 -5.00098c5.33301 20.667 7.33301 45.834 6 75.501s-6.33301 58.834 -15 87.501
c21.333 -2 43.5 -0.5 66.5 4.5s41.833 11.833 56.5 20.5z" />
    <glyph glyph-name="three" unicode="3" horiz-adv-x="554" 
d="M531 163c-3.33301 -39.333 -13.8398 -70.3369 -31.5068 -93.0039s-39.167 -39.5 -64.5 -50.5s-52.833 -17.333 -82.5 -19s-57.834 -1 -84.501 2s-50 7.33301 -70 13s-33.667 9.83398 -41 12.501c-16 6.66699 -26.833 3.66699 -32.5 -9s-6.16699 -31.334 -1.5 -56.001
c-13.333 6 -27.5 10.833 -42.5 14.5s-32.5 4.16699 -52.5 1.5c14 32.667 20.833 72.834 20.5 120.501s-9.16602 106.834 -26.499 177.501c10.667 -4.66699 23.167 -8.16699 37.5 -10.5s34.5 -0.833008 60.5 4.5c-8.66699 -43.333 -7.66699 -79.666 3 -108.999
s26.834 -52.333 48.501 -69s46.334 -27.834 74.001 -33.501s54.167 -6.16699 79.5 -1.5s47.333 13.667 66 27s29.334 30.333 32.001 51c4.66699 34.667 0.333984 63.834 -12.999 87.501s-33.166 43 -59.499 58s-58 26.5 -95 34.5s-76.833 14 -119.5 18
c56.667 25.333 97.334 55.333 122.001 90s38.167 67.334 40.5 98.001s-4 55.834 -19 75.501s-33.833 27.167 -56.5 22.5c-28 -6 -49.833 -22.167 -65.5 -48.5s-18.167 -68.833 -7.5 -127.5c-6.66699 0 -17 -1.33301 -31 -4s-30.333 -11.667 -49 -27
c2 28.667 1.16699 56 -2.5 82s-8.5 49.5 -14.5 70.5s-11.833 38.333 -17.5 52l-10.5 25.5c11.333 1.33301 21.666 3.66602 30.999 6.99902s18.333 9.66602 27 18.999c1.33301 -10.667 4 -20.5 8 -29.5s9.5 -15.333 16.5 -19s15.667 -4 26 -1s22.5 10.833 36.5 23.5
c19.333 18.667 41.166 29.834 65.499 33.501s47.5 2.16699 69.5 -4.5s41.5 -17 58.5 -31s27.833 -29.667 32.5 -47c11.333 -41.333 8.83301 -80 -7.5 -116s-51.166 -72 -104.499 -108c20.667 -2 45.834 -6.16699 75.501 -12.5s57.667 -17 84 -32s48.333 -35.333 66 -61
s24.834 -59.5 21.501 -101.5z" />
    <glyph glyph-name="four" unicode="4" horiz-adv-x="532" 
d="M509 435c-0.666992 -7.33301 -1.83008 -22.3311 -3.49707 -44.998s-3.33398 -48.167 -5.00098 -76.5s-2.66699 -57.333 -3 -87s0.833984 -54.834 3.50098 -75.501c-4.66699 -0.666992 -10.834 -2.16699 -18.501 -4.5s-17.167 -5.5 -28.5 -9.5
c-0.666992 18.667 -2.33398 33.334 -5.00098 44.001s-6.5 18.834 -11.5 24.501s-11 9.5 -18 11.5s-15.5 3.33301 -25.5 4c0.666992 -6 1.16699 -15.167 1.5 -27.5s0.666016 -25.833 0.999023 -40.5s1.33301 -29.167 3 -43.5s3.83398 -26.5 6.50098 -36.5
c2.66699 -8.66699 8.16699 -15.5 16.5 -20.5s17.5 -8.33301 27.5 -10s19.667 -2.16699 29 -1.5s16.666 1.66699 21.999 3l-9.5 -22.5c-6.33301 -15 -10.166 -33.5 -11.499 -55.5c-16.667 3.33301 -36.834 6.16602 -60.501 8.49902s-48.334 4 -74.001 5s-50.5 1 -74.5 0
s-45 -3.16699 -63 -6.5c0 7.33301 -1 17.833 -3 31.5s-3.33301 23.167 -4 28.5c24.667 2 45 5.33301 61 10l24 7c7.33301 12 13.166 34.333 17.499 67s6.83301 68.667 7.5 108c-3.33301 0.666992 -13.833 1.5 -31.5 2.5s-38.5 1.5 -62.5 1.5s-49 -0.333008 -75 -1
s-49 -1.66699 -69 -3c-6 13.333 -13.167 26.166 -21.5 38.499s-15.166 21.666 -20.499 27.999s-8.33301 9.83301 -9 10.5c19.333 20 42.166 46.5 68.499 79.5s51.5 67.833 75.5 104.5s44.5 72.667 61.5 108s26.167 65 27.5 89c14.667 -10 36.834 -18.667 66.501 -26
s58.834 -11.333 87.501 -12c-1.33301 -14.667 -3.16602 -37.5 -5.49902 -68.5s-4.5 -64.167 -6.5 -99.5s-3.66699 -70.333 -5 -105s-2 -63 -2 -85c16 -2 28 1.16699 36 9.5s13.5 19.333 16.5 33s4 28.667 3 45s-2.16699 31.833 -3.5 46.5c5.33301 0 14.666 1.33301 27.999 4
s26.333 6 39 10zM323.004 560.002l-12.5 -21.501c-8.33301 -14.333 -21 -33.333 -38 -57s-38.167 -50.667 -63.5 -81s-54.666 -61.5 -87.999 -93.5c34 -4 67.667 -6.5 101 -7.5s64.666 -2.83301 93.999 -5.5c1.33301 14.667 2.33301 35.834 3 63.501l2 83.5
c0.666992 28 1.16699 53.333 1.5 76s0.5 37 0.5 43z" />
    <glyph glyph-name="five" unicode="5" horiz-adv-x="480" 
d="M457 208c1.33301 -32 -3.6709 -61.5059 -15.0039 -88.5059s-26 -50.833 -44 -71.5s-37.833 -37.5 -59.5 -50.5s-42.167 -21.167 -61.5 -24.5c-38 -7.33301 -71.333 -5.16602 -100 6.50098s-48.667 26.167 -60 43.5c-3.33301 -9.33301 -5.66602 -20.166 -6.99902 -32.499
s-2.33301 -25.166 -3 -38.499c-16 2.66699 -31.333 3.5 -46 2.5l-22 -1.5c6 48 6.66699 94.833 2 140.5s-11 89.5 -19 131.5c10 -0.666992 25 0.333008 45 3s39 5.66699 57 9c-2.66699 -41.333 0.166016 -76.166 8.49902 -104.499s19.5 -51 33.5 -68s29.167 -29 45.5 -36
s31.5 -10.5 45.5 -10.5c12 0.666992 23.833 5.66699 35.5 15s22.5 22 32.5 38s18.167 35 24.5 57s9.83301 45.667 10.5 71s-2 49.833 -8 73.5s-14.667 44.5 -26 62.5s-24.833 32.333 -40.5 43s-32.5 15.334 -50.5 14.001c-13.333 -0.666992 -27.833 -4.66699 -43.5 -12
s-31.167 -16.5 -46.5 -27.5s-29.833 -23 -43.5 -36s-25.167 -25.167 -34.5 -36.5c-2 42 -4.83301 83.5 -8.5 124.5l-10 111c-3 33 -5.66699 59.667 -8 80l-3.5 30.5c25.333 -2.66699 53.333 -5.16699 84 -7.5s60.667 -4 90 -5s56.333 -1.66699 81 -2
s43.667 -0.166016 57 0.500977c4.66699 13.333 7.66699 29.333 9 48s1.33301 35 0 49c3.33301 -2 8.83301 -3.83301 16.5 -5.5s15.834 -3 24.501 -4s17.334 -1.66699 26.001 -2s16 -0.5 22 -0.5c-13.333 -48.667 -19.5 -93.167 -18.5 -133.5s2.5 -73.5 4.5 -99.5
c-4.66699 -0.666992 -13.334 -1.5 -26.001 -2.5s-21.667 -2.16699 -27 -3.5c-3.33301 29.333 -10.166 50.5 -20.499 63.5s-25.333 21 -45 24s-44.167 2.83301 -73.5 -0.5s-64.666 -7 -105.999 -11c0 -4 -0.166992 -11.333 -0.5 -22s-0.833008 -22.667 -1.5 -36
s-1 -27 -1 -41v-37c15.333 12 33.5 24 54.5 36s48.833 20.667 83.5 26c32 5.33301 59.667 1.83301 83 -10.5s42.333 -30.5 57 -54.5s25.834 -52.333 33.501 -85s12.167 -66.667 13.5 -102z" />
    <glyph glyph-name="six" unicode="6" horiz-adv-x="590" 
d="M566 199c-2.66699 -40 -12.002 -74.333 -28.002 -103s-35.333 -52.334 -58 -71.001s-47.5 -32.5 -74.5 -41.5s-52.833 -13.833 -77.5 -14.5c-31.333 -0.666992 -65 5.5 -101 18.5s-69.333 32 -100 57s-56 55.667 -76 92s-29.667 77.5 -29 123.5
c0.666992 52.667 9.83398 103.334 27.501 152.001s40.167 91.667 67.5 129s58.166 67 92.499 89s68.5 32.667 102.5 32c24 -0.666992 43.833 -4 59.5 -10s28.334 -11.833 38.001 -17.5s17.167 -9.66699 22.5 -12s10 -0.5 14 5.5c6 9.33301 9.5 19.666 10.5 30.999
s1.83301 19.333 2.5 24l37 -5.5c16 -2.33301 29.333 -2.83301 40 -1.5c-6.66699 -17.333 -12.334 -36.666 -17.001 -57.999s-8.5 -42.166 -11.5 -62.499s-5 -39 -6 -56s-1.16699 -29.833 -0.5 -38.5c-2.66699 2 -7.5 3.83301 -14.5 5.5s-14.333 3 -22 4s-15 1.5 -22 1.5
s-12.167 -0.666992 -15.5 -2c-1.33301 51.333 -12.333 89.166 -33 113.499s-47.667 35.833 -81 34.5c-16.667 -0.666992 -34.834 -9.66699 -54.501 -27s-37.667 -39.5 -54 -66.5s-29.666 -57.333 -39.999 -91s-14.5 -67.167 -12.5 -100.5c14.667 26 30.5 46.5 47.5 61.5
s34.333 26.333 52 34s34.834 12.5 51.501 14.5s32.334 3.33301 47.001 4c17.333 0.666992 38.833 -4.5 64.5 -15.5s50.167 -27 73.5 -48s42.833 -47 58.5 -78s22.167 -66.5 19.5 -106.5zM461.998 221c-2 24.667 -7.33301 47.665 -16 68.998s-19.667 39.5 -33 54.5
s-28.833 26.333 -46.5 34s-36.167 10.834 -55.5 9.50098c-20 -1.33301 -38.5 -7.66602 -55.5 -18.999s-31.5 -26 -43.5 -44s-21.167 -38.667 -27.5 -62s-8.5 -47.333 -6.5 -72c2 -25.333 7.5 -48.333 16.5 -69s20.5 -38.167 34.5 -52.5s30 -25 48 -32
s36.667 -9.83301 56 -8.5c20 1.33301 38.167 7.33301 54.5 18s30.333 24.667 42 42s20.5 37.333 26.5 60s8 46.667 6 72z" />
    <glyph glyph-name="seven" unicode="7" horiz-adv-x="529" 
d="M506 655c-6.66699 -8.66699 -15.8369 -25.4961 -27.5039 -50.4961s-24.167 -54.5 -37.5 -88.5l-41 -108.5l-39.5 -109.5l-31.5 -91.5l-18 -54.5c-5.33301 -16 -5.66602 -29.5 -0.999023 -40.5s12.334 -19.833 23.001 -26.5s23.667 -11.334 39 -14.001s31.333 -4 48 -4
c-4 -10.667 -7.16699 -23.5 -9.5 -38.5s-3.16602 -26.833 -2.49902 -35.5c-12 4 -29.5 7.33301 -52.5 10s-48.5 4.16699 -76.5 4.5s-57 -0.666992 -87 -3s-58 -6.5 -84 -12.5c-0.666992 6.66699 -2.16699 14.334 -4.5 23.001s-6.16602 16.667 -11.499 24
c8 1.33301 16.667 3.5 26 6.5s18.833 8.16699 28.5 15.5s19.5 17.666 29.5 30.999s20 31.333 30 54l37 85.5l44.5 108l43.5 112c14 37 25.333 69.5 34 97.5c-10.667 0 -24.5 -1.66699 -41.5 -5s-34.667 -7.16602 -53 -11.499s-35.666 -8.83301 -51.999 -13.5
s-29.5 -8.66699 -39.5 -12c-19.333 -7.33301 -31.833 -20.333 -37.5 -39s-7.83398 -43.334 -6.50098 -74.001c-8.66699 0 -20.667 -1.33301 -36 -4s-27.333 -6 -36 -10c2 25.333 1.66699 50.666 -1 75.999s-6.33398 49.166 -11.001 71.499s-9.66699 42.5 -15 60.5
s-10 32 -14 42c5.33301 1.33301 12 3.66602 20 6.99902l24 10c2 -4.66699 5.33301 -10.5 10 -17.5s11.5 -13.333 20.5 -19s20.333 -10.167 34 -13.5s30.834 -4 51.501 -2c40.667 4 87.167 10 139.5 18s113.833 22 184.5 42z" />
    <glyph glyph-name="eight" unicode="8" horiz-adv-x="552" 
d="M527 274c3.33301 -16.667 3.16699 -39.499 -0.5 -68.499s-12.834 -58.167 -27.501 -87.5s-35.667 -55.833 -63 -79.5s-63.333 -38.5 -108 -44.5c-50 -6.66699 -93.833 -5.16699 -131.5 4.5s-69.167 24 -94.5 43s-44.5 40.667 -57.5 65s-20.5 47.5 -22.5 69.5
c-2 27.333 1.83301 52.833 11.5 76.5s21.834 44.5 36.501 62.5s30 32.5 46 43.5s29 17.833 39 20.5c-22 7.33301 -41.333 22 -58 44s-26 45.667 -28 71c-1.33301 14.667 2 31.834 10 51.501s19.833 38.667 35.5 57s34.667 34.5 57 48.5s47.5 22.333 75.5 25
c24.667 2.66699 48.334 0.333984 71.001 -6.99902s42.834 -17.333 60.501 -30s32 -26.334 43 -41.001s17.5 -28.334 19.5 -41.001c3.33301 -24 -0.333984 -49.333 -11.001 -76s-33.334 -48.667 -68.001 -66c14.667 -0.666992 31 -5.16699 49 -13.5s35 -18.833 51 -31.5
s30 -27.334 42 -44.001s19.667 -34 23 -52zM349.001 530.001c-0.666992 10.667 -2.99707 22.3262 -6.99707 34.9932s-9.66699 24.334 -17 35.001s-16.833 19.5 -28.5 26.5s-25.834 9.83301 -42.501 8.5c-17.333 -1.33301 -31.833 -6.66602 -43.5 -15.999
s-20.834 -20.166 -27.501 -32.499s-11.334 -25 -14.001 -38s-3.66699 -23.833 -3 -32.5s3.5 -19.5 8.5 -32.5s11.833 -25.167 20.5 -36.5s19.167 -20.666 31.5 -27.999s26.5 -9.66602 42.5 -6.99902s29.5 8.33398 40.5 17.001s19.5 18.667 25.5 30s10 23.333 12 36
s2.66699 24.334 2 35.001zM414.004 217.993c-2 18 -5.83105 36.168 -11.498 54.501s-14 34.666 -25 48.999s-25.333 25.666 -43 33.999s-39.5 11.5 -65.5 9.5c-22 -2 -40.833 -9 -56.5 -21s-28.334 -26.5 -38.001 -43.5s-16.667 -34.833 -21 -53.5
s-6.16602 -36 -5.49902 -52c1.33301 -16 6 -33.167 14 -51.5s18.833 -35.166 32.5 -50.499s29.5 -27.666 47.5 -36.999s37.333 -12.333 58 -9c20 3.33301 37.667 10.666 53 21.999s27.666 25 36.999 41s16.166 33.5 20.499 52.5s5.5 37.5 3.5 55.5z" />
    <glyph glyph-name="nine" unicode="9" horiz-adv-x="539" 
d="M516 383c1.33301 -63.333 -6.49707 -119.163 -23.4971 -167.496s-38 -88.833 -63 -121.5s-51.667 -57.334 -80 -74.001s-53.5 -24.667 -75.5 -24c-29.333 0.666992 -55.666 6.5 -78.999 17.5s-44.333 23.833 -63 38.5c-2 -10.667 -3 -24.334 -3 -41.001
s2.33301 -32.667 7 -48c-6 1.33301 -13.5 2.16602 -22.5 2.49902s-18 0.333008 -27 0s-17.667 -0.833008 -26 -1.5s-14.5 -1.33398 -18.5 -2.00098c5.33301 13.333 9 30 11 50s2.66699 41.5 2 64.5s-2.33398 46.667 -5.00098 71s-5.66699 47.5 -9 69.5
c9.33301 -3.33301 20.5 -5 33.5 -5s25.5 1.33301 37.5 4c2 -18 7 -36.5 15 -55.5s18.833 -36.5 32.5 -52.5s29.834 -29.333 48.501 -40s40 -16.334 64 -17.001c44 -2 74.5 19.5 91.5 64.5s27.167 105.5 30.5 181.5c-10.667 -20.667 -27.334 -40 -50.001 -58
s-56 -27.667 -100 -29c-26.667 -0.666992 -52.834 5 -78.501 17s-48.834 27.667 -69.501 47s-37.667 40.833 -51 64.5s-21 46.834 -23 69.501c-2 20 1 44.333 9 73s21.333 56.5 40 83.5s43 50.5 73 70.5s66.333 32 109 36c35.333 3.33301 68.666 -1 99.999 -13
s59 -30.667 83 -56s43.167 -56.5 57.5 -93.5s21.833 -78.833 22.5 -125.5zM383.003 466.003c-2 18 -6.33691 36.668 -13.0039 56.001s-15.667 36.833 -27 52.5s-24.666 28.167 -39.999 37.5s-32.333 13 -51 11c-20 -2 -38 -10.667 -54 -26s-29 -33.5 -39 -54.5
s-16.333 -43.333 -19 -67s-0.666992 -44.834 6 -63.501c15.333 -45.333 37.666 -80.166 66.999 -104.499s63.333 -30.833 102 -19.5c16.667 5.33301 29.834 14.166 39.501 26.499s16.834 26.833 21.501 43.5s7.33398 34.5 8.00098 53.5s0.333984 37.167 -0.999023 54.5z" />
    <glyph glyph-name="colon" unicode=":" horiz-adv-x="162" 
d="M139 246c0.666992 -4 0.166992 -10.332 -1.5 -18.999s-5.16699 -16.834 -10.5 -24.501s-12.833 -13.667 -22.5 -18s-21.834 -4.16602 -36.501 0.500977c-8 2.66699 -16.667 7.16699 -26 13.5s-15.666 15.166 -18.999 26.499
c-0.666992 2.66699 -0.833984 7.16699 -0.500977 13.5s2.33301 12.833 6 19.5s9.5 12.834 17.5 18.501s19.333 9.5 34 11.5c12.667 2 24.834 -1.83301 36.501 -11.5s19.167 -19.834 22.5 -30.501zM134 37.001c-1.33301 -12.667 -8.00098 -23.8311 -20.001 -33.498
s-23.667 -14.834 -35 -15.501c-4 0 -10 1.66699 -18 5s-15.167 8.5 -21.5 15.5s-10.666 15.667 -12.999 26s0.5 22.166 8.5 35.499c4 7.33301 10.167 15 18.5 23s18.5 12 30.5 12c2.66699 0 7.16699 -0.833008 13.5 -2.5s12.333 -5 18 -10s10.5 -12 14.5 -21
s5.33301 -20.5 4 -34.5z" />
    <glyph glyph-name="semicolon" unicode=";" horiz-adv-x="166" 
d="M133 255c2 -3.33301 3.16504 -9.33008 3.49805 -17.9971s-1.16699 -17.5 -4.5 -26.5s-9.16602 -16.667 -17.499 -23s-20.166 -8.83301 -35.499 -7.5c-8.66699 0.666992 -18.334 3 -29.001 7s-18.667 11.333 -24 22c-1.33301 2.66699 -2.5 7.16699 -3.5 13.5
s-0.5 13.166 1.5 20.499s6.16699 14.666 12.5 21.999s16.166 13.666 29.499 18.999c12.667 4.66699 25.834 3.5 39.501 -3.5s22.834 -15.5 27.501 -25.5zM139.998 54.0029c3.33301 -14.667 3.5 -29 0.5 -43s-7.66699 -26.833 -14 -38.5s-13.666 -21.834 -21.999 -30.501
s-16.5 -15 -24.5 -19l-9 13c-6 8.66699 -16.333 16.334 -31 23.001c7.33301 3.33301 14.5 8 21.5 14s11.833 13.667 14.5 23c-14.667 2.66699 -26.834 9 -36.501 19s-14.5 21.667 -14.5 35c0 14.667 5.5 27.167 16.5 37.5s23.833 15.5 38.5 15.5
c15.333 0 28.333 -4.66699 39 -14s17.667 -21 21 -35z" />
    <glyph glyph-name="less" unicode="&#x3c;" horiz-adv-x="348" 
d="M326 422c-32.667 -13.333 -66.334 -29.335 -101.001 -48.002s-66.334 -36.667 -95.001 -54c12.667 -4 27.834 -9.33301 45.501 -16l54 -20.5l52 -20.5c16.333 -6.66699 29.5 -12.334 39.5 -17.001c-7.33301 -17.333 -13.666 -36.833 -18.999 -58.5
s-9.33301 -42.167 -12 -61.5c-10 8.66699 -24.5 19 -43.5 31s-40.333 24.5 -64 37.5s-48.5 25.833 -74.5 38.5s-51 23.334 -75 32.001c2 24.667 0.666992 44.834 -4 60.501l-7 23.5c37.333 20.667 78 44.667 122 72s85.333 56 124 86c4.66699 -12.667 12.5 -27.667 23.5 -45
s22.5 -30.666 34.5 -39.999z" />
    <glyph glyph-name="equal" unicode="=" horiz-adv-x="422" 
d="M401 325l-31.999 3.00098c-21.333 2 -49.333 3.66699 -84 5s-74.167 1.83301 -118.5 1.5s-89.5 -2.5 -135.5 -6.5c0 1.33301 0.666992 6.5 2 15.5s2.66602 21.667 3.99902 38s1.66602 32.166 0.999023 47.499c53.333 -3.33301 111.333 -4.66602 174 -3.99902
s123.334 6 182.001 16v-18.5c0 -11 0.5 -25.833 1.5 -44.5s2.83301 -36.334 5.5 -53.001zM408.001 174.001l-31.5 3c-21 2 -48.167 3.83301 -81.5 5.5s-70.833 2.66699 -112.5 3s-83.167 -1.5 -124.5 -5.5l1 31.5c0.666992 21 -2 42.833 -8 65.5
c53.333 -4 111.333 -5.5 174 -4.5s123 6.16699 181 15.5v-18.5c0 -11 0.166992 -25.667 0.5 -44s0.833008 -35.5 1.5 -51.5z" />
    <glyph glyph-name="greater" unicode="&#x3e;" horiz-adv-x="382" 
d="M360 357c-1.33301 -4 -2.66699 -10.165 -4 -18.498s-2.66602 -17.166 -3.99902 -26.499s-2.5 -18.333 -3.5 -27s-1.5 -15.334 -1.5 -20.001c-20 -6.66699 -42 -15.334 -66 -26.001s-48 -22.5 -72 -35.5s-47.333 -26.5 -70 -40.5s-43 -27.333 -61 -40
c-2 7.33301 -5.16699 16.166 -9.5 26.499s-9.16602 20.833 -14.499 31.5s-10.833 20.167 -16.5 28.5s-10.834 14.166 -15.501 17.499c11.333 6 26.333 12.833 45 20.5l59 24l61 23.5c20 7.33301 37.333 13.333 52 18l-43 15.5c-17.333 6.33301 -35.5 13.333 -54.5 21
l-58 24.5c-19.667 8.66699 -37.834 17.334 -54.501 26.001c10 10.667 20.167 24.5 30.5 41.5s17.833 34.5 22.5 52.5c10 -8.66699 25.833 -19.5 47.5 -32.5s45.667 -26 72 -39s53.5 -25.5 81.5 -37.5s53.667 -21.333 77 -28z" />
    <glyph glyph-name="question" unicode="?" horiz-adv-x="546" 
d="M522 570c2 -25.333 -0.171875 -49.667 -6.50488 -73s-15.666 -45.333 -27.999 -66s-26.833 -39.167 -43.5 -55.5s-34 -29.833 -52 -40.5c-36 -20.667 -57.667 -46.167 -65 -76.5s-7 -64.833 1 -103.5c-20 2 -39.5 2 -58.5 0s-33.667 -4.33301 -44 -7
s-16.166 -4.33398 -17.499 -5.00098c-4 15.333 -6.33301 35.833 -7 61.5s6.33301 50.167 21 73.5c8.66699 13.333 22.167 26.166 40.5 38.499s37.333 26.5 57 42.5s37.667 34.667 54 56s27.166 48 32.499 80c2.66699 17.333 3.5 35.5 2.5 54.5s-4.66699 36.5 -11 52.5
s-16.166 29.333 -29.499 40s-30.666 16.334 -51.999 17.001c-43.333 1.33301 -77.166 -17.5 -101.499 -56.5s-36.166 -89.5 -35.499 -151.5c-8.66699 0.666992 -21 0.333984 -37 -0.999023s-28.667 -3 -38 -5c1.33301 34.667 0 65.167 -4 91.5s-9.33301 49.333 -16 69
s-14 36.667 -22 51s-15.333 26.833 -22 37.5c6.66699 0 18.5 1.66699 35.5 5s30.167 7.66602 39.5 12.999c8.66699 -24 19.5 -38.667 32.5 -44s27.833 -5.83301 44.5 -1.5s35 11.333 55 21s41.667 16.834 65 21.501c20 4 41.667 3.16699 65 -2.5s45.5 -15 66.5 -28
s38.833 -28.833 53.5 -47.5s23 -39 25 -61zM337.995 54.999c1.33301 -4 1.00195 -10.668 -0.998047 -20.001s-6 -18 -12 -26s-14.5 -14.167 -25.5 -18.5s-25.167 -4.16602 -42.5 0.500977c-9.33301 2.66699 -19.5 7.33398 -30.5 14.001s-18.167 16 -21.5 28
c-0.666992 3.33301 -0.833984 8.16602 -0.500977 14.499s2.66602 13 6.99902 20s11 13.5 20 19.5s21.833 10 38.5 12c14.667 2 29 -2.16699 43 -12.5s22.333 -20.833 25 -31.5z" />
    <glyph glyph-name="at" unicode="@" horiz-adv-x="557" 
d="M534 348c-1.33301 -33.333 -9.83105 -60.1689 -25.498 -80.502s-34.167 -35 -55.5 -44s-43.666 -13 -66.999 -12s-43 6.5 -59 16.5c-17.333 -10 -36.333 -14.667 -57 -14s-39.667 6 -57 16s-31.5 24 -42.5 42s-15.5 39 -13.5 63c0.666992 17.333 7.5 33.833 20.5 49.5
s28.5 27.834 46.5 36.501s37 13.167 57 13.5s37.667 -6.5 53 -20.5c9.33301 13.333 22.666 21.833 39.999 25.5s31.666 4.83398 42.999 3.50098c-7.33301 -22.667 -10 -41 -8 -55c-18 1.33301 -30.833 -6 -38.5 -22s-11.167 -32.667 -10.5 -50
c0.666992 -8.66699 1.83398 -17.334 3.50098 -26.001s4.16699 -15.834 7.5 -21.501s8.16602 -9.16699 14.499 -10.5s14.166 0.666992 23.499 6c16.667 10.667 30 26.834 40 48.501s13.667 44.167 11 67.5c-1.33301 12 -5.66602 26 -12.999 42s-17.666 31.5 -30.999 46.5
s-29.833 27.833 -49.5 38.5s-42.167 16.334 -67.5 17.001c-28.667 0.666992 -54.667 -5.66602 -78 -18.999s-43 -30.166 -59 -50.499s-28.333 -42.5 -37 -66.5s-12.667 -46.333 -12 -67s5.66699 -40.334 15 -59.001s22.666 -35.334 39.999 -50.001
s38.5 -26.334 63.5 -35.001s53.5 -13 85.5 -13c31.333 0 57 2.83301 77 8.5s41 12.834 63 21.501c0 -1.33301 -0.5 -5.16602 -1.5 -11.499s-1.5 -14.666 -1.5 -24.999s1.33301 -18.833 4 -25.5c-34 -12.667 -75.5 -20.167 -124.5 -22.5s-96.5 3 -142.5 16
s-85.333 35 -118 66s-49.334 73.167 -50.001 126.5c-0.666992 38 7.83301 72.5 25.5 103.5s40.334 57.667 68.001 80s58 39.5 91 51.5s64.5 17.667 94.5 17c23.333 -0.666992 48.833 -5.83398 76.5 -15.501s53.167 -23.834 76.5 -42.501s42.666 -41.667 57.999 -69
s22.333 -59 21 -95zM315.002 377.997c-9.33301 8 -19.334 11.668 -30.001 11.001s-20.5 -3.83398 -29.5 -9.50098s-16.667 -12.667 -23 -21s-10.166 -16.5 -11.499 -24.5c-2 -13.333 -0.5 -25.833 4.5 -37.5s12 -20.834 21 -27.501s19.5 -10.167 31.5 -10.5
s23.667 3.83398 35 12.501c-6 16.667 -8.5 35 -7.5 55s4.16699 37.333 9.5 52z" />
    <glyph glyph-name="A" unicode="A" horiz-adv-x="599" 
d="M576 101l-7.00195 -29.498c-4.66699 -19.667 -5.33398 -42.167 -2.00098 -67.5c-21.333 1.33301 -46.166 2.66602 -74.499 3.99902s-53.833 2 -76.5 2c-1.33301 21.333 -3.33301 47.833 -6 79.5s-7.33398 64.167 -14.001 97.5c-6.66699 34 -15 58.5 -25 73.5
s-22.333 24.5 -37 28.5s-31.667 4.5 -51 1.5s-41.666 -5.5 -66.999 -7.5c0 -2 -1.83301 -11 -5.5 -27s-7.5 -33.667 -11.5 -53l-11.5 -54.5c-3.66699 -17 -6.16699 -27.167 -7.5 -30.5c6.66699 -9.33301 16.667 -15.666 30 -18.999s24.333 -4.66602 33 -3.99902
c-1.33301 -11.333 -1.83301 -24.666 -1.5 -39.999s1.5 -28.666 3.5 -39.999c-6 -0.666992 -17.167 -1.83398 -33.5 -3.50098s-35.166 -3.83398 -56.499 -6.50098s-43.833 -6.16699 -67.5 -10.5s-45.5 -10.166 -65.5 -17.499c6 27.333 7.66699 51.333 5 72l-4 31
c16.667 3.33301 31.834 11.666 45.501 24.999s25.167 33.666 34.5 60.999c3.33301 9.33301 8.16602 25 14.499 47l21.5 76l25 90.5l24.5 89.5l19.5 73l11 42c-6 0.666992 -17 0.333984 -33 -0.999023s-32.333 -3 -49 -5c5.33301 15.333 8.5 31.666 9.5 48.999s1 31 0 41
s-1.5 15.667 -1.5 17c19.333 -2.66699 42.666 -4.83398 69.999 -6.50098s54.333 -3 81 -4s51 -1.16699 73 -0.5s37.667 2 47 4c1.33301 -50 6.33301 -104.167 15 -162.5s18.334 -113.833 29.001 -166.5s21.834 -98.834 33.501 -138.501s21.167 -65.5 28.5 -77.5
c4.66699 -8 12.167 -15 22.5 -21s20.833 -9.66699 31.5 -11zM358.998 360.002l-2.50098 20.499c-1.66699 13.667 -4.16699 31.334 -7.5 53.001s-7.33301 45.834 -12 72.501s-9.66699 53 -15 79l-18 -2l-20 -62.5c-13.333 -41.667 -30.666 -99.167 -51.999 -172.5
c8.66699 1.33301 19.667 2.66602 33 3.99902s26.5 2.5 39.5 3.5s24.667 2 35 3s16.833 1.5 19.5 1.5z" />
    <glyph glyph-name="B" unicode="B" horiz-adv-x="547" 
d="M524 477c0 -19.333 -4.16797 -38.832 -12.501 -58.499s-20.166 -37.167 -35.499 -52.5s-34.166 -28 -56.499 -38s-46.833 -15 -73.5 -15c28 -3.33301 51.167 -8.16602 69.5 -14.499s33.333 -14 45 -23s20.334 -19.5 26.001 -31.5s9.83398 -25.667 12.501 -41
c4 -24 -0.166992 -48.167 -12.5 -72.5s-29.833 -46.666 -52.5 -66.999s-48.834 -37 -78.501 -50s-59.5 -20.167 -89.5 -21.5c-38.667 -1.33301 -74.667 -2.83301 -108 -4.5s-72.333 -6.16699 -117 -13.5c2 17.333 2 34.166 0 50.499s-4.33301 28.833 -7 37.5
s-4.33398 13.667 -5.00098 15c18 4.66699 30.667 12.334 38 23.001s11.666 26.334 12.999 47.001c3.33301 36 5.5 72.5 6.5 109.5s1 72.667 0 107s-2.33301 66.5 -4 96.5s-3.5 55.667 -5.5 77c-2 23.333 -8 39.666 -18 48.999s-22.333 14.666 -37 15.999
c6.66699 25.333 9.66699 46.5 9 63.5l-1 25.5c28.667 -4 63 -6.66699 103 -8s85 -2.33301 135 -3c44 0 82 -6.5 114 -19.5s58.5 -29.333 79.5 -49s36.667 -41.334 47 -65.001s15.5 -46.834 15.5 -69.501zM423.999 464.001c0.666992 16 -1.33203 32.167 -5.99902 48.5
s-15.167 30.833 -31.5 43.5s-40.5 22.834 -72.5 30.501s-75 10.834 -129 9.50098c-8.66699 -80.667 -12.834 -139.167 -12.501 -175.5l0.5 -54.5c36 -6.66699 69.167 -10.834 99.5 -12.501s56.666 0.833008 78.999 7.5s39.833 18.167 52.5 34.5s19.334 39.166 20.001 68.499
zM388 157.001c10 19.333 11 37.002 3 53.002s-22.333 29.667 -43 41s-46.334 19.666 -77.001 24.999s-63.667 6.66602 -99 3.99902l6 -197c39.333 -6 72.333 -5.5 99 1.5s48.334 15.833 65.001 26.5s28.5 21 35.5 31z" />
    <glyph glyph-name="C" unicode="C" horiz-adv-x="635" 
d="M612 678l-3.50195 -6.99707c-2.33301 -4.66699 -5.5 -16.834 -9.5 -36.501s-9 -49.334 -15 -89.001s-12.667 -94.834 -20 -165.501l-66 15c4 23.333 2.66699 50 -4 80s-18 56.833 -34 80.5s-36.333 40.834 -61 51.501s-53 8.33398 -85 -6.99902
c-49.333 -36 -85 -75 -107 -117s-35.833 -82.333 -41.5 -121s-5.16699 -73.5 1.5 -104.5s14.334 -53.167 23.001 -66.5c0.666992 -1.33301 7.33398 -10.166 20.001 -26.499s31.334 -33.833 56.001 -52.5s52.5 -31.667 83.5 -39s65.167 -2.66602 102.5 14.001
s75.333 52.667 114 108l6 -18c4 -12 9.66699 -27.667 17 -47c-1.33301 -1.33301 -9.33301 -9.83301 -24 -25.5s-35.834 -33.834 -63.501 -54.501s-58.167 -37.834 -91.5 -51.501s-69 -19.5 -107 -17.5s-74.667 18.333 -110 49c-1.33301 1.33301 -10.5 9.5 -27.5 24.5
s-37.333 37.5 -61 67.5s-43.5 63.833 -59.5 101.5s-23.5 79.667 -22.5 126s16.833 93.833 47.5 142.5c31.333 48 61.833 86.167 91.5 114.5s58 49.166 85 62.499s52.5 20.666 76.5 21.999s45.5 -0.833984 64.5 -6.50098s35.5 -13.167 49.5 -22.5s24.667 -18 32 -26
c1.33301 -1.33301 5.5 -3.66602 12.5 -6.99902s15.833 -1 26.5 7s19 28.333 25 61l13.5 -5c9 -3.33301 30.833 -8 65.5 -14z" />
    <glyph glyph-name="D" unicode="D" horiz-adv-x="589" 
d="M560 196c-6.66699 -31.333 -18.3301 -58.1719 -34.9971 -80.5049s-37 -41.166 -61 -56.499s-51.167 -27.5 -81.5 -36.5s-62.833 -16.167 -97.5 -21.5c-18 -3.33301 -35.5 -4.66602 -52.5 -3.99902l-51.5 2c-17.333 0.666992 -35.666 0.333984 -54.999 -0.999023
s-40.666 -5.33301 -63.999 -12c0.666992 23.333 -1.5 42.166 -6.5 56.499l-7.5 21.5c8 2.66699 16.167 6.83398 24.5 12.501s16 13.334 23 23.001s12.667 21.667 17 36s6.16602 31.833 5.49902 52.5c0 14 -0.333008 37.667 -1 71s-1.33398 68.5 -2.00098 105.5
s-1.5 71.833 -2.5 104.5s-2.16699 55.334 -3.5 68.001c-1.33301 10.667 -7.16602 16.5 -17.499 17.5s-29.166 -3.16699 -56.499 -12.5c0.666992 24.667 -1.33301 45.667 -6 63l-7 26c14.667 4 32.167 8.5 52.5 13.5s42.166 9.5 65.499 13.5s47.666 7.16699 72.999 9.5
s50.333 3.16602 75 2.49902c48 -1.33301 90.667 -19.166 128 -53.499s68.166 -75.833 92.499 -124.5s41.166 -100 50.499 -154s9.66602 -101.333 0.999023 -142zM454.004 303.994c-0.666992 40 -5.33105 75.667 -13.998 107s-18.834 58.5 -30.501 81.5
s-23.5 41.667 -35.5 56s-21 23.833 -27 28.5c-12 10 -28.333 17 -49 21s-51.334 -1.66699 -92.001 -17l14 -502c29.333 -6 58 -5 86 3s53 21.667 75 41s39.667 44.333 53 75s20 66 20 106z" />
    <glyph glyph-name="E" unicode="E" horiz-adv-x="534" 
d="M512 245l0.493164 -0.508789c0.333008 -0.333008 0.166016 -7.33301 -0.500977 -21s-2 -37.167 -4 -70.5s-5.33301 -82.666 -10 -147.999c-24 4.66699 -57 7.33398 -99 8.00098s-86.333 0.333984 -133 -0.999023s-91.834 -3.5 -135.501 -6.5s-78.5 -5.5 -104.5 -7.5
c2.66699 20.667 2.66699 40 0 58l-4 27c15.333 4 29.666 10.167 42.999 18.5s23.333 20.833 30 37.5l1.5 10c1 6.66699 2.33301 24.834 4 54.501s3.33398 74.5 5.00098 134.5s3.5 143.667 5.5 251c-4.66699 4.66699 -12.667 9.16699 -24 13.5s-25.333 7.83301 -42 10.5
c4.66699 16.667 6.5 32 5.5 46l-1.5 21c20.667 -3.33301 44.334 -5.16602 71.001 -5.49902s53.334 -0.166016 80.001 0.500977s52.334 2 77.001 4s46 4 64 6l19.5 1.5c13 1 27.833 1.83301 44.5 2.5s33.334 0.666992 50.001 0s28.334 -2.66699 35.001 -6
c-4 -16 -6.83301 -33.667 -8.5 -53s-2.5 -38.166 -2.5 -56.499s1 -35.333 3 -51s4.33301 -27.5 7 -35.5l-19.5 -2.5c-13 -1.66699 -26.167 -6.16699 -39.5 -13.5c-5.33301 22 -10.5 40 -15.5 54s-10.167 25.5 -15.5 34.5s-11.166 16.5 -17.499 22.5s-13.5 11.667 -21.5 17
c-0.666992 0.666992 -4.83398 2.33398 -12.501 5.00098s-22.667 4 -45 4s-52.166 -4 -89.499 -12l-11 -226c33.333 -1.33301 58.833 6.16699 76.5 22.5s26.5 45.833 26.5 88.5c10.667 -4.66699 23.167 -8.5 37.5 -11.5s25.5 -5.5 33.5 -7.5l-2 -11.5
c-1.33301 -7.66699 -2.66602 -20.667 -3.99902 -39s-2.66602 -42.666 -3.99902 -72.999s-2.33301 -68.166 -3 -113.499c-6.66699 -0.666992 -16.834 -3 -30.501 -7l-33.5 -10c2.66699 22.667 0.166992 41 -7.5 55s-17.167 24.5 -28.5 31.5s-23.166 11 -35.499 12
s-21.833 -0.166992 -28.5 -3.5c-1.33301 -12.667 -2.33301 -30.5 -3 -53.5s-1 -46.5 -1 -70.5s0.166992 -45.833 0.5 -65.5s0.833008 -32.167 1.5 -37.5c55.333 -0.666992 98.666 1.16602 129.999 5.49902s54.833 13 70.5 26s25.334 31 29.001 54s5.83398 52.5 6.50098 88.5
c17.333 -0.666992 33 -1.5 47 -2.5s24.667 -1.83301 32 -2.5z" />
    <glyph glyph-name="F" unicode="F" horiz-adv-x="544" 
d="M521 505c-7.33301 1.33301 -20.6709 1.16992 -40.0039 -0.49707s-35.666 -3.16699 -48.999 -4.5c-1.33301 9.33301 -2.66602 19.833 -3.99902 31.5s-4.16602 22.834 -8.49902 33.501s-10.333 19.834 -18 27.501s-17.834 12.167 -30.501 13.5
c-16 1.33301 -38.5 1.33301 -67.5 0s-64.167 -6 -105.5 -14c-0.666992 -14 -1 -32.167 -1 -54.5s0.166992 -44.5 0.5 -66.5s0.666016 -41.167 0.999023 -57.5s0.5 -25.166 0.5 -26.499c11.333 1.33301 22.5 3.16602 33.5 5.49902s21.333 6.66602 31 12.999s18 15.5 25 27.5
s12.5 28.667 16.5 50l20.5 -1.5c13.667 -1 32.834 -2.5 57.501 -4.5c-0.666992 -8 -2.5 -19.333 -5.5 -34s-5.16699 -32.834 -6.5 -54.501s-1.16602 -46.167 0.500977 -73.5s6.5 -57.666 14.5 -90.999c-13.333 -3.33301 -26.5 -7.33301 -39.5 -12
s-21.167 -8.66699 -24.5 -12c-0.666992 10 -1.5 21.333 -2.5 34s-3.5 24.834 -7.5 36.501s-10 22 -18 31s-18.667 14.5 -32 16.5c-22.667 3.33301 -38.667 3.33301 -48 0s-15.333 -5 -18 -5c-0.666992 -6.66699 -1.33398 -19.667 -2.00098 -39s-0.666992 -40.166 0 -62.499
s1.83398 -43.833 3.50098 -64.5s4.5 -35.667 8.5 -45c4 -8 10.5 -14 19.5 -18s18.833 -6.83301 29.5 -8.5s21.167 -2.33398 31.5 -2.00098s18.5 1.16602 24.5 2.49902c-0.666992 -6 -1.16699 -13.5 -1.5 -22.5s-0.5 -17.667 -0.5 -26s0.166992 -16 0.5 -23
s1.16602 -11.833 2.49902 -14.5c-8 0 -20.833 0.333008 -38.5 1s-38 1 -61 1s-47.167 -0.5 -72.5 -1.5s-50 -3.16699 -74 -6.5c1.33301 20 0.833008 35.5 -1.5 46.5l-3.5 16.5c11.333 4 22.333 11.167 33 21.5s15.667 25.166 15 44.499
c-0.666992 11.333 -1.16699 28.833 -1.5 52.5s-1 50.334 -2 80.001s-2.16699 60.834 -3.5 93.501s-2.83301 63.667 -4.5 93s-3.66699 55.666 -6 78.999s-4.83301 40.666 -7.5 51.999c-5.33301 19.333 -13.5 31.833 -24.5 37.5s-23.5 8.5 -37.5 8.5
c4.66699 17.333 6.33398 33.666 5.00098 48.999l-2 23l81.5 -4.5c31 -1.66699 61.833 -2.83398 92.5 -3.50098s59.167 -0.666992 85.5 0s47.166 2.66699 62.499 6c20 4 35.167 8.16699 45.5 12.5s18.333 8.5 24 12.5s10 8.16699 13 12.5s7.16699 8.83301 12.5 13.5
c3.33301 0 9 -1 17 -3l24.5 -6l23 -5.5c7 -1.66699 10.833 -2.83398 11.5 -3.50098c-4 -12.667 -7.16699 -27.334 -9.5 -44.001s-3.66602 -34.167 -3.99902 -52.5s0.833984 -37.166 3.50098 -56.499s7 -37.333 13 -54z" />
    <glyph glyph-name="G" unicode="G" horiz-adv-x="646" 
d="M624 622c-19.333 -42 -34.6631 -79.165 -45.9961 -111.498s-20 -59.333 -26 -81s-9.83301 -38 -11.5 -49l-2.5 -16.5c-26 9.33301 -44.667 15 -56 17l-17 3c4.66699 53.333 2 94.5 -8 123.5s-21.667 50 -35 63s-26 20.5 -38 22.5l-18 3c-18.667 0 -40 -6.33301 -64 -19
s-46.667 -30.667 -68 -54s-39.833 -52.333 -55.5 -87s-24.5 -74 -26.5 -118c-1.33301 -20.667 0.5 -42.667 5.5 -66s12.667 -46 23 -68s23.5 -42.667 39.5 -62s35 -35 57 -47c27.333 -14.667 51.833 -22.167 73.5 -22.5s40.834 4.5 57.501 14.5s30.667 23.833 42 41.5
s19.666 37.167 24.999 58.5l-33 10c-22 6.66699 -60 12 -114 16l-2.5 33.5c-1 13 -2.16699 25.667 -3.5 38s-2.83301 23 -4.5 32s-3.5 14.5 -5.5 16.5l50 -14.5c22 -6.33301 46.833 -12.833 74.5 -19.5s56.834 -12.834 87.501 -18.501s60 -9.16699 88 -10.5
c-2.66699 -14.667 -5 -25.5 -7 -32.5s-2.33301 -17.833 -1 -32.5c-6.66699 -3.33301 -14.334 -9 -23.001 -17s-15.667 -19.667 -21 -35s-7.33301 -34.666 -6 -57.999s8.66602 -52.333 21.999 -87l-22 -6.5c-14.667 -4.33301 -32.334 -11.833 -53.001 -22.5
c-4.66699 28 -9.83398 49.833 -15.501 65.5l-8.5 23.5c-12.667 -14 -27.167 -26.167 -43.5 -36.5s-34.333 -17.833 -54 -22.5s-41.167 -5.66699 -64.5 -3s-49 10.667 -77 24l-38 26.5c-16.667 11.667 -34.667 26.667 -54 45s-38.5 40.166 -57.5 65.499s-34.833 54 -47.5 86
c-15.333 37.333 -21.166 76.666 -17.499 117.999s14.667 81.166 33 119.499s43.333 73.5 75 105.5s68.5 57.667 110.5 77c30.667 14 58 21.833 82 23.5s45.167 -0.166016 63.5 -5.49902s33.833 -12.833 46.5 -22.5s23 -19.167 31 -28.5c8 -8.66699 15.667 -15.667 23 -21
s14.666 -7.5 21.999 -6.5s15.5 6 24.5 15s18.833 23.5 29.5 43.5c15.333 -11.333 29.166 -19 41.499 -23z" />
    <glyph glyph-name="H" unicode="H" horiz-adv-x="562" 
d="M540 700l-3.99219 -27c-2.66699 -18 -2.66699 -37.333 0 -58c-16 -4 -30.167 -9.33301 -42.5 -16l-18.5 -10c-3.33301 -24 -5.5 -52.333 -6.5 -85s-1.33301 -66.167 -1 -100.5s1.16602 -68.333 2.49902 -102l3.5 -89.5c1 -26 2 -46.5 3 -61.5s1.5 -21.833 1.5 -20.5
c4.66699 -25.333 12.834 -41.166 24.501 -47.499s21.5 -10.833 29.5 -13.5l-11 -88c-27.333 4.66699 -63.166 8.16699 -107.499 10.5s-88.833 0.166016 -133.5 -6.50098c-2.66699 13.333 -5.33398 27.5 -8.00098 42.5s-6 24.5 -10 28.5c5.33301 1.33301 14 3 26 5
s24 5.5 36 10.5s22.667 12.333 32 22s14 22.5 14 38.5s0.5 32 1.5 48s2 30.667 3 44s1.66699 24.5 2 33.5s0.166016 14.5 -0.500977 16.5c-57.333 3.33301 -97.5 2.5 -120.5 -2.5l-34.5 -7.5c-6.66699 -2.66699 -12.667 -4.5 -18 -5.5s-9.5 -5.33301 -12.5 -13
s-5.16699 -20.5 -6.5 -38.5s-1.33301 -45.667 0 -83l1 -23c0.666992 -15.333 1.16699 -31.333 1.5 -48s0.666016 -30.667 0.999023 -42s0.166016 -13 -0.500977 -5c-4.66699 -1.33301 -12.834 -2.66602 -24.501 -3.99902l-39.5 -4.5c-14.667 -1.66699 -30.334 -3 -47.001 -4
s-32.667 -2.16699 -48 -3.5c3.33301 21.333 3.16602 41.166 -0.500977 59.499l-5.5 27.5c18.667 -0.666992 32.834 5.66602 42.501 18.999s15.5 27.666 17.5 42.999c-1.33301 -10.667 -1.33301 -8.83398 0 5.49902s3.5 35.666 6.5 63.999s6 61 9 98s5.66699 73 8 108
s3.5 66 3.5 93s-1.66699 44.5 -5 52.5c-2.66699 7.33301 -6.66699 14 -12 20s-22.333 13.667 -51 23c5.33301 16.667 7.83301 33 7.5 49l-0.5 24c14.667 -1.33301 32.167 -2.83301 52.5 -4.5s41.166 -3.16699 62.499 -4.5s42 -2.16602 62 -2.49902
s37.333 -0.166016 52 0.500977c0 -3.33301 -0.166992 -8.16602 -0.5 -14.499s-0.833008 -13 -1.5 -20s-1.16699 -13.5 -1.5 -19.5s-0.5 -10 -0.5 -12c-5.33301 -2 -12 -3.83301 -20 -5.5s-15.833 -4.66699 -23.5 -9s-14.834 -10.666 -21.501 -18.999
s-11.334 -20.166 -14.001 -35.499c-3.33301 -17.333 -5.5 -35.333 -6.5 -54s-1.33301 -36.334 -1 -53.001s1 -31.5 2 -44.5s1.83301 -22.167 2.5 -27.5l52.5 0.5c35 0.333008 79.167 -0.166992 132.5 -1.5c1.33301 7.33301 2 25 2 53s-0.833008 59.167 -2.5 93.5
s-4.16699 68.5 -7.5 102.5s-7.66602 60.333 -12.999 79h25c14.667 0 36.667 1.66699 66 5s60.666 9 93.999 17z" />
    <glyph glyph-name="I" unicode="I" horiz-adv-x="297" 
d="M274 700c-0.666992 -1.33301 -2.1709 -6.16992 -4.50391 -14.5029s-4.5 -20 -6.5 -35s-1.66699 -29.833 1 -44.5c-1.33301 0 -5.83301 -0.5 -13.5 -1.5s-16.334 -2.33301 -26.001 -4s-15.167 -3.16699 -16.5 -4.5c-0.666992 -10 -2.16699 -27.667 -4.5 -53
s-4.66602 -54.333 -6.99902 -87s-4.66602 -67.167 -6.99902 -103.5s-4.16602 -71.166 -5.49902 -104.499s-1.83301 -63 -1.5 -89s1.83301 -44.667 4.5 -56c14 -8 26.333 -13.167 37 -15.5l33 -7.5c-2 -14 -4 -29.167 -6 -45.5s-1.66699 -29.166 1 -38.499
c-25.333 5.33301 -49.833 8.16602 -73.5 8.49902s-45.334 -0.333984 -65.001 -2.00098s-36.5 -3.66699 -50.5 -6s-24 -3.83301 -30 -4.5c-4.66699 30.667 -7.66699 51.667 -9 63l-2 17c19.333 3.33301 35.333 7.33301 48 12s22 17.667 28 39c2 7.33301 3.33301 21.5 4 42.5
s0.833984 45.833 0.500977 74.5s-1 59.167 -2 91.5s-2.16699 63.333 -3.5 93s-2.83301 56.334 -4.5 80.001s-3.16699 40.834 -4.5 51.501c-1.33301 11.333 -4.16602 20 -8.49902 26s-9.5 10.5 -15.5 13.5s-12.167 4.83301 -18.5 5.5s-11.833 1.33398 -16.5 2.00098l-6 75
c14 -0.666992 33.333 -0.5 58 0.5s49.834 2.5 75.501 4.5s49.5 4.5 71.5 7.5s37.333 6.16699 46 9.5z" />
    <glyph glyph-name="J" unicode="J" horiz-adv-x="543" 
d="M520 261c2 -33.333 -5.00488 -68.335 -21.0049 -105.002s-37.667 -69 -65 -97s-58.333 -49.167 -93 -63.5s-69 -16.166 -103 -5.49902c-52.667 16.667 -94.667 43.334 -126 80.001s-43.666 83.334 -36.999 140.001c-12 6 -23.5 10 -34.5 12l-16.5 3
c2.66699 18.667 3 36 1 52l-3 24c18.667 -3.33301 39.667 -4.83301 63 -4.5s46.5 1.5 69.5 3.5s44.333 4.66699 64 8s34.834 6.66602 45.501 9.99902c0 -1.33301 -0.666992 -6.66602 -2 -15.999s-2.5 -22 -3.5 -38s-0.5 -30.333 1.5 -43c-26 0 -47.667 -1.66699 -65 -5
l-26 -5c-3.33301 -8.66699 -3.5 -22.334 -0.5 -41.001s9.16699 -34 18.5 -46c40.667 -41.333 75.667 -61.666 105 -60.999s59.666 28 90.999 82c13.333 24 21.833 56.333 25.5 97s4.66699 82.167 3 124.5s-4.83398 81.833 -9.50098 118.5s-8.33398 63.334 -11.001 80.001
c-21.333 4 -42.666 6.66699 -63.999 8s-40.666 2.16602 -57.999 2.49902s-31.5 0.166016 -42.5 -0.500977l-16.5 -1c0 0.666992 -0.166992 3.16699 -0.5 7.5s-2.16602 15 -5.49902 32s-9 41.5 -17 73.5c108.667 -12.667 189.834 -18.667 243.501 -18l80.5 1
c-4 -20.667 -6.16699 -48.167 -6.5 -82.5s0.333984 -70.833 2.00098 -109.5s3.83398 -77.167 6.50098 -115.5z" />
    <glyph glyph-name="K" unicode="K" horiz-adv-x="638" 
d="M616 618l-9.00098 -25.0039c-6 -16.667 -8.33301 -36 -7 -58c-13.333 -0.666992 -25.166 -0.833984 -35.499 -0.500977s-24.166 -2.5 -41.499 -8.5c-8.66699 -3.33301 -23.167 -14.166 -43.5 -32.499s-41.5 -38.833 -63.5 -61.5l-62.5 -66l-41.5 -45
c22.667 -61.333 44.167 -106.333 64.5 -135l30.5 -43c12.667 -14 25.667 -23.833 39 -29.5s27.333 -9 42 -10s30.334 0 47.001 3l54 9.5c-2 -6.66699 -4 -15.667 -6 -27s-3.5 -23 -4.5 -35s-1.66699 -23.167 -2 -33.5s-0.5 -17.833 -0.5 -22.5
c-16.667 -4 -35.167 -6.16699 -55.5 -6.5s-40 1 -59 4s-36 6.83301 -51 11.5s-25.5 10 -31.5 16c-7.33301 7.33301 -16.166 19.333 -26.499 36s-21 36 -32 58s-22 45.5 -33 70.5s-20.5 49.167 -28.5 72.5c-0.666992 -2.66699 -8 -11 -22 -25s-28.333 -31.333 -43 -52
c-0.666992 -4.66699 -0.833984 -15.167 -0.500977 -31.5s1.16602 -34.166 2.49902 -53.499s2.83301 -38.166 4.5 -56.499s3.16699 -32.166 4.5 -41.499c-19.333 5.33301 -44.166 6.83301 -74.499 4.5s-58.5 -5.83301 -84.5 -10.5c2.66699 14 3 28 1 42
s-4.16699 24.833 -6.5 32.5s-3.83301 12.167 -4.5 13.5c24.667 1.33301 40.167 6 46.5 14s11.166 17.667 14.499 29c2 5.33301 3.16699 18.666 3.5 39.999s0.333008 47 0 77s-0.833008 62.5 -1.5 97.5s-1.5 68.833 -2.5 101.5s-1.83301 62.334 -2.5 89.001s-1 46.667 -1 60
c-10.667 6 -22.5 9.33301 -35.5 10l-19.5 1c2.66699 23.333 0.666992 43.833 -6 61.5l-10 26.5c23.333 -4 48 -7 74 -9s50.333 -3.33301 73 -4s42.167 -0.666992 58.5 0s26.833 1.33398 31.5 2.00098c-2 -7.33301 -2.66699 -17.166 -2 -29.499
s1.33398 -22.833 2.00098 -31.5c-32 -2 -56 -11.667 -72 -29c-2.66699 -2.66699 -4.5 -11.667 -5.5 -27s-1.5 -34.166 -1.5 -56.499s0.5 -46.5 1.5 -72.5s2 -50.5 3 -73.5s2 -43 3 -60s1.83301 -27.833 2.5 -32.5c1.33301 1.33301 9.83301 11.833 25.5 31.5l54.5 68
l60.5 77.5c19.667 26 34.167 45.667 43.5 59c9.33301 14 14.666 25.5 15.999 34.5s0.166016 16.667 -3.50098 23s-9 11.666 -16 15.999s-14.167 9.16602 -21.5 14.499c1.33301 2.66699 4.83301 10.334 10.5 23.001s9.5 27 11.5 43c18 -7.33301 37.833 -13.333 59.5 -18
s43.667 -8.33398 66 -11.001s43.833 -4.66699 64.5 -6s39 -2.33301 55 -3z" />
    <glyph glyph-name="L" unicode="L" horiz-adv-x="548" 
d="M525 262c-2 -8.66699 -4.66797 -18.998 -8.00098 -30.998s-6.66602 -27.833 -9.99902 -47.5s-6.16602 -44.334 -8.49902 -74.001s-3.5 -66.167 -3.5 -109.5c-15.333 2 -42.833 2.83301 -82.5 2.5s-83.167 -1.16602 -130.5 -2.49902s-94.333 -3.33301 -141 -6
s-84.334 -5.33398 -113.001 -8.00098l1 19c0.666992 12.667 -1.66602 27.334 -6.99902 44.001c17.333 4 33 11.167 47 21.5s21.667 31.166 23 62.499c0.666992 12.667 1.16699 31.167 1.5 55.5s0.5 51.166 0.5 80.499v91v86c0 26 -0.166992 48 -0.5 66
s-0.833008 28.333 -1.5 31c-2 10 -5.5 20.667 -10.5 32s-18.833 17.333 -41.5 18c0.666992 23.333 -0.833008 41.833 -4.5 55.5l-5.5 20.5c18 0.666992 40 1.33398 66 2.00098s53 1.83398 81 3.50098s55.167 4 81.5 7s49.166 7.5 68.499 13.5l-3.5 -32.5
c-2.33301 -21.667 -2.83301 -47.5 -1.5 -77.5c-34.667 -0.666992 -64.667 -2.33398 -90 -5.00098l-38 -4c-0.666992 -8.66699 -2.16699 -25.167 -4.5 -49.5s-4.5 -52.833 -6.5 -85.5s-3.33301 -67.334 -4 -104.001s0 -72.167 2 -106.5s5.83301 -65.5 11.5 -93.5
s14.167 -49 25.5 -63c12 0 26.333 0.666992 43 2s33.5 3.5 50.5 6.5s33.167 7 48.5 12s27.333 10.833 36 17.5c18 14.667 30.333 38 37 70s10.334 62.667 11.001 92c13.333 -3.33301 26.166 -5.83301 38.499 -7.5s26.5 -3.16699 42.5 -4.5z" />
    <glyph glyph-name="M" unicode="M" horiz-adv-x="755" 
d="M732 80c-0.666992 -1.33301 -2.16406 -6.16406 -4.49707 -14.4971s-4.33301 -20 -6 -35s-0.833984 -29.833 2.49902 -44.5l-50 -0.5c-33.333 -0.333008 -82.333 -0.5 -147 -0.5c4 10.667 8.33301 33.834 13 69.501s9.16699 76.667 13.5 123s7.83301 94.5 10.5 144.5
s4 95 4 135l-12.5 -32c-8.33301 -21.333 -19.333 -51.666 -33 -90.999s-28.667 -87.5 -45 -144.5s-32.5 -120.833 -48.5 -191.5l-32.5 -9.5c-21.667 -6.33301 -50.5 -12.166 -86.5 -17.499c7.33301 20.667 11.666 43.667 12.999 69s1.33301 49.166 0 71.499
s-3.16602 41.166 -5.49902 56.499l-3.5 23l-13.5 63.5c-9 42.333 -25.5 111.166 -49.5 206.499c-1.33301 -19.333 -3.16602 -48.833 -5.49902 -88.5s-5.16602 -80.667 -8.49902 -123s-7.33301 -81.833 -12 -118.5s-10 -61.334 -16 -74.001
c-4.66699 -11.333 -10.834 -23.333 -18.501 -36s-17.667 -24.334 -30 -35.001s-27.833 -19.667 -46.5 -27s-41.667 -11.666 -69 -12.999c4 21.333 3.83301 43 -0.5 65s-9 39 -14 51s-7.83301 19 -8.5 21c20.667 2.66699 39.5 8.83398 56.5 18.501s29.167 24.167 36.5 43.5
c4 10.667 8.5 27.334 13.5 50.001s10 48 15 76s9.66699 57.167 14 87.5s8 58.666 11 84.999s5.16699 49 6.5 68s1.33301 31.167 0 36.5c-3.33301 14.667 -11 26.667 -23 36s-35.667 11 -71 5c11.333 25.333 17.5 47.666 18.5 66.999l1.5 29l50 -9
c33.333 -6 75.333 -8.66699 126 -8l3 -12.5c2 -8.33301 7.16699 -27.333 15.5 -57l37 -130.5l67.5 -233c15.333 31.333 32.166 68.833 50.499 112.5s34.666 87 48.999 130s24.5 82.5 30.5 118.5s4.33301 62 -5 78l51.5 -2.5c34.333 -1.66699 82.833 3.5 145.5 15.5
c0 -1.33301 -0.333008 -5.83301 -1 -13.5s-1 -18 -1 -31s0.666992 -24.833 2 -35.5c-12.667 -2 -24.167 -6.33301 -34.5 -13s-16.833 -18 -19.5 -34c-2 -13.333 -4.83301 -38.5 -8.5 -75.5s-6.33398 -78 -8.00098 -123s-1.5 -90.5 0.5 -136.5s8 -85 18 -117
c2 -6.66699 9.33301 -13.334 22 -20.001s26 -9.33398 40 -8.00098z" />
    <glyph glyph-name="N" unicode="N" horiz-adv-x="630" 
d="M607 676l-2.99805 -21.0039c-2 -14 -1.66699 -30.333 1 -49c-12.667 -3.33301 -24.167 -9.33301 -34.5 -18s-16.166 -18.667 -17.499 -30c-1.33301 -6.66699 -2.83301 -21.5 -4.5 -44.5s-3.5 -49.833 -5.5 -80.5s-3.66699 -63.167 -5 -97.5s-2.5 -66.666 -3.5 -96.999
s-1.16699 -56.333 -0.5 -78s2 -34.834 4 -39.501c6.66699 -15.333 12.5 -26.666 17.5 -33.999s16.167 -14.666 33.5 -21.999l-3.5 -20c-2.33301 -13.333 -2.83301 -28.333 -1.5 -45c-15.333 2.66699 -37.833 4.66699 -67.5 6s-62.834 0.333008 -99.501 -3l6 38
c2 12.667 2.16699 26 0.5 40s-5.83398 29.167 -12.501 45.5s-17 34.5 -31 54.5l-13.5 20.5l-39 57l-61.5 87l-81 111.5v-81c0 -32 0.166992 -63.5 0.5 -94.5s1 -58.5 2 -82.5s2.83301 -38.667 5.5 -44c4.66699 -11.333 15 -22.666 31 -33.999s34 -17.666 54 -18.999
l-1.5 -19c-1 -12.667 -2.16699 -29.334 -3.5 -50.001c-8 -2 -20.167 -4.33301 -36.5 -7s-34.5 -5.83398 -54.5 -9.50098s-40.833 -7.83398 -62.5 -12.501s-41.5 -9.66699 -59.5 -15c-1.33301 20.667 -4.16602 37.834 -8.49902 51.501l-6.5 20.5
c18 6 33.833 18.167 47.5 36.5s19.167 46.166 16.5 83.499c-2.66699 32.667 -5.16699 69 -7.5 109l-6.5 114c-2 36 -4 67.5 -6 94.5s-4 43.833 -6 50.5c-1.33301 4 -2.66602 9 -3.99902 15s-4 11.833 -8 17.5s-9.83301 10.834 -17.5 15.501s-18.167 8 -31.5 10
c5.33301 17.333 8 34.5 8 51.5v25.5l72 -5.5c48 -3.66699 112.333 -3.83398 193 -0.500977l-1 -23c-0.666992 -15.333 1 -31.666 5 -48.999c-10 0.666992 -20.667 0.166992 -32 -1.5s-20.833 -5.16699 -28.5 -10.5s-11.834 -13 -12.501 -23s4.66602 -23.667 15.999 -41
l8.5 -14c5.66699 -9.33301 16 -25.166 31 -47.499l61.5 -90l100 -141.5l12 139.5c4.66699 52.333 3 117.166 -5 194.499c1.33301 7.33301 -2.33398 14.5 -11.001 21.5s-26 8.83301 -52 5.5c-3.33301 18 -5.5 31.833 -6.5 41.5s-2.83301 20.834 -5.5 33.501
c32 -3.33301 68.833 -4.66602 110.5 -3.99902s82.167 3 121.5 7z" />
    <glyph glyph-name="O" unicode="O" horiz-adv-x="683" 
d="M660 279c-3.33301 -38 -15.999 -74.168 -37.999 -108.501s-48.5 -64.5 -79.5 -90.5s-64.5 -46.333 -100.5 -61s-70 -21.667 -102 -21c-20 0.666992 -44.667 5.5 -74 14.5s-58.833 22.5 -88.5 40.5s-57.334 40.333 -83.001 67s-44.834 57.834 -57.501 93.501
s-16.834 75.5 -12.501 119.5s21.5 92.333 51.5 145c12.667 22 28.167 44.833 46.5 68.5s39.5 45.167 63.5 64.5s51 35.5 81 48.5s62.333 20.167 97 21.5c12 0.666992 28.333 -1 49 -5s42.834 -11.5 66.501 -22.5s47.334 -26 71.001 -45s44.5 -43.5 62.5 -73.5
s31.667 -66 41 -108s11.333 -91.333 6 -148zM537.001 363.999c-4.66699 32.667 -13 64.5 -25 95.5s-26 58.833 -42 83.5s-33.333 44.5 -52 59.5s-37 22.833 -55 23.5c-16 0.666992 -33.667 -6 -53 -20s-37.833 -31.5 -55.5 -52.5s-33.5 -43.833 -47.5 -68.5
s-23.667 -47 -29 -67c-14 -52 -20 -97.167 -18 -135.5s9 -71.166 21 -98.499s27.833 -49.333 47.5 -66s40.167 -29.334 61.5 -38.001s42 -13.834 62 -15.501s36.667 -0.5 50 3.5c16.667 4.66699 34 16.167 52 34.5s34 41 48 68s24.5 57.333 31.5 91
s8.16699 67.834 3.5 102.501z" />
    <glyph glyph-name="P" unicode="P" horiz-adv-x="600" 
d="M574 431c-9.33301 -56 -28.3281 -99.1719 -56.9951 -129.505s-61.334 -52.5 -98.001 -66.5s-74.834 -22.5 -114.501 -25.5s-75.167 -5.16699 -106.5 -6.5c-4.66699 -30.667 -5.16699 -56.5 -1.5 -77.5s10.334 -38.167 20.001 -51.5s21.167 -23.166 34.5 -29.499
s27 -10.166 41 -11.499c-0.666992 -4.66699 -0.833984 -10.167 -0.500977 -16.5s0.5 -12.666 0.5 -18.999v-16.5c0 -4.66699 -0.666992 -7.66699 -2 -9c-8 1.33301 -22 2.5 -42 3.5s-42.333 1.66699 -67 2s-50 0.333008 -76 0s-49 -1.16602 -69 -2.49902
c5.33301 15.333 7.5 30.666 6.5 45.999l-1.5 23c15.333 1.33301 29.666 6.83301 42.999 16.5s21.333 26.5 24 50.5c2.66699 21.333 4.16699 52.833 4.5 94.5s-0.166992 84.5 -1.5 128.5s-3 84.833 -5 122.5s-3.66699 63.167 -5 76.5c-2 18 -9.33301 28.5 -22 31.5
s-26.334 3.16699 -41.001 0.5c-0.666992 18 -3.5 33 -8.5 45l-7.5 18c27.333 5.33301 62.166 12.666 104.499 21.999s87.833 17.333 136.5 24c34.667 5.33301 71.834 4.83301 111.501 -1.5s75.667 -19.166 108 -38.499s57.666 -45.666 75.999 -78.999
s23.5 -74.666 15.5 -123.999zM464.005 432.995c4.66699 28 0.999023 54.832 -11.001 80.499s-29.5 47 -52.5 64s-50.333 28 -82 33s-64.5 1.16699 -98.5 -11.5c-3.33301 -20 -6 -42.667 -8 -68s-3.66699 -52.5 -5 -81.5s-2.5 -59.333 -3.5 -91s-2.16699 -63.167 -3.5 -94.5
c46 2.66699 84.833 7.83398 116.5 15.501s57.667 18.167 78 31.5s35.833 30 46.5 50s18.334 44 23.001 72z" />
    <glyph glyph-name="Q" unicode="Q" horiz-adv-x="706" 
d="M683 -144c-28.667 -6 -55.3262 -5.83496 -79.9932 0.498047s-47.5 16.666 -68.5 30.999s-40 32 -57 53s-32.167 43.167 -45.5 66.5c-53.333 -9.33301 -100.833 -9.66602 -142.5 -0.999023s-78.167 23.334 -109.5 44.001s-57.5 45.334 -78.5 74.001
s-37.833 58.5 -50.5 89.5s-21 61 -25 90s-4.66699 54.167 -2 75.5c3.33301 26.667 15.833 58 37.5 94s48.5 70.167 80.5 102.5s67.333 59.333 106 81s76.667 31.5 114 29.5c42 -2 78.833 -10.833 110.5 -26.5s59.167 -35 82.5 -58s43 -48.5 59 -76.5s28.667 -55.5 38 -82.5
s16.166 -51.833 20.499 -74.5s6.83301 -40.667 7.5 -54c1.33301 -27.333 -2.83398 -56 -12.501 -86s-22.834 -58.5 -39.501 -85.5s-35.834 -50.833 -57.501 -71.5s-44.167 -35.667 -67.5 -45c19.333 -19.333 44.666 -33 75.999 -41s63.333 -9.66699 96 -5
c-4.66699 -17.333 -6.33398 -37.5 -5.00098 -60.5s5.66602 -44.167 12.999 -63.5zM539.008 388.998c-19.333 78.667 -44.668 137.834 -76.001 177.501s-62.333 58.834 -93 57.501c-15.333 0 -35.333 -7.16699 -60 -21.5s-48.834 -34.5 -72.501 -60.5
s-44.5 -57.5 -62.5 -94.5s-28 -78.833 -30 -125.5c-2 -40.667 4.5 -78.167 19.5 -112.5s35 -63.333 60 -87s53.333 -41.334 85 -53.001s63.167 -14.834 94.5 -9.50098c-17.333 28 -33.666 49.667 -48.999 65s-30.166 26.5 -44.499 33.5s-28.166 11 -41.499 12
s-26 0.833008 -38 -0.5c2.66699 14.667 3.16699 25.5 1.5 32.5s-4.16699 16.167 -7.5 27.5c9.33301 -2 25.166 -2.66699 47.499 -2s46.333 1.83398 72 3.50098s50.667 3.5 75 5.5s43.166 3.33301 56.499 4c-3.33301 -9.33301 -3.33301 -18.833 0 -28.5s5 -18.5 5 -26.5
c-16.667 -3.33301 -28.167 -8.5 -34.5 -15.5s-9.5 -15.333 -9.5 -25s2.5 -20 7.5 -31s11.167 -22.167 18.5 -33.5c16.667 9.33301 32.334 21.666 47.001 36.999s26 35 34 59s12.167 53.333 12.5 88s-5.5 76 -17.5 124z" />
    <glyph glyph-name="R" unicode="R" horiz-adv-x="636" 
d="M613 63c-0.666992 -1.33301 -2.00098 -5.8291 -4.00098 -13.4961s-3.83301 -19 -5.5 -34s-0.833984 -30.5 2.49902 -46.5c-24 1.33301 -47 2 -69 2s-41.167 -0.166992 -57.5 -0.5s-29.5 -0.833008 -39.5 -1.5l-15 -1c-2 76 -20.667 135.667 -56 179
s-81.333 65.666 -138 66.999c7.33301 -50.667 8.33301 -93.167 3 -127.5s-14.5 -62.333 -27.5 -84s-29 -38 -48 -49s-39.167 -18.5 -60.5 -22.5c-5.33301 36.667 -13.166 67.167 -23.499 91.5l-15.5 36.5c22.667 8.66699 40.334 22.334 53.001 41.001s19.667 39.667 21 63
c1.33301 20 1 49.833 -1 89.5s-4.66699 80.667 -8 123s-6.83301 81.666 -10.5 117.999s-6.5 61.166 -8.5 74.499c-3.33301 19.333 -10.5 30.166 -21.5 32.499s-23.833 1.5 -38.5 -2.5c-3.33301 30.667 -8 52.834 -14 66.501l-9 20.5c36.667 3.33301 76.167 9.5 118.5 18.5
s94.833 18.833 157.5 29.5c34 5.33301 67.833 4.66602 101.5 -2.00098s64.667 -18.834 93 -36.501s52.5 -40 72.5 -67s33 -57.833 39 -92.5c6.66699 -36.667 7.16699 -69.667 1.5 -99s-18.334 -55.833 -38.001 -79.5s-46.667 -45 -81 -64s-76.833 -36.5 -127.5 -52.5
c20.667 -2.66699 38.667 -9.5 54 -20.5s29 -23.667 41 -38s22.833 -29.5 32.5 -45.5l27.5 -44c14.667 -22 31.334 -33 50.001 -33s35 1.33301 49 4zM477.999 546.004c-31.333 65.333 -70.332 103.498 -116.999 114.498s-108.334 -0.5 -185.001 -34.5l2.5 -11.5
c1.66699 -7.66699 4.33398 -23.834 8.00098 -48.501s8.66699 -60.167 15 -106.5s14.166 -108.166 23.499 -185.499c18 2.66699 34.667 5.5 50 8.5s30.833 6.83301 46.5 11.5s31.834 10.667 48.501 18s35.667 17 57 29c40 22.667 63.167 52.834 69.5 90.501
s0.166016 75.834 -18.501 114.501z" />
    <glyph glyph-name="S" unicode="S" horiz-adv-x="628" 
d="M605 707c-4.66699 -8 -10.5049 -24.332 -17.5049 -48.999s-13.833 -52.167 -20.5 -82.5s-12.167 -61.333 -16.5 -93s-6.16602 -58.834 -5.49902 -81.501c-8 3.33301 -20 6.83301 -36 10.5s-30.333 3.16699 -43 -1.5c0.666992 24 -3.33301 48.667 -12 74
s-20 48.5 -34 69.5s-29.667 38.833 -47 53.5s-34.666 23.334 -51.999 26.001c-47.333 8 -86.166 -1.33301 -116.499 -28s-48.166 -64 -53.499 -112c-4.66699 -41.333 15.833 -75.5 61.5 -102.5s106.5 -49.167 182.5 -66.5c58 -13.333 101.833 -33.833 131.5 -61.5
s47.334 -57.5 53.001 -89.5s0.833984 -63.5 -14.499 -94.5s-38.666 -56.5 -69.999 -76.5c-20.667 -12.667 -42.834 -19.334 -66.501 -20.001s-47 2 -70 8s-44.667 14.167 -65 24.5s-37.166 20.166 -50.499 29.499c-2 -9.33301 -3.66699 -21.166 -5 -35.499
s-2 -27.5 -2 -39.5c-17.333 3.33301 -34 3.66602 -50 0.999023s-28 -5.5 -36 -8.5s-12.667 -4.83301 -14 -5.5c3.33301 16 6 35.5 8 58.5s3 45.833 3 68.5s-0.833008 43.334 -2.5 62.001s-4.5 32 -8.5 40c8 0 17.333 1.16699 28 3.5s23.334 5.5 38.001 9.5
c3.33301 -32 17.333 -59.667 42 -83s51.667 -40.5 81 -51.5s57 -15 83 -12s42 14.5 48 34.5s6.33301 37.667 1 53s-15 29 -29 41s-32.167 22.667 -54.5 32s-47.833 18 -76.5 26s-59.334 17.333 -92.001 28s-62.834 24 -90.501 40s-50.334 35.667 -68.001 59
s-25.5 52.333 -23.5 87c2 36 12.5 69.333 31.5 100s42.167 57.167 69.5 79.5s56.333 39.666 87 51.999s58 17.833 82 16.5s43.333 -5.5 58 -12.5s27.834 -14.5 39.501 -22.5s23 -15.333 34 -22s25.167 -10.334 42.5 -11.001c9.33301 12.667 17.166 28.834 23.499 48.501
s10.5 34.834 12.5 45.501c3.33301 -2.66699 9.83301 -5.16699 19.5 -7.5s20 -4.33301 31 -6s21.333 -3 31 -4s16.5 -1.5 20.5 -1.5z" />
    <glyph glyph-name="T" unicode="T" horiz-adv-x="582" 
d="M560 694c-3.33301 -24.667 -6.16602 -50.3281 -8.49902 -76.9951s-3.66602 -52.334 -3.99902 -77.001s0.333984 -47.334 2.00098 -68.001s4.83398 -37 9.50098 -49c-13.333 2 -26.333 2 -39 0s-23.667 -3.66699 -33 -5c-1.33301 66.667 -14 115.667 -38 147
s-54.333 46.333 -91 45c-4.66699 -42 -8.5 -79.5 -11.5 -112.5s-5.33301 -63.833 -7 -92.5s-2.5 -56.834 -2.5 -84.501s1 -56.834 3 -87.501c1.33301 -31.333 3.5 -57.833 6.5 -79.5s8 -39.5 15 -53.5s16.833 -24 29.5 -30s29.334 -8.66699 50.001 -8
c0 -5.33301 1.83301 -15.166 5.5 -29.499s6.5 -27.833 8.5 -40.5c-15.333 2 -36.5 2.83301 -63.5 2.5s-56.167 -1.83301 -87.5 -4.5s-62.5 -6.33398 -93.5 -11.001s-57.833 -10.334 -80.5 -17.001c2.66699 12.667 5 28.667 7 48s4 36 6 50
c27.333 -0.666992 48.333 3.83301 63 13.5s25.167 22.334 31.5 38.001s10.333 33.334 12 53.001s3.16699 39.167 4.5 58.5c2 19.333 3.5 47.333 4.5 84s1.66699 74.5 2 113.5s0.666016 76 0.999023 111s0.833008 60.5 1.5 76.5
c-9.33301 1.33301 -21.5 2.66602 -36.5 3.99902s-33.5 0.666016 -55.5 -2.00098c-11.333 -1.33301 -20.333 -9.5 -27 -24.5s-11.667 -32.5 -15 -52.5s-5.33301 -39.833 -6 -59.5s-0.333984 -34.5 0.999023 -44.5c-3.33301 0 -8.33301 -0.166992 -15 -0.5
s-13.834 -1.16602 -21.501 -2.49902s-15 -3 -22 -5s-12.833 -4 -17.5 -6c1.33301 10 2.16602 26.667 2.49902 50s-0.333984 48.5 -2.00098 75.5s-4.66699 53.667 -9 80s-10.166 47.5 -17.499 63.5c13.333 -2.66699 31.833 -5.33398 55.5 -8.00098s49.667 -5 78 -7
s57.666 -3.83301 87.999 -5.5s58.333 -3 84 -4s48 -1.66699 67 -2s31.5 -0.5 37.5 -0.5c36 0 58.333 14 67 42c8 -2.66699 16.833 -4.16699 26.5 -4.5s21.167 -0.5 34.5 -0.5z" />
    <glyph glyph-name="U" unicode="U" horiz-adv-x="601" 
d="M578 9c-30.667 -3.33301 -56 -9.16602 -76 -17.499l-30 -12.5c-4 24 -12.667 37.167 -26 39.5s-31 -1.83398 -53 -12.501c-18.667 -9.33301 -35.834 -15.666 -51.501 -18.999s-33.834 -4.66602 -54.501 -3.99902c-57.333 2 -100.166 17.667 -128.499 47
s-48 65.5 -59 108.5s-16 88.833 -15 137.5s1.83301 93 2.5 133c0.666992 44.667 -2.83301 78 -10.5 100s-25.834 34 -54.501 36c4.66699 16.667 6.33398 33 5.00098 49l-2 24c18 -1.33301 38.333 -1.66602 61 -0.999023s45.167 1.66699 67.5 3s43.333 2.83301 63 4.5
s35.5 3.16699 47.5 4.5c0 -8 -0.333008 -16.333 -1 -25s-0.333984 -18 0.999023 -28c-4 0 -9.83301 -0.5 -17.5 -1.5s-15.334 -3.16699 -23.001 -6.5s-14.5 -8.16602 -20.5 -14.499s-9.33301 -14.833 -10 -25.5c-0.666992 -7.33301 -2 -24.666 -4 -51.999
s-3.33301 -59.333 -4 -96s0 -75 2 -115s6.83301 -76.5 14.5 -109.5s18.834 -59.667 33.501 -80s34.334 -28.833 59.001 -25.5c32.667 4.66699 58.334 17.334 77.001 38.001s32.5 46.167 41.5 76.5s14.333 63.666 16 99.999s1.5 72.166 -0.5 107.499
s-4.83301 68.666 -8.5 99.999s-6.16699 57 -7.5 77c-1.33301 15.333 -10.833 26.5 -28.5 33.5s-36.167 9.16699 -55.5 6.5c1.33301 8 1.33301 19.667 0 35l-5 55c8.66699 -2 23.167 -4.33301 43.5 -7s42.5 -5.16699 66.5 -7.5l72.5 -7
c24.333 -2.33301 45.5 -4.16602 63.5 -5.49902l-3.5 -16c-2.33301 -10.667 -1.83301 -22.667 1.5 -36c-15.333 0 -26.5 -7.33301 -33.5 -22s-11.833 -34.834 -14.5 -60.501s-3.33398 -55.334 -2.00098 -89.001s3 -68.834 5 -105.501
c4.66699 -75.333 11.834 -141.333 21.501 -198s21.167 -95.334 34.5 -116.001z" />
    <glyph glyph-name="V" unicode="V" horiz-adv-x="667" 
d="M644 623l-5.49609 -20.9971c-3.66699 -14 -3.83398 -32 -0.500977 -54c-12 0.666992 -23.333 -0.666016 -34 -3.99902s-18.334 -12.333 -23.001 -27c-2 -7.33301 -6.83301 -23 -14.5 -47l-26.5 -85.5l-31.5 -106.5l-31 -110.5
c-9.66699 -35.667 -17.834 -68.334 -24.501 -98.001s-10.667 -52.167 -12 -67.5c-28.667 0 -59 -3.16699 -91 -9.5s-62.333 -13.833 -91 -22.5c-1.33301 7.33301 -4.5 21 -9.5 41s-11.167 38 -18.5 54c14 -0.666992 28 0.333008 42 3s26 7 36 13l-108.5 249
c-28.333 65.333 -52.333 117 -72 155s-36.667 64.667 -51 80s-29.5 23 -45.5 23c0 20 -1.66699 36 -5 48l-5 18c22 1.33301 47.333 3.33301 76 6s56.667 5.66699 84 9s51.666 6.66602 72.999 9.99902s35.333 6 42 8c0.666992 -8 1.66699 -17.5 3 -28.5
s4.66602 -24.833 9.99902 -41.5c-8.66699 -2 -19.5 -5.16699 -32.5 -9.5s-25.167 -10.166 -36.5 -17.499s-20 -16.5 -26 -27.5s-6 -23.833 0 -38.5l28.5 -72l44 -112l46.5 -115.5c15.333 -37 27.666 -64.833 36.999 -83.5c2 8 5.66699 21.333 11 40l18.5 64l22.5 76
l22.5 75.5l18 62.5c5 18 8.5 30.333 10.5 37c2.66699 10 3.66699 20.833 3 32.5s-3.66699 22 -9 31s-13.666 16 -24.999 21s-26.666 6.16699 -45.999 3.5c0 5.33301 0.166992 12.333 0.5 21s-0.166992 17.667 -1.5 27c5.33301 -2.66699 17.333 -4.83398 36 -6.50098
s40 -2.83398 64 -3.50098s49.333 -0.833984 76 -0.500977s50.667 0.833008 72 1.5z" />
    <glyph glyph-name="W" unicode="W" horiz-adv-x="884" 
d="M861 688l-6.5 -24.9971c-4.33301 -16.667 -6.5 -34.334 -6.5 -53.001c-15.333 -3.33301 -29.166 -11.166 -41.499 -23.499s-21.833 -30.5 -28.5 -54.5c-6 -20 -13.833 -51 -23.5 -93l-29.5 -132c-10 -46 -19 -89.5 -27 -130.5s-13 -70.167 -15 -87.5
c15.333 -5.33301 31.5 -8.5 48.5 -9.5l25.5 -1.5l-8.5 -28c-5.66699 -18.667 -9.16699 -38.667 -10.5 -60c-22 1.33301 -44.167 1.66602 -66.5 0.999023s-42.5 -1.5 -60.5 -2.5s-32.5 -2 -43.5 -3l-16.5 -1.5c7.33301 32 8 65.833 2 101.5s-15 71 -27 106
s-25.5 68.667 -40.5 101s-27.833 61.166 -38.5 86.499c-0.666992 -12.667 -4 -32 -10 -58s-13.167 -53.5 -21.5 -82.5s-16.833 -57.167 -25.5 -84.5l-21 -65c-6 -16.667 -12.833 -32 -20.5 -46s-17.667 -26.5 -30 -37.5s-27.833 -20 -46.5 -27
s-42.334 -11.833 -71.001 -14.5c-6.66699 32 -15.167 59.167 -25.5 81.5l-15.5 33.5c19.333 -2 39.333 0.5 60 7.5s36.334 18.5 47.001 34.5c-1.33301 4 -5 14.167 -11 30.5l-21 58l-26 72.5l-26 74.5l-21.5 63c-6.33301 18.333 -10.5 31.166 -12.5 38.499
c-3.33301 10.667 -7 24 -11 40s-10 31.5 -18 46.5s-18.833 27.5 -32.5 37.5s-31.5 14.333 -53.5 13c-0.666992 10 -2.16699 23.167 -4.5 39.5s-4.83301 29.833 -7.5 40.5c22.667 -2 46.334 -3.16699 71.001 -3.5s48.834 -0.166016 72.501 0.500977s46 1.66699 67 3
s39.5 3 55.5 5c-1.33301 -8 -2.16602 -17.333 -2.49902 -28s-0.166016 -19.667 0.500977 -27c-19.333 -4 -33.333 -11.667 -42 -23s-12 -29.333 -10 -54c0.666992 -12 4.33398 -32.167 11.001 -60.5s14.5 -59 23.5 -92s18.667 -65.833 29 -98.5s19.833 -59.334 28.5 -80.001
c6 14.667 12.5 34.5 19.5 59.5s13.833 51 20.5 78s12.334 53.167 17.001 78.5s7 45.666 7 60.999c-4.66699 0 -10.834 -0.166992 -18.501 -0.5l-23.5 -1c-8 -0.333008 -15.667 -1 -23 -2s-13 -1.83301 -17 -2.5c3.33301 9.33301 6.66602 22.166 9.99902 38.499
s6.33301 31.833 9 46.5c5.33301 0.666992 14.833 1.33398 28.5 2.00098s28.667 1.5 45 2.5s32.5 2.5 48.5 4.5s29 4.33301 39 7c3.33301 -20.667 10.166 -49.5 20.499 -86.5s21.666 -75.333 33.999 -115s24.666 -77.167 36.999 -112.5s22.166 -61.333 29.499 -78
c10.667 38 20.667 79.833 30 125.5s16.333 91.5 21 137.5s6.16699 89.833 4.5 131.5s-7.83398 76.834 -18.501 105.501l40 -3c17.333 -1.33301 36.333 -2.66602 57 -3.99902s41.5 -2.33301 62.5 -3s39.5 -0.333984 55.5 0.999023z" />
    <glyph glyph-name="X" unicode="X" horiz-adv-x="606" 
d="M584 71c-2.66699 -18 -4.16602 -34.834 -4.49902 -50.501l-0.5 -23.5c-26 0 -51.333 -1.66699 -76 -5s-43.5 -6.33301 -56.5 -9s-20.5 -4.33398 -22.5 -5.00098l-59 136.5c-16.667 37.667 -34.667 75.5 -54 113.5c-15.333 -32.667 -31 -63 -47 -91
s-33.833 -53.167 -53.5 -75.5s-42 -41.166 -67 -56.499s-54.5 -26.666 -88.5 -33.999c0.666992 42 -3.66602 75.333 -12.999 100l-14 37c62.667 14.667 112.334 39.667 149.001 75s66 81.666 88 138.999l-37.5 84.5c-15 33.667 -32.667 66.167 -53 97.5
s-43.166 58.166 -68.499 80.499s-53.333 32.833 -84 31.5c2 11.333 4 23.833 6 37.5s4.33301 25.834 7 36.501c33.333 -6 66.166 -9.5 98.499 -10.5s57.166 0.5 74.499 4.5c-3.33301 -14 -1.16602 -33 6.50098 -57s17.667 -49 30 -75s25.166 -51.167 38.499 -75.5l32 -58.5
c10.667 21.333 22.5 48 35.5 80s24.5 63.333 34.5 94c-11.333 5.33301 -22.333 9.66602 -33 12.999l-16 5c1.33301 9.33301 1.33301 19.333 0 30s-2.33301 20.334 -3 29.001c10.667 -1.33301 25.667 -2.16602 45 -2.49902s40.666 -0.166016 63.999 0.500977s47.333 2 72 4
s47.667 5 69 9c-2 -4.66699 -4.5 -10.834 -7.5 -18.501s-5.83301 -15.834 -8.5 -24.501s-5 -17.167 -7 -25.5s-3 -15.5 -3 -21.5c-26 0.666992 -49 -3.66602 -69 -12.999s-34.333 -22.666 -43 -39.999c-4.66699 -8.66699 -10.667 -21.667 -18 -39l-23.5 -55.5l-24 -58.5
l-19.5 -48c2.66699 -5.33301 10.167 -18.666 22.5 -39.999l41.5 -70.5l45 -74c14.667 -23.667 26 -40.834 34 -51.501c10 -13.333 21.667 -21.833 35 -25.5s28.666 -4.83398 45.999 -3.50098z" />
    <glyph glyph-name="Y" unicode="Y" horiz-adv-x="665" 
d="M642 624c-3.33301 -6 -6.33398 -14.8271 -9.00098 -26.4941s-5.33398 -20.834 -8.00098 -27.501c-29.333 1.33301 -51.666 -9.66699 -66.999 -33l-16.5 -28.5l-31 -56l-38 -70.5l-38 -73.5c-11.667 -23.667 -21.334 -44.667 -29.001 -63s-12.167 -31.5 -13.5 -39.5
c-3.33301 -24.667 -4.16602 -44.167 -2.49902 -58.5s2.83398 -27.5 3.50098 -39.5c1.33301 -12 9.16602 -21.833 23.499 -29.5s35.833 -7.83398 64.5 -0.500977l3 -33.5c1.33301 -15 2 -24.833 2 -29.5c-5.33301 -0.666992 -20.666 -3 -45.999 -7
s-53.5 -8.83301 -84.5 -14.5s-61.333 -12 -91 -19s-51.5 -13.833 -65.5 -20.5c3.33301 13.333 4.33301 28.833 3 46.5s-3.66602 33.5 -6.99902 47.5c7.33301 1.33301 16.166 2.33301 26.499 3s23.833 4 40.5 10c10 4 17.333 11.167 22 21.5s7.5 22.666 8.5 36.999
s0.833008 29.833 -0.5 46.5s-3 33.334 -5 50.001c-1.33301 12.667 -7 30.5 -17 53.5s-21.833 48.167 -35.5 75.5l-42.5 83l-39 76c-15.333 32 -30.666 50.667 -45.999 56s-34.333 5.66602 -57 0.999023c-3.33301 10 -7.83301 22.667 -13.5 38l-14.5 40
c42.667 6.66699 87 12.167 133 16.5s88.333 10.5 127 18.5c0 -4.66699 1.33301 -12.834 4 -24.501s4.33398 -20.834 5.00098 -27.501c-4.66699 0 -10.5 -1.83301 -17.5 -5.5s-13.5 -8.16699 -19.5 -13.5s-10.833 -11.166 -14.5 -17.499s-4.5 -12.166 -2.5 -17.499l18 -46.5
l33.5 -83.5l36.5 -86c12 -27.333 20.667 -45.666 26 -54.999c3.33301 5.33301 9.5 17.5 18.5 36.5l29 62l28.5 64c8.66699 20.333 14.667 35.166 18 44.499l10.5 28.5c3.66699 9.66699 5.16699 19 4.5 28s-4.66699 17.167 -12 24.5s-20.333 13 -39 17
c1.33301 5.33301 3.16602 13.666 5.49902 24.999s4.16602 24.666 5.49902 39.999c8 -3.33301 21.833 -7.33301 41.5 -12s41 -9.33398 64 -14.001s45.333 -8.66699 67 -12s38.167 -5 49.5 -5z" />
    <glyph glyph-name="Z" unicode="Z" horiz-adv-x="570" 
d="M547 576c-22.667 -8 -46.3311 -22.9951 -70.998 -44.9951s-49.334 -47.667 -74.001 -77s-48.334 -60.833 -71.001 -94.5s-43.5 -66.334 -62.5 -98.001s-35 -60.5 -48 -86.5s-22.167 -46 -27.5 -60c16.667 -0.666992 34.334 -1.66699 53.001 -3l54 -4
c17.333 -1.33301 33.5 -2.66602 48.5 -3.99902s27.167 -2.33301 36.5 -3c14.667 -0.666992 25.5 5.16602 32.5 17.499s11.667 27.166 14 44.499s2.66602 35.166 0.999023 53.499s-3.83398 32.833 -6.50098 43.5c16 -2.66699 33 -2.16699 51 1.5s38.667 6.16699 62 7.5
c-2.66699 -10 -5 -26.833 -7 -50.5s-3.33301 -49.834 -4 -78.501s-0.333984 -57.834 0.999023 -87.501s4 -55.167 8 -76.5c-36 10.667 -78.167 20 -126.5 28s-96.666 14.667 -144.999 20s-94.333 9.33301 -138 12s-78.834 4 -105.501 4c18 38 42.167 81.167 72.5 129.5
l95 146l96.5 139l77 109.5c-6.66699 0 -16.334 -0.833008 -29.001 -2.5s-26.834 -3.66699 -42.501 -6s-32 -5.33301 -49 -9s-33.167 -7.5 -48.5 -11.5c-12 -3.33301 -22 -9.33301 -30 -18s-14.333 -18.834 -19 -30.501s-7.83398 -23.667 -9.50098 -36s-2.5 -23.5 -2.5 -33.5
c-8.66699 0.666992 -21 -0.5 -37 -3.5s-28.333 -5.16699 -37 -6.5c4.66699 46 5.83398 86.333 3.50098 121s-5.66602 63.667 -9.99902 87s-8.66602 41 -12.999 53l-6.5 18c1.33301 0 5.83301 -0.333008 13.5 -1s18.334 -0.666992 32.001 0s26.834 3.33398 39.501 8.00098
c0 -12.667 5.33301 -26.334 16 -41.001s33.667 -22.667 69 -24c28 -1.33301 57.333 -0.166016 88 3.50098s60.667 8.16699 90 13.5s57.333 11.333 84 18s49.667 13 69 19l1.5 -33c1 -22 4.83301 -46.333 11.5 -73z" />
    <glyph glyph-name="bracketleft" unicode="[" horiz-adv-x="294" 
d="M272 -169c-6.66699 0 -19.3359 -0.664062 -38.0029 -1.99707s-39.334 -3.16602 -62.001 -5.49902s-45.167 -5.16602 -67.5 -8.49902s-40.833 -7 -55.5 -11c4 29.333 6.66699 70.333 8 123s2 111.5 2 176.5s-1 133.667 -3 206s-4.5 142.666 -7.5 210.999
s-6.83301 132 -11.5 191s-9.66699 107.833 -15 146.5c10 -2.66699 26 -4.83398 48 -6.50098s45.167 -2.66699 69.5 -3s48 -0.333008 71 0s40.833 0.833008 53.5 1.5l-6 -32c-4 -21.333 -4.66699 -46.333 -2 -75c-17.333 0 -34.5 -1.66699 -51.5 -5
s-29.833 -6.66602 -38.5 -9.99902s-13.667 -5.33301 -15 -6c0 -6.66699 -0.166992 -27.167 -0.5 -61.5s-0.666016 -76 -0.999023 -125s-0.833008 -101.833 -1.5 -158.5s-1.16699 -110.834 -1.5 -162.501s-0.666016 -97.334 -0.999023 -137.001
s-0.166016 -67.167 0.500977 -82.5c0.666992 -22.667 5.33398 -39.5 14.001 -50.5s19 -18.333 31 -22s24.5 -4.5 37.5 -2.5s24.167 4.66699 33.5 8c0 -1.33301 -0.166992 -6.83301 -0.5 -16.5s0.166992 -22.334 1.5 -38.001s4.33301 -29.834 9 -42.501z" />
    <glyph glyph-name="backslash" unicode="\" horiz-adv-x="560" 
d="M537 -86c-2.66699 0 -8 -0.833008 -16 -2.5s-16.667 -3.83398 -26 -6.50098s-18.333 -5.5 -27 -8.5s-15 -5.83301 -19 -8.5c-9.33301 21.333 -24.166 53.333 -44.499 96l-69.5 145.5l-83 172l-87 174.5l-80.5 153.5c-25 46.333 -45.833 82.833 -62.5 109.5
c33.333 2.66699 61.666 7.83398 84.999 15.501l35 11.5c13.333 -40 34.5 -94.333 63.5 -163l98 -223c36.333 -80 75 -161 116 -243s80.167 -156.333 117.5 -223z" />
    <glyph glyph-name="bracketright" unicode="]" horiz-adv-x="298" 
d="M275 858c-5.33301 -38.667 -10.1719 -87.5039 -14.5049 -146.504s-8.16602 -122.667 -11.499 -191s-5.83301 -138.666 -7.5 -210.999s-2.5 -141 -2.5 -206s0.833008 -123.833 2.5 -176.5s4.16699 -93.667 7.5 -123c-14.667 4 -33.334 7.66699 -56.001 11
s-45.5 6.16602 -68.5 8.49902s-44 4.16602 -63 5.49902s-32.167 2 -39.5 2c4.66699 12.667 7.83398 26.834 9.50098 42.501s2.33398 28.334 2.00098 38.001s-0.5 15.167 -0.5 16.5c8.66699 -3.33301 19.5 -6 32.5 -8s25.5 -1.16699 37.5 2.5s22.5 11 31.5 22
s13.833 27.833 14.5 50.5c0.666992 15.333 0.833984 42.833 0.500977 82.5s-0.666016 85.334 -0.999023 137.001s-0.833008 105.834 -1.5 162.501s-1.16699 109.5 -1.5 158.5s-0.666016 90.667 -0.999023 125s-0.5 54.833 -0.5 61.5l-28 9c-18.667 6 -44.667 10 -78 12
c2.66699 28.667 2.16699 53.667 -1.5 75l-5.5 32c12.667 -0.666992 30.5 -1.16699 53.5 -1.5s47 -0.333008 72 0s48.5 1.33301 70.5 3s38 3.83398 48 6.50098z" />
    <glyph glyph-name="asciicircum" unicode="^" horiz-adv-x="312" 
d="M289 734c-10 -13.333 -17.5 -27.167 -22.5 -41.5l-7.5 -21.5c-18.667 7.33301 -36.167 17.833 -52.5 31.5s-28.5 25.334 -36.5 35.001s-12.667 15.167 -14 16.5c-1.33301 -1.33301 -6.66602 -7.16602 -15.999 -17.499s-22.333 -22.333 -39 -36s-32.667 -23.5 -48 -29.5
l-7.5 22.5c-5 15 -12.833 28.5 -23.5 40.5c30.667 13.333 56.5 29.333 77.5 48s39.833 37 56.5 55c16.667 -18.667 36.167 -37.334 58.5 -56.001s47.166 -34.334 74.499 -47.001z" />
    <glyph glyph-name="underscore" unicode="_" horiz-adv-x="541" 
d="M541 -26l-6.49902 -27c-4.33301 -18 -3.83301 -42 1.5 -72c-26.667 4 -62.667 7 -108 9s-93.333 3.5 -144 4.5s-100.834 1.33301 -150.501 1s-92.5 -1.16602 -128.5 -2.49902c4 25.333 4.16699 47.333 0.5 66l-5.5 28c53.333 -2.66699 103.333 -5.33398 150 -8.00098
s91.667 -4.5 135 -5.5s86 -1.16699 128 -0.5s84.667 3 128 7z" />
    <glyph glyph-name="grave" unicode="`" horiz-adv-x="240" 
d="M220 523l-22.001 -1.5c-14.667 -1 -30.667 -4.16699 -48 -9.5l-9.5 14l-26.5 37.5l-41 55l-53 66.5c1.33301 0 6.33301 -0.166992 15 -0.5s20.667 0.5 36 2.5s30 6 44 12c30.667 -55.333 55.834 -98.5 75.501 -129.5z" />
    <glyph glyph-name="a" unicode="a" horiz-adv-x="431" 
d="M408 67c-0.666992 -1.33301 -2.17676 -6.5 -4.50977 -15.5s-4 -21.333 -5 -37s0.833008 -31.167 5.5 -46.5c-19.333 -6.66699 -36.5 -9.16699 -51.5 -7.5s-27.833 6.33398 -38.5 14.001s-19 16.834 -25 27.501s-9.33301 21.667 -10 33
c-30 -20.667 -60.167 -31.834 -90.5 -33.501s-57.666 2.66602 -81.999 12.999s-44.333 25.5 -60 45.5s-23.834 41 -24.501 63c-1.33301 44.667 11 79 37 103s61.333 42.667 106 56c24 7.33301 43.5 13.833 58.5 19.5s27.833 11.5 38.5 17.5s19.834 12.5 27.501 19.5
s15.5 15.167 23.5 24.5c-0.666992 8.66699 -3.5 17.834 -8.5 27.501s-11.667 18.334 -20 26.001s-17.666 13.667 -27.999 18s-21.5 5.5 -33.5 3.5c-23.333 -4 -44.666 -14.833 -63.999 -32.5s-29.333 -43.834 -30 -78.501c-8 -0.666992 -17.667 -1.66699 -29 -3
s-23 -4.33301 -35 -9c0.666992 23.333 -1 50.5 -5 81.5s-10.333 57.5 -19 79.5c4.66699 0 13.834 1.33301 27.501 4s23.167 6 28.5 10c0.666992 -4 2.33398 -9.16699 5.00098 -15.5s7.5 -11.5 14.5 -15.5s16.5 -5.83301 28.5 -5.5s27 5.16602 45 14.499
c27.333 14 57.5 17 90.5 9s63.833 -29 92.5 -63c10 -12 16.333 -30.833 19 -56.5s3.16699 -52.667 1.5 -81s-4.16699 -55.5 -7.5 -81.5s-5.66602 -45.333 -6.99902 -58c-1.33301 -10.667 -2.16602 -21 -2.49902 -31s0.333984 -18.5 2.00098 -25.5s4.83398 -12 9.50098 -15
s11.334 -2.5 20.001 1.5zM318.99 305c-8.66699 -12.667 -21.667 -24.332 -39 -34.999s-40.333 -22.334 -69 -35.001c-14.667 -6 -28 -15.167 -40 -27.5s-21.167 -26 -27.5 -41s-9.16602 -30.5 -8.49902 -46.5s6.33398 -30.333 17.001 -43c9.33301 -10.667 20 -17.5 32 -20.5
s24.167 -3 36.5 0s24.166 8.5 35.499 16.5s20.666 17.333 27.999 28c2 8.66699 4.83301 20.167 8.5 34.5s7.5 30.5 11.5 48.5s7.5 37.333 10.5 58s4.5 41.667 4.5 63z" />
    <glyph glyph-name="b" unicode="b" horiz-adv-x="545" 
d="M522 189c-1.33301 -39.333 -9.33301 -71.8311 -24 -97.498s-31.5 -46.334 -50.5 -62.001s-38.333 -26.667 -58 -33s-34.834 -9.5 -45.501 -9.5c-13.333 0 -27.5 1.5 -42.5 4.5s-29.667 7.16699 -44 12.5s-27.666 11.333 -39.999 18s-22.5 14 -30.5 22
c-1.33301 -8.66699 -2.5 -19.834 -3.5 -33.501s-0.833008 -25.5 0.5 -35.5c-12 1.33301 -30.333 1 -55 -1s-46 -5 -64 -9l-1 21c-0.666992 14 -3.66699 28 -9 42c10 4 19.333 8.33301 28 13s14.667 9.33398 18 14.001c8.66699 59.333 12.834 122.5 12.501 189.5
s-2.83301 129.5 -7.5 187.5s-10 107 -16 147s-10 62.667 -12 68c-2 6 -9.66699 10.333 -23 13s-24.333 4.33398 -33 5.00098l4 20.5c2.66699 13.667 2.66699 30.167 0 49.5c12.667 -3.33301 27.167 -5.83301 43.5 -7.5s32.333 -2.83398 48 -3.50098
s29.834 -0.833984 42.501 -0.500977s21.334 0.833008 26.001 1.5c0 -16.667 0.666992 -38.167 2 -64.5s2.83301 -53.833 4.5 -82.5s3 -56.5 4 -83.5s1.5 -49.167 1.5 -66.5c15.333 17.333 35.666 31.5 60.999 42.5s51.666 16.167 78.999 15.5
c12 -0.666992 28.833 -7.5 50.5 -20.5s42.667 -32 63 -57s37.666 -55.833 51.999 -92.5s20.5 -79 18.5 -127zM406 215.002c-2 20.667 -5.83008 42.0049 -11.4971 64.0049s-12.667 42.167 -21 60.5s-18.5 33.166 -30.5 44.499s-25.667 17 -41 17
c-17.333 0 -32 -6.5 -44 -19.5s-21.667 -29 -29 -48s-12.833 -39.5 -16.5 -61.5s-5.83398 -42.333 -6.50098 -61c-0.666992 -19.333 0.666016 -38.833 3.99902 -58.5s9.5 -37.334 18.5 -53.001s21 -28.334 36 -38.001s33.5 -14.5 55.5 -14.5c12 0 23.667 4.66699 35 14
s21.166 21.666 29.499 36.999s14.5 33.166 18.5 53.499s5 41.5 3 63.5z" />
    <glyph glyph-name="c" unicode="c" horiz-adv-x="463" 
d="M440 453c-4 -10 -8.49805 -23.334 -13.498 -40.001s-9.66699 -34 -14 -52s-8 -35.5 -11 -52.5s-4.16699 -31.5 -3.5 -43.5c-4.66699 -0.666992 -10.834 -1.83398 -18.501 -3.50098l-22.5 -5c-7.33301 -1.66699 -14 -3.5 -20 -5.5s-9.66699 -3.66699 -11 -5
c2.66699 49.333 -2 89.666 -14 120.999s-29 47.333 -51 48c-12.667 0.666992 -26.5 -3 -41.5 -11s-29 -20.167 -42 -36.5s-23.833 -36.833 -32.5 -61.5s-13.334 -53 -14.001 -85c-0.666992 -32.667 4.33301 -60.167 15 -82.5s23.834 -40.333 39.501 -54
s32.334 -23.167 50.001 -28.5s33.5 -7 47.5 -5c30.667 4.66699 54.5 13.5 71.5 26.5s30.167 25.833 39.5 38.5l7.5 -18c5 -12 13.167 -22.667 24.5 -32c-12 -14 -23.5 -25.667 -34.5 -35s-23 -17.166 -36 -23.499s-27.167 -11.333 -42.5 -15s-33.666 -6.5 -54.999 -8.5
c-18 -2 -40.667 0.833008 -68 8.5s-53.666 20 -78.999 37s-46.833 39.333 -64.5 67s-25.834 60.5 -24.501 98.5c1.33301 38.667 9.66602 75 24.999 109s33.5 63.5 54.5 88.5s43 44.833 66 59.5s42.5 21.667 58.5 21c18 0 32.333 -1.66699 43 -5s19.667 -7 27 -11
s13.666 -8.16699 18.999 -12.5s11 -7.83301 17 -10.5c12.667 -5.33301 24.5 -4.5 35.5 2.5s18.833 17.167 23.5 30.5c5.33301 -3.33301 13.166 -6.66602 23.499 -9.99902s18.833 -4.66602 25.5 -3.99902z" />
    <glyph glyph-name="d" unicode="d" horiz-adv-x="493" 
d="M468 37l-5.50293 -18.5029c-3.66699 -12.333 -5.16699 -27.166 -4.5 -44.499c-18.667 3.33301 -40.334 6 -65.001 8s-43 2.33301 -55 1c-3.33301 16.667 -6 31.167 -8 43.5l-3 18.5c-12.667 -15.333 -28.5 -28.166 -47.5 -38.499s-41.833 -15.5 -68.5 -15.5
c-11.333 0 -27.166 3.33301 -47.499 10s-40.833 17.667 -61.5 33s-39 36 -55 62s-25 58.333 -27 97c-2 48 4.83301 89.5 20.5 124.5s34.834 64.167 57.501 87.5s45.834 40.833 69.501 52.5s42.834 17.5 57.501 17.5c27.333 0.666992 47.833 -4.33301 61.5 -15
s24.834 -22.667 33.501 -36c0 34.667 2.33301 66.167 7 94.5s7.33398 58.833 8.00098 91.5l-34.5 5c-23 3.33301 -50.167 3.66602 -81.5 0.999023c3.33301 15.333 3.83301 31.333 1.5 48s-4.83301 29.834 -7.5 39.501s-4.33398 15.167 -5.00098 16.5
c34 -6.66699 66.167 -11.5 96.5 -14.5s56.833 -5 79.5 -6s40.667 -1.33301 54 -1l20 0.5c-4 -13.333 -9.83301 -43 -17.5 -89s-14.334 -99.667 -20.001 -161s-9.16699 -126.166 -10.5 -194.499s2.66699 -131.833 12 -190.5c2.66699 -5.33301 8.5 -10.333 17.5 -15
s18.5 -8.66699 28.5 -12zM317.997 219.997c-0.666992 21.333 -2.16797 42.3311 -4.50098 62.998s-6.5 39.5 -12.5 56.5s-14.333 30.667 -25 41s-24.667 15.5 -42 15.5c-15.333 0 -29.166 -5 -41.499 -15s-23 -23.333 -32 -40s-16.333 -35.334 -22 -56.001
s-9.5 -41.667 -11.5 -63c-2 -22 0.166992 -42.667 6.5 -62s14.666 -36.166 24.999 -50.499s21.833 -25.5 34.5 -33.5s24 -12 34 -12c20.667 0.666992 37 5.5 49 14.5s21.333 20.833 28 35.5s10.834 31.334 12.501 50.001s2.16699 37.334 1.5 56.001z" />
    <glyph glyph-name="e" unicode="e" horiz-adv-x="493" 
d="M470 27c-8 -4 -19.4971 -9.16895 -34.4971 -15.502s-24.833 -13.166 -29.5 -20.499c-4 20.667 -11 32.334 -21 35.001s-23.667 -1 -41 -11c-18 -10.667 -31.833 -18.167 -41.5 -22.5s-23.167 -6.83301 -40.5 -7.5c-16.667 -0.666992 -38.834 3.16602 -66.501 11.499
s-54.5 21.5 -80.5 39.5s-48.333 41.5 -67 70.5s-27.334 64.167 -26.001 105.5s9.33301 80 24 116s32.5 67.333 53.5 94s43.833 48 68.5 64s48 24.333 70 25c29.333 1.33301 56.166 -5.16699 80.499 -19.5s45.333 -33.666 63 -57.999s31.667 -52.666 42 -84.999
s16.166 -65.833 17.499 -100.5c-8 0.666992 -25.667 0.333984 -53 -0.999023s-57.166 -3.16602 -89.499 -5.49902s-63.5 -4.83301 -93.5 -7.5s-52 -5.33398 -66 -8.00098c-0.666992 -34.667 3.16602 -64.167 11.499 -88.5s19.166 -43.833 32.499 -58.5s28 -25 44 -31
s31 -8 45 -6c13.333 2 26.166 8.16699 38.499 18.5s23.333 22.333 33 36s17.334 28.167 23.001 43.5s8.83398 29.333 9.50098 42c10.667 2 21.334 3.83301 32.001 5.5s20.667 5.5 30 11.5c-1.33301 -28.667 -0.833008 -58.834 1.5 -90.501s12.5 -58.834 30.5 -81.501z
M326.003 313.998c2.66699 41.333 -4 74.998 -20 100.998s-35.667 39.333 -59 40c-12 0.666992 -23.833 -3.16602 -35.5 -11.499s-22.5 -20.333 -32.5 -36s-18.167 -34.167 -24.5 -55.5s-9.83301 -44.666 -10.5 -69.999c34.667 2.66699 68.667 7.16699 102 13.5
s60 12.5 80 18.5z" />
    <glyph glyph-name="f" unicode="f" horiz-adv-x="403" 
d="M380 735l-7.49805 -18.502c-5 -12.333 -10.5 -28.166 -16.5 -47.499s-11.5 -40.166 -16.5 -62.499s-7.16699 -43.5 -6.5 -63.5c-15.333 4.66699 -30 6.66699 -44 6l-21 -1c2 16.667 2.33301 33.667 1 51s-4.33301 33 -9 47s-11.167 25.5 -19.5 34.5
s-18.5 13.833 -30.5 14.5c-12 0 -22 -5.66699 -30 -17s-14.5 -26 -19.5 -44s-8.33301 -38.167 -10 -60.5s-2.16699 -44.166 -1.5 -65.499c8 -2 18.167 -3.66699 30.5 -5s25.333 -2.16602 39 -2.49902s27.167 -0.166016 40.5 0.500977s25.333 1.66699 36 3
c-2 -9.33301 -3.66699 -21.166 -5 -35.499s-0.666016 -28.833 2.00098 -43.5c-10 1.33301 -22.833 2.16602 -38.5 2.49902s-33.834 1.83301 -54.501 4.5c-20 2.66699 -31.833 -3.5 -35.5 -18.5s-4.83398 -31.5 -3.50098 -49.5c0.666992 -8.66699 1.5 -24.167 2.5 -46.5
s2.16699 -47 3.5 -74s3.16602 -54.5 5.49902 -82.5s5.16602 -52 8.49902 -72c1.33301 -0.666992 6.66602 -2.33398 15.999 -5.00098s22.833 -4.83398 40.5 -6.50098s35.167 -0.5 52.5 3.5c-2.66699 -14 -4.5 -29 -5.5 -45s0.166992 -32.667 3.5 -50
c-34 3.33301 -66.333 5 -97 5s-57.5 -0.5 -80.5 -1.5s-41.333 -2.16699 -55 -3.5l-20.5 -2c0.666992 22 -1.16602 39 -5.49902 51l-6.5 18c14.667 3.33301 27.334 8.83301 38.001 16.5s16 20.834 16 39.501c0 14 -0.5 39.5 -1.5 76.5s-2.16699 77.333 -3.5 121l-4 128.5
c-1.33301 42 -2.33301 75 -3 99c-1.33301 37.333 2 69.333 10 96s18.5 48.834 31.5 66.501s27.5 31.167 43.5 40.5s31.667 14.666 47 15.999c28.667 2.66699 51.167 -0.833008 67.5 -10.5s30.5 -20.834 42.5 -33.501c8 9.33301 14.5 18.166 19.5 26.499l7.5 12.5l13.5 -5
c9 -3.33301 20.167 -6 33.5 -8z" />
    <glyph glyph-name="g" unicode="g" horiz-adv-x="496" 
d="M518 -207c-0.666992 -20.667 -10.168 -43.5078 -28.501 -68.5078s-42.5 -48.167 -72.5 -69.5s-64.167 -38.833 -102.5 -52.5s-77.5 -20.167 -117.5 -19.5c-38.667 1.33301 -72.167 8 -100.5 20s-51.833 26.833 -70.5 44.5s-32.334 36.667 -41.001 57s-13 39.5 -13 57.5
s4 34 12 48s18.167 26.833 30.5 38.5s26.333 22.334 42 32.001s31.5 18.834 47.5 27.501c-16 6.66699 -27.833 16.834 -35.5 30.501s-11.5 28.334 -11.5 44.001s4 30.834 12 45.501s19.667 26.667 35 36c-18 16.667 -34.833 42.667 -50.5 78s-21.834 82 -18.501 140
c2 30 10.333 56 25 78s31.334 40.333 50.001 55s37.5 25.834 56.5 33.501s33.833 11.834 44.5 12.501c8.66699 0.666992 18.834 1.33398 30.501 2.00098s24.167 0 37.5 -2s27 -6.5 41 -13.5s27.667 -17.5 41 -31.5c8.66699 19.333 22.334 34.166 41.001 44.499
s38.667 17.166 60 20.499c0 -1.33301 -0.333008 -6.5 -1 -15.5s0.333008 -21.5 3 -37.5s8 -31.333 16 -46c-8 -2.66699 -16.833 -7.16699 -26.5 -13.5s-17.5 -15.5 -23.5 -27.5c6 -10.667 11 -26.167 15 -46.5s5 -46.5 3 -78.5c-2 -31.333 -9.83301 -59.333 -23.5 -84
s-29 -45.667 -46 -63s-33.833 -31 -50.5 -41s-28.667 -16 -36 -18s-15.833 -4.16699 -25.5 -6.5s-20.834 -3.5 -33.501 -3.5s-26.667 2.16699 -42 6.5s-32.333 12.5 -51 24.5c-11.333 -19.333 -15.333 -33.666 -12 -42.999s12 -16.166 26 -20.499s32.833 -7.5 56.5 -9.5
s49.834 -5.33301 78.501 -10c28.667 -4 57 -10.333 85 -19s52.667 -19.5 74 -32.5s38.5 -28 51.5 -45s19.167 -36.5 18.5 -58.5zM350.999 231.992c0.666992 17.333 0.499023 35.6699 -0.500977 55.0029s-4 37.166 -9 53.499s-12.167 30.333 -21.5 42
s-21.666 19.167 -36.999 22.5c-26 5.33301 -47.5 3.66602 -64.5 -5.00098s-30.667 -21.5 -41 -38.5s-18 -36.333 -23 -58s-8.16699 -42.834 -9.5 -63.501c-1.33301 -23.333 0.333984 -45.666 5.00098 -66.999s12 -40.333 22 -57s22.167 -30 36.5 -40s30.166 -15 47.499 -15
c16 0 29.667 5.66699 41 17s20.833 25.666 28.5 42.999s13.667 35.833 18 55.5s6.83301 38.167 7.5 55.5zM378.998 -204.004c-4 12 -14.667 22.002 -32 30.002s-37.333 15.333 -60 22s-46.167 13 -70.5 19s-45.5 13.333 -63.5 22c-22 -14.667 -38.333 -28.167 -49 -40.5
s-18.334 -23.5 -23.001 -33.5s-7 -19 -7 -27v-19c0 -4.66699 3.16699 -13.834 9.5 -27.501s15.833 -27.334 28.5 -41.001s28.834 -25.5 48.501 -35.5s42.5 -14 68.5 -12s49.667 7 71 15s39 18.5 53 31.5s23.5 27.667 28.5 44s4.16699 33.833 -2.5 52.5z" />
    <glyph glyph-name="h" unicode="h" horiz-adv-x="483" 
d="M460 -31c-34 -8 -64.668 -6.49902 -92.001 4.50098s-45.333 29.833 -54 56.5c-4.66699 14 -6.16699 31.667 -4.5 53s4.5 44.166 8.5 68.499s8.5 49.333 13.5 75s8.83301 49.834 11.5 72.501c2.66699 22 -1.16602 39.333 -11.499 52s-24.333 18.834 -42 18.501
s-37.667 -8 -60 -23s-44.166 -38.833 -65.499 -71.5c0 -11.333 0.666992 -27.833 2 -49.5s4 -50.5 8 -86.5c4.66699 -36 13.5 -62.333 26.5 -79s29.833 -28 50.5 -34c0 -8 -0.833008 -16.667 -2.5 -26s-2.16699 -17.666 -1.5 -24.999c-8 3.33301 -20 5.66602 -36 6.99902
s-33.833 1.83301 -53.5 1.5s-40.667 -2 -63 -5s-44.166 -7.5 -65.499 -13.5l0.5 28.5c0.333008 19 -2.16699 38.5 -7.5 58.5c21.333 0.666992 36.166 6.83398 44.499 18.501s14.5 28.167 18.5 49.5c3.33301 14 5.66602 37.667 6.99902 71s2.16602 69 2.49902 107
s0.5 74.833 0.5 110.5v81.5c0 15.333 -0.166992 30.166 -0.5 44.499s-2.33301 27 -6 38s-9.5 19.833 -17.5 26.5s-20 10 -36 10c3.33301 12.667 4.16602 25.834 2.49902 39.501s-3.66699 24.167 -6 31.5s-3.83301 11.666 -4.5 12.999
c24.667 1.33301 52.334 4.16602 83.001 8.49902s56.334 12.166 77.001 23.499c-3.33301 -16.667 -7 -39.667 -11 -69s-7.16699 -61 -9.5 -95s-3.83301 -68 -4.5 -102s0.333008 -64 3 -90c38.667 35.333 72.5 58.333 101.5 69s54.5 14.334 76.5 11.001
c30.667 -5.33301 52.667 -16 66 -32s21.5 -37.167 24.5 -63.5s2.16699 -57.5 -2.5 -93.5l-16 -122c-2.66699 -18.667 -0.5 -32.667 6.5 -42s18.167 -11 33.5 -5c-0.666992 -1.33301 -1.66699 -7.5 -3 -18.5s-1.83301 -26.333 -1.5 -46s3.5 -38.834 9.5 -57.501z" />
    <glyph glyph-name="i" unicode="i" horiz-adv-x="252" 
d="M184 637c-1.33301 -4 -2.83203 -10.5 -4.49902 -19.5s-3 -18.667 -4 -29s-1.66699 -20.333 -2 -30s-0.166016 -17.5 0.500977 -23.5c-5.33301 -0.666992 -13.5 -1.5 -24.5 -2.5s-22.5 -2.33301 -34.5 -4s-23.667 -3.5 -35 -5.5s-20.333 -4.66699 -27 -8
c2.66699 25.333 1.5 48.833 -3.5 70.5s-10.167 37.167 -15.5 46.5c7.33301 -1.33301 17.5 -2 30.5 -2s26.667 0.333008 41 1s28.666 1.5 42.999 2.5s26.166 2.16699 35.499 3.5zM229.001 56c-0.666992 -2.66699 -1.99805 -9.99805 -3.99805 -21.998s-2.66699 -21.333 -2 -28
c-31.333 4.66699 -61.666 5.5 -90.999 2.5s-61.333 -8.16699 -96 -15.5c2.66699 17.333 2.16699 34.333 -1.5 51l-5.5 25c22 3.33301 37.333 12.166 46 26.499s14.667 30.833 18 49.5c2 12 3.66699 26.333 5 43s2.16602 33 2.49902 49s0.5 31 0.5 45s-0.333008 24.667 -1 32
c-0.666992 13.333 -4.5 26.666 -11.5 39.999s-23.833 19.333 -50.5 18c1.33301 19.333 -1 37 -7 53l-9 24c13.333 0 28.666 1 45.999 3s34.166 4.33301 50.499 7s31.333 5.66699 45 9s23.5 6.33301 29.5 9c-4 -14 -7.5 -37.667 -10.5 -71s-5.5 -67.833 -7.5 -103.5
s-3.5 -68.5 -4.5 -98.5s-1.16699 -49 -0.5 -57c0 -8 1 -17 3 -27s5.16699 -19.5 9.5 -28.5s10.333 -16.833 18 -23.5s17.167 -10.667 28.5 -12z" />
    <glyph glyph-name="j" unicode="j" horiz-adv-x="250" 
d="M186 655c-1.33301 -4.66699 -2.66992 -11.498 -4.00293 -20.498s-2.66602 -18.5 -3.99902 -28.5s-2.16602 -19.833 -2.49902 -29.5s-0.166016 -17.5 0.500977 -23.5c-5.33301 -0.666992 -13.5 -1.5 -24.5 -2.5s-22.5 -2.33301 -34.5 -4s-23.667 -3.5 -35 -5.5
s-20.333 -4.66699 -27 -8c2.66699 25.333 1.66699 48.833 -3 70.5s-9.66699 37.167 -15 46.5c7.33301 -1.33301 17.5 -2 30.5 -2s26.667 0.166992 41 0.5s28.5 1.16602 42.5 2.49902s25.667 2.66602 35 3.99902zM226.996 462.002
c-1.33301 -4 -2.33203 -10.0049 -2.99902 -18.0049s-1.16699 -16.833 -1.5 -26.5s-0.333008 -18.834 0 -27.501s0.833008 -15.334 1.5 -20.001c-11.333 -1.33301 -22.166 -3 -32.499 -5l-15.5 -3c4.66699 -22.667 9 -52.5 13 -89.5s7 -76.333 9 -118s2.66699 -83.5 2 -125.5
s-3 -79.667 -7 -113s-11.667 -61.666 -23 -84.999s-24 -42.666 -38 -57.999s-28.5 -26.666 -43.5 -33.999s-28.833 -11.666 -41.5 -12.999c-24.667 -2.66699 -47.667 0.333008 -69 9s-39.666 23.334 -54.999 44.001c-0.666992 -16 -0.833984 -31.667 -0.500977 -47l0.5 -23
c-12.667 4.66699 -28.5 7.33398 -47.5 8.00098s-36.5 -1.66602 -52.5 -6.99902c4.66699 27.333 7.16699 55.166 7.5 83.499s-0.333984 54 -2.00098 77s-3.66699 41.667 -6 56l-3.5 21.5l33.5 -3c22.333 -2 48.5 1.33301 78.5 10c-0.666992 -20 0.833008 -39.167 4.5 -57.5
s9.33398 -34.5 17.001 -48.5s17.167 -25.167 28.5 -33.5s24.333 -12.5 39 -12.5c19.333 0 34.666 6.5 45.999 19.5s20 30.833 26 53.5s9.83301 48.834 11.5 78.501s2.5 61.167 2.5 94.5c0.666992 62.667 -5.5 129.834 -18.5 201.501s-31.167 145.834 -54.5 222.501
c14 -2.66699 30.167 -4.83398 48.5 -6.50098s36.666 -2.83398 54.999 -3.50098s35.5 -1 51.5 -1h39z" />
    <glyph glyph-name="k" unicode="k" horiz-adv-x="544" 
d="M521 524c-0.666992 -6.66699 -0.998047 -17.8389 -0.998047 -33.5059s-0.333008 -28.834 -1 -39.501c-32.667 1.33301 -62.834 -3.16699 -90.501 -13.5s-53 -23.166 -76 -38.499s-43.5 -32 -61.5 -50l-47 -48c8 0.666992 17.333 -1.33301 28 -6s21.167 -11.5 31.5 -20.5
s20.166 -19.667 29.499 -32s16.666 -25.5 21.999 -39.5c11.333 -30 29 -51 53 -63s53.667 -16.333 89 -13c-0.666992 -2 -1.83398 -9.16699 -3.50098 -21.5s-2.16699 -29.5 -1.5 -51.5s4.33398 -43 11.001 -63c-32 -3.33301 -60 -1.66602 -84 5.00098s-44.333 16.667 -61 30
s-30.167 29.333 -40.5 48s-18.166 38.667 -23.499 60c-3.33301 14.667 -7.16602 29.834 -11.499 45.501s-10.5 29.667 -18.5 42s-19 22.5 -33 30.5s-32.667 11.667 -56 11v-24.5v-40c0 -14.333 0.166992 -28.333 0.5 -42s0.833008 -24.167 1.5 -31.5
c0.666992 -14 6.66699 -24.5 18 -31.5s29.333 -11.5 54 -13.5c-4.66699 -10.667 -7.5 -23.667 -8.5 -39s-2.16699 -26.333 -3.5 -33c-23.333 4.66699 -47 6.5 -71 5.5s-45.667 -2.83301 -65 -5.5s-35 -5.5 -47 -8.5l-18 -4.5c1.33301 19.333 -0.666992 35.166 -6 47.499
l-8 18.5c4 0 10.167 1 18.5 3s16.666 5.16699 24.999 9.5s16 10 23 17s11.167 15.833 12.5 26.5c4 25.333 6.16699 59 6.5 101s-0.166992 84.833 -1.5 128.5s-3 84.334 -5 122.001s-3.33301 64.5 -4 80.5c-0.666992 26 -4.66699 47 -12 63s-23.333 25.333 -48 28
c4 24.667 4.83301 47.667 2.5 69l-3.5 32c22.667 -5.33301 49.167 -9.66602 79.5 -12.999s65.833 -3.33301 106.5 0c-5.33301 -21.333 -10.333 -51 -15 -89s-9 -77.667 -13 -119s-7.16699 -80.333 -9.5 -117s-3.83301 -64 -4.5 -82c12 8.66699 26.167 19.834 42.5 33.501
l48 41.5l41.5 38.5c12 11.667 19.333 19.5 22 23.5c4.66699 9.33301 6.16699 17.833 4.5 25.5s-11.5 13.834 -29.5 18.501c3.33301 5.33301 6.5 12.833 9.5 22.5s4.83301 16.834 5.5 21.501c13.333 -6 29 -10.667 47 -14s36.333 -5.83301 55 -7.5s36.5 -2.5 53.5 -2.5
s30.833 0.666992 41.5 2z" />
    <glyph glyph-name="l" unicode="l" horiz-adv-x="231" 
d="M209 14c-21.333 0 -44.834 -0.50293 -70.501 -1.50293s-50.167 -4.83301 -73.5 -11.5c3.33301 27.333 6 61.166 8 101.499s3.33301 83.5 4 129.5s0.833984 92.333 0.500977 139s-0.833008 89.334 -1.5 128.001s-1.66699 71.5 -3 98.5s-2.33301 43.833 -3 50.5
c-1.33301 8.66699 -7 15 -17 19s-20.333 6.66699 -31 8c2.66699 16.667 3.5 33 2.5 49l-1.5 24c23.333 -1.33301 50 -1.33301 80 0s54.667 5.33301 74 12c-0.666992 -11.333 -1.66699 -33.333 -3 -66s-2.66602 -70.5 -3.99902 -113.5s-2.5 -88.5 -3.5 -136.5s-2 -93 -3 -135
s-1.83301 -78.333 -2.5 -109s-1.33398 -50 -2.00098 -58c-0.666992 -17.333 4 -30.666 14 -39.999s21.333 -13.666 34 -12.999l-2.5 -21.5c-1.66699 -14.333 -0.166992 -32.166 4.5 -53.499z" />
    <glyph glyph-name="m" unicode="m" horiz-adv-x="676" 
d="M653 -9c-29.333 -1.33301 -54.8311 1.16797 -76.498 7.50098s-40.167 20.166 -55.5 41.499c-8 12 -13.333 27.833 -16 47.5s-3.33398 42.167 -2.00098 67.5s3.83301 53 7.5 83l11.5 95c4 33.333 1.16699 53.5 -8.5 60.5s-21.167 7 -34.5 0s-25.833 -18.333 -37.5 -34
s-17.834 -29.5 -18.501 -41.5s-1.66699 -28.667 -3 -50s-2.16602 -45 -2.49902 -71s0.166992 -52.833 1.5 -80.5s4.33301 -53.834 9 -78.501c-28 0.666992 -52.667 -2.16602 -74 -8.49902l-32 -9.5c0 6 0.166992 20.667 0.5 44s0.833008 49.166 1.5 77.499l2 82.5
c0.666992 26.667 1.33398 46.667 2.00098 60c1.33301 32.667 -1.33398 59.167 -8.00098 79.5s-17.667 29.166 -33 26.499c-23.333 -4.66699 -43.5 -18.834 -60.5 -42.501s-26.833 -48.5 -29.5 -74.5c-2 -20.667 -2.5 -43 -1.5 -67s3.33301 -46.833 7 -68.5s9 -40.667 16 -57
s15.833 -27.166 26.5 -32.499c-2 -2.66699 -3.66699 -8.33398 -5 -17.001s-2 -17.667 -2 -27c-30.667 2.66699 -62.334 3 -95.001 1s-65.334 -8.66699 -98.001 -20c-1.33301 18 -4.5 34.5 -9.5 49.5l-7.5 22.5c18.667 0.666992 37.5 5.16699 56.5 13.5
s29.5 25.833 31.5 52.5c1.33301 11.333 2.16602 27.5 2.49902 48.5s0.166016 44.333 -0.500977 70s-2 52 -4 79s-5 52.5 -9 76.5c-16.667 2 -31.834 1.33301 -45.501 -2l-20.5 -5c-3.33301 15.333 -5.66602 30.333 -6.99902 45s-4.66602 27.667 -9.99902 39
c37.333 1.33301 70.166 5.16602 98.499 11.499s56.5 14.833 84.5 25.5c-1.33301 -6 -2.5 -13.833 -3.5 -23.5s-1.83301 -20 -2.5 -31s-1.16699 -22 -1.5 -33s-0.5 -20.833 -0.5 -29.5c20 32 40.667 53.833 62 65.5s41.833 16 61.5 13s37.334 -12 53.001 -27
s27.834 -33.833 36.501 -56.5c18.667 34 39.5 58.333 62.5 73s45 21.5 66 20.5s39 -9 54 -24s23.833 -35.167 26.5 -60.5c2 -17.333 2.33301 -36.666 1 -57.999s-3 -43 -5 -65l-6 -65c-2 -21.333 -3 -40.666 -3 -57.999c0 -21.333 5 -35.666 15 -42.999
s20.333 -9.33301 31 -6c0 -1.33301 -0.666992 -7.16602 -2 -17.499s-2.16602 -24.5 -2.49902 -42.5s1.5 -35.333 5.5 -52z" />
    <glyph glyph-name="n" unicode="n" horiz-adv-x="473" 
d="M450 100c-14 -26 -22.665 -50.167 -25.998 -72.5l-5 -33.5c-40.667 2 -69.667 14 -87 36s-28 47.167 -32 75.5s-4 56.333 0 84l9 61.5c1.33301 10 3.16602 24.5 5.49902 43.5s2.83301 37.833 1.5 56.5s-5.5 34.667 -12.5 48s-18.5 19.333 -34.5 18
c-16.667 -2 -31.334 -9.83301 -44.001 -23.5s-23 -30.334 -31 -50.001s-13.667 -40.834 -17 -63.501s-4.66602 -43.667 -3.99902 -63c0.666992 -13.333 1.33398 -28.333 2.00098 -45s2.66699 -32.667 6 -48s9 -28.666 17 -39.999s19.333 -18 34 -20
c-2.66699 -16.667 -3 -30.667 -1 -42l3 -17l-18 1c-12 0.666992 -27.167 0.833984 -45.5 0.500977s-38.833 -1.33301 -61.5 -3s-44.667 -4.83398 -66 -9.50098l1.5 23c1 15.333 -0.166992 28.666 -3.5 39.999c16.667 2 29.667 5.5 39 10.5s14.666 16.5 15.999 34.5v50.5
c0 24.333 -0.333008 50.833 -1 79.5s-1.5 56.167 -2.5 82.5s-2.16699 45.5 -3.5 57.5c-0.666992 14.667 -4 27.334 -10 38.001s-24.333 14.334 -55 11.001c1.33301 10 2.5 17.167 3.5 21.5s1.5 8.16602 1.5 11.499s-0.5 7.83301 -1.5 13.5s-2.83301 14.5 -5.5 26.5
c34.667 -3.33301 64 -3.5 88 -0.5s40.667 6.33301 50 10s14.666 5.83398 15.999 6.50098c-2 -9.33301 -3.83301 -22.333 -5.5 -39s-2.5 -32.334 -2.5 -47.001c9.33301 14 22.5 26.5 39.5 37.5s35.167 19.167 54.5 24.5s38.5 7.33301 57.5 6s35.167 -8 48.5 -20
c14 -12 23.333 -29 28 -51s6.83398 -46.333 6.50098 -73s-2.33301 -54.5 -6 -83.5s-6.83398 -56.833 -9.50098 -83.5c-2.66699 -22 3.5 -40.167 18.5 -54.5s29.833 -23.166 44.5 -26.499z" />
    <glyph glyph-name="o" unicode="o" horiz-adv-x="537" 
d="M514 290c2 -29.333 -0.333008 -60.3301 -7 -92.9971s-18.5 -63 -35.5 -91s-39.333 -52.167 -67 -72.5s-61.5 -33.166 -101.5 -38.499c-40 -4.66699 -76.667 -2.33398 -110 6.99902s-62.333 22.666 -87 39.999s-44.167 37.166 -58.5 59.499s-22.5 43.5 -24.5 63.5
c-2 28.667 0.333008 60.667 7 96s19.167 68.666 37.5 99.999s43.333 58.5 75 81.5s71.167 36.5 118.5 40.5c38 3.33301 72.333 -1.5 103 -14.5s56.834 -29.833 78.501 -50.5s38.667 -42.667 51 -66s19.166 -44 20.499 -62zM404 255.003
c-1.33301 12 -4.83008 28.5 -10.4971 49.5s-14.167 41.5 -25.5 61.5s-25.5 36.833 -42.5 50.5s-37.5 19.167 -61.5 16.5c-18.667 -2 -36 -9.16699 -52 -21.5s-29.833 -28 -41.5 -47s-20.834 -40 -27.501 -63s-10 -45.833 -10 -68.5c0 -20.667 3.66699 -42.5 11 -65.5
s18.166 -44.167 32.499 -63.5s32.166 -35 53.499 -47s45.666 -17 72.999 -15c21.333 1.33301 38.833 11 52.5 29s24.334 38.667 32.001 62s12.667 46.5 15 69.5s2.83301 40.5 1.5 52.5z" />
    <glyph glyph-name="p" unicode="p" horiz-adv-x="517" 
d="M493 268c4 -34 -0.166016 -70.1709 -12.499 -108.504s-31.333 -71.5 -57 -99.5s-57.167 -47.5 -94.5 -58.5s-79 -6.16699 -125 14.5c2 -42.667 3 -79.334 3 -110.001s1.83301 -56.334 5.5 -77.001s10.834 -37 21.501 -49s27.334 -20.667 50.001 -26
c-1.33301 -3.33301 -1.33301 -12.333 0 -27s2.33301 -26.667 3 -36c-10 4.66699 -25.333 8.33398 -46 11.001s-43.334 3.66699 -68.001 3s-49.334 -2.66699 -74.001 -6s-46.334 -8.33301 -65.001 -15c-0.666992 6.66699 -1.83398 16.334 -3.50098 29.001s-4.5 24 -8.5 34
c32 0.666992 54.833 16.667 68.5 48s22.167 73.5 25.5 126.5s3.5 114.667 0.5 185s-4.83301 144.833 -5.5 223.5c0 14 -2 24.833 -6 32.5s-9.16699 13.334 -15.5 17.001s-13.333 5.83398 -21 6.50098s-15.167 0.666992 -22.5 0c0 2 -0.333008 6 -1 12
s-1.33398 12.333 -2.00098 19s-1.5 13.334 -2.5 20.001s-1.83301 11.667 -2.5 15c5.33301 0 12 -0.166992 20 -0.5s18.667 0.333984 32 2.00098s30.333 4.66699 51 9s46.334 11.5 77.001 21.5s61.5 10.667 92.5 2s59.333 -23.5 85 -44.5s47.334 -46.667 65.001 -77
s28.5 -62.5 32.5 -96.5zM390.001 228.996c2.66699 26 0 50.667 -8 74s-18.833 43.666 -32.5 60.999s-28.334 31.333 -44.001 42s-29.834 16.667 -42.501 18c-24.667 2 -42.334 -3.83301 -53.001 -17.5s-15.667 -33.5 -15 -59.5
c0.666992 -12.667 1.33398 -32.167 2.00098 -58.5l2 -82c0.666992 -28.333 1.33398 -55.166 2.00098 -80.499s1 -43.333 1 -54c33.333 -10 61.333 -12.333 84 -7s41.334 15.833 56.001 31.5s25.667 35.167 33 58.5s12.333 48 15 74z" />
    <glyph glyph-name="q" unicode="q" horiz-adv-x="531" 
d="M508 -243c-0.666992 -1.33301 -3.83203 -6.33398 -9.49902 -15.001s-11.834 -22.167 -18.501 -40.5s-10.667 -38.5 -12 -60.5c-37.333 3.33301 -66.666 12 -87.999 26s-37.5 31 -48.5 51s-18 42 -21 66s-4.5 47.667 -4.5 71c0 2 0.166992 10.833 0.5 26.5
s0.333008 35.834 0 60.501s-0.833008 46.334 -1.5 65.001c-46.667 -19.333 -88.5 -23.666 -125.5 -12.999s-67.833 29.834 -92.5 57.501s-42.667 60 -54 97s-14.333 72.5 -9 106.5s18.166 68.5 38.499 103.5s45.5 63.667 75.5 86s63 34.833 99 37.5s71.667 -11.333 107 -42
c10 17.333 25.833 30.833 47.5 40.5s41.834 15.167 60.501 16.5l-3 -34c-2 -22.667 1 -48.334 9 -77.001c-15.333 0 -28.5 -5.33301 -39.5 -16s-17.167 -25.667 -18.5 -45c-1.33301 -15.333 -2.33301 -43.5 -3 -84.5s-1.33398 -85.167 -2.00098 -132.5
s-0.666992 -92.833 0 -136.5s2 -75.834 4 -96.501c2 -20 6.83301 -37.167 14.5 -51.5s16.667 -26.333 27 -36s21.5 -16.834 33.5 -21.501s23.333 -7.66699 34 -9zM324.002 337.999c1.33301 24.667 -3.00195 43.502 -13.002 56.502s-27.333 18.833 -52 17.5
c-12.667 -0.666992 -26.667 -6.66699 -42 -18s-29.666 -26.166 -42.999 -44.499s-24.166 -39.333 -32.499 -63s-11.5 -47.834 -9.5 -72.501s5.83301 -47.834 11.5 -69.501s15 -39.667 28 -54s30.333 -24 52 -29s49.167 -3.5 82.5 4.5c0.666992 10 1.66699 27.5 3 52.5
s3 51.667 5 80s3.83301 55.666 5.5 81.999s3.16699 45.5 4.5 57.5z" />
    <glyph glyph-name="r" unicode="r" horiz-adv-x="467" 
d="M444 486l-7.49609 -17.5029c-5 -11.667 -10 -27 -15 -46s-8.83301 -40.833 -11.5 -65.5s-1.66699 -50 3 -76c-11.333 4.66699 -23.333 7.33398 -36 8.00098s-22.667 0.5 -30 -0.5s-11.666 -1.5 -12.999 -1.5c0 25.333 -2.83301 45.833 -8.5 61.5s-12.667 27.667 -21 36
s-17.166 13.833 -26.499 16.5s-17 4 -23 4c-12.667 0 -27.334 -5.33301 -44.001 -16s-29.334 -28.667 -38.001 -54c-2.66699 -54.667 -2.5 -99.334 0.5 -134.001s8.33301 -62.334 16 -83.001s17.5 -35.667 29.5 -45s25.333 -15.666 40 -18.999
c-0.666992 -4 0 -13.167 2 -27.5l5 -35.5c-12 3.33301 -26.833 6 -44.5 8s-36.334 3.33301 -56.001 4s-39.834 0.333984 -60.501 -0.999023s-40.334 -3.66602 -59.001 -6.99902c2.66699 20.667 1.83398 37 -2.49902 49l-6.5 18c20.667 4.66699 35.5 16.5 44.5 35.5
s14.667 43 17 72s2.5 62.5 0.5 100.5s-3.33301 78.333 -4 121c-14.667 0.666992 -27.667 -1.33301 -39 -6l-17 -7c0.666992 15.333 -0.5 30.833 -3.5 46.5s-5.83301 28 -8.5 37s-4.33398 14.167 -5.00098 15.5c10 0 22.333 0.666992 37 2s29.667 3.33301 45 6
s29.666 6.33398 42.999 11.001s23 10.334 29 17.001c-2 -8 -2.83301 -21 -2.5 -39s0.833008 -32.667 1.5 -44c24.667 32 51 48.5 79 49.5s55 -6.16699 81 -21.5c6 14.667 9.5 30 10.5 46l1.5 24l26.5 -17.5c17.667 -11.667 41.167 -19.834 70.5 -24.501z" />
    <glyph glyph-name="s" unicode="s" horiz-adv-x="468" 
d="M445 126c-0.666992 -28.667 -6.32812 -51.4961 -16.9951 -68.4961s-23.667 -30.167 -39 -39.5s-31.666 -15.666 -48.999 -18.999s-33 -5.33301 -47 -6c-28 -2 -56.333 0.666992 -85 8s-53.667 18.333 -75 33c0 -8.66699 0.166992 -21.834 0.5 -39.501
s2.16602 -32.167 5.49902 -43.5c-4 2 -9.66699 3.66699 -17 5s-15.333 2.16602 -24 2.49902s-17.334 0 -26.001 -1s-16.334 -3.16699 -23.001 -6.5c4 37.333 3.16699 77.5 -2.5 120.5s-13.834 79.5 -24.501 109.5c6 -2 14.667 -3.66699 26 -5s23 -2.33301 35 -3s23 -1 33 -1
h19c0 -6.66699 -0.5 -18.5 -1.5 -35.5s-1.16699 -30.833 -0.5 -41.5c28 -21.333 54 -35 78 -41s45 -7.5 63 -4.5s32.167 9.33301 42.5 19s15.833 19.5 16.5 29.5c0 8 -0.5 15.167 -1.5 21.5s-5 12.166 -12 17.499s-17.833 10.833 -32.5 16.5s-35.334 12.167 -62.001 19.5
s-51.834 16.666 -75.501 27.999s-43.667 25.333 -60 42s-27.666 36 -33.999 58s-5.5 47.333 2.5 76c9.33301 32 22.166 55.667 38.499 71s34 25.5 53 30.5s37.833 6.33301 56.5 4s34.667 -5.16602 48 -8.49902c26 -6.66699 47 -7 63 -1s25.333 24.333 28 55
c7.33301 -8 18.333 -14.5 33 -19.5s28.334 -7.5 41.001 -7.5c-4 -10 -8.33301 -23 -13 -39s-8.66699 -33 -12 -51s-5.33301 -36.5 -6 -55.5s0.666016 -36.833 3.99902 -53.5c-3.33301 2 -9 3 -17 3s-16.5 -0.333008 -25.5 -1s-17.5 -1.83398 -25.5 -3.50098
s-13.667 -3.5 -17 -5.5c4.66699 24 5.5 45.167 2.5 63.5s-8.33301 33.666 -16 45.999s-16.834 21.833 -27.501 28.5s-21.334 10.334 -32.001 11.001c-21.333 0.666992 -42 -4.83301 -62 -16.5s-32 -26.5 -36 -44.5c-5.33301 -20 -6 -36.167 -2 -48.5s11.5 -22.333 22.5 -30
s25.167 -13.834 42.5 -18.501s37 -9.66699 59 -15c23.333 -6 46.333 -13.167 69 -21.5s42.834 -18.333 60.501 -30s31.834 -25.167 42.501 -40.5s15.667 -33 15 -53z" />
    <glyph glyph-name="t" unicode="t" horiz-adv-x="338" 
d="M315 71c-1.33301 -5.33301 -4.49707 -12.9932 -9.49707 -22.9932s-12.5 -20 -22.5 -30s-22.5 -18.5 -37.5 -25.5s-33.167 -10.167 -54.5 -9.5c-42 1.33301 -70.333 21.833 -85 61.5s-20.334 96.5 -17.001 170.5l6.5 133c2.33301 46.667 3.5 92.667 3.5 138
c0 0.666992 -0.833008 2.33398 -2.5 5.00098s-7.83398 5.16699 -18.501 7.5s-27.334 2.5 -50.001 0.5l-6 55c23.333 0.666992 41.666 5.83398 54.999 15.501s23 22 29 37s9.33301 31.667 10 50s0 36.166 -2 53.499c16 1.33301 28.667 4 38 8s18.333 8.33301 27 13
c0.666992 -4.66699 1.33398 -13.834 2.00098 -27.501s1.33398 -28.334 2.00098 -44.001l2 -45.5c0.666992 -14.667 1.33398 -26 2.00098 -34c2 0 7.33301 0.333008 16 1s18.334 1.5 29.001 2.5s21.334 2.16699 32.001 3.5s19 2.66602 25 3.99902
c-2 -10.667 -3.33301 -25.834 -4 -45.501s-0.333984 -33.834 0.999023 -42.501c-7.33301 1.33301 -16.333 1.83301 -27 1.5s-21.167 -0.833008 -31.5 -1.5s-20 -1.83398 -29 -3.50098s-15.167 -3.5 -18.5 -5.5c-2 -28 -3.33301 -60 -4 -96s-0.333984 -71.5 0.999023 -106.5
s3.5 -67.5 6.5 -97.5s7.16699 -53.333 12.5 -70c4.66699 -14.667 11 -23.834 19 -27.501s16 -4 24 -1s15.5 8.33301 22.5 16s12.167 15.167 15.5 22.5c3.33301 -10 8.16602 -20 14.499 -30s11.666 -17.833 15.999 -23.5s6.83301 -8.83398 7.5 -9.50098z" />
    <glyph glyph-name="u" unicode="u" horiz-adv-x="479" 
d="M457 -1c-6.66699 0.666992 -16.4961 -0.00292969 -29.4961 -2.00293s-23.833 -6 -32.5 -12c0 5.33301 -1.66699 13.5 -5 24.5s-10 18.167 -20 21.5c-7.33301 2 -14.333 0.166992 -21 -5.5l-24 -20c-9.33301 -7.66699 -21.166 -15 -35.499 -22
s-33.166 -11.167 -56.499 -12.5s-44.666 1.66699 -63.999 9s-36.5 17 -51.5 29s-27.667 25.667 -38 41s-17.833 30.666 -22.5 45.999c-5.33301 16 -8 34.5 -8 55.5s1.16699 42.5 3.5 64.5s5.16602 42.833 8.49902 62.5s5.66602 36.167 6.99902 49.5
c3.33301 26 3.5 47.833 0.5 65.5s-16.5 26.167 -40.5 25.5c2.66699 14.667 2.33398 28.334 -0.999023 41.001l-5 19c12.667 -2 28 -2.66699 46 -2s37 2.33398 57 5.00098s40.5 6.16699 61.5 10.5s41.167 9.16602 60.5 14.499c-1.33301 -6.66699 -3 -16.667 -5 -30
s-3 -23.333 -3 -30c-16.667 -4 -30.334 -9 -41.001 -15s-19.334 -15.833 -26.001 -29.5s-11.834 -32.167 -15.501 -55.5s-6.83398 -54.333 -9.50098 -93c-2.66699 -39.333 -1 -72.166 5 -98.499s14.5 -47.5 25.5 -63.5s23.667 -27.5 38 -34.5s28.5 -10.833 42.5 -11.5
c14 0 26.333 5.33301 37 16s19.5 23.667 26.5 39s12.333 31.166 16 47.499s5.5 30.166 5.5 41.499c0 9.33301 0.333008 23 1 41s0.5 38.833 -0.5 62.5s-3.66699 49.834 -8 78.501s-11.166 58.334 -20.499 89.001c15.333 0.666992 35.666 3.83398 60.999 9.50098
s46.333 12.834 63 21.501c-6.66699 -36 -10.834 -76.333 -12.501 -121s-1.5 -89.5 0.5 -134.5s5.66699 -88.333 11 -130s11.666 -77.5 18.999 -107.5z" />
    <glyph glyph-name="v" unicode="v" horiz-adv-x="540" 
d="M517 431c-8.66699 -2 -16.999 -6.66406 -24.999 -13.9971s-15.667 -15.666 -23 -24.999c-6.66699 -9.33301 -15.167 -28.666 -25.5 -57.999s-21 -63.333 -32 -102s-21.833 -78.834 -32.5 -120.501l-28 -113.5l-17 -5.5l-30 -10
c-10.667 -3.66699 -20.834 -7.33398 -30.501 -11.001s-16.167 -5.83398 -19.5 -6.50098c1.33301 10 1.66602 24.5 0.999023 43.5s-4.66699 38.167 -12 57.5c-2 6 -6.83301 17 -14.5 33l-26.5 55l-32.5 66l-33.5 66.5l-28 56c-8 16.333 -14 27.833 -18 34.5
c-3.33301 7.33301 -10.166 16.166 -20.499 26.499s-26.166 15.166 -47.499 14.499c6.66699 18 10.5 34.5 11.5 49.5l1.5 22.5c6 -1.33301 15.167 -2.33301 27.5 -3s25.666 -1.16699 39.999 -1.5s28.5 -0.333008 42.5 0s25.333 0.833008 34 1.5
c-8 -18 -8.5 -40.167 -1.5 -66.5s17.833 -54.666 32.5 -84.999s31.334 -61.5 50.001 -93.5s35.667 -62.667 51 -92l14 44l23 76l22 76.5c6.66699 23.667 10.667 38.5 12 44.5c2.66699 12.667 0.333984 24 -6.99902 34s-18.333 16.333 -33 19
c1.33301 4 2.66602 10.5 3.99902 19.5s1.66602 15.833 0.999023 20.5c8 -1.33301 18.667 -2 32 -2s27.833 0.166992 43.5 0.5s31.667 1 48 2s31.5 2.16699 45.5 3.5l-1.5 -19c-1 -12.667 -0.166992 -25.334 2.5 -38.001z" />
    <glyph glyph-name="w" unicode="w" horiz-adv-x="688" 
d="M666 434c-13.333 -2.66699 -26.001 -10.501 -38.001 -23.501s-21.333 -27.5 -28 -43.5c-6 -13.333 -12.667 -30.333 -20 -51s-14.5 -43 -21.5 -67s-13.333 -48.5 -19 -73.5s-9.83398 -48.5 -12.501 -70.5c8 -7.33301 19.667 -11.666 35 -12.999
s30.666 -2.33301 45.999 -3c-6 -11.333 -10.5 -27.333 -13.5 -48s-4.5 -38 -4.5 -52c-42 -4.66699 -75.5 -2.16699 -100.5 7.5s-46.333 25.5 -64 47.5s-33.334 50.167 -47.001 84.5l-48.5 118.5c-5.33301 -11.333 -12.166 -27.833 -20.499 -49.5
s-16.666 -45.167 -24.999 -70.5s-16 -50.666 -23 -75.999s-11.833 -47 -14.5 -65c-4 0 -12.333 0.166992 -25 0.5s-27.167 0 -43.5 -1s-33.166 -2.5 -50.499 -4.5s-32.333 -5.33301 -45 -10c0 5.33301 -1.66699 14.333 -5 27s-7 23.334 -11 32.001
c40.667 -1.33301 67.5 5.83398 80.5 21.501s18.333 36.5 16 62.5s-9.16602 55.167 -20.499 87.5s-21.333 64.5 -30 96.5c-8.66699 31.333 -18.667 57.833 -30 79.5s-31 33.167 -59 34.5c2.66699 19.333 3 36.166 1 50.499l-3 21.5h48.5c18.333 0 36.5 0.333008 54.5 1
s34.833 1.5 50.5 2.5s27.5 2.16699 35.5 3.5c-2.66699 -3.33301 -3.83398 -10.5 -3.50098 -21.5s-0.166992 -20.5 -1.5 -28.5c-14 -2.66699 -24.167 -7.5 -30.5 -14.5s-7.83301 -19.5 -4.5 -37.5l9.5 -40.5c4.33301 -18.333 9.33301 -38 15 -59l16.5 -61.5l13 -49
c4 10.667 8.83301 26.667 14.5 48s11 44.5 16 69.5s9.5 49.833 13.5 74.5s6.33301 45 7 61c4.66699 -0.666992 12.334 -0.833984 23.001 -0.500977s22.5 1.16602 35.5 2.49902s26 2.83301 39 4.5s24.5 3.83398 34.5 6.50098c0 -2.66699 1.66699 -8.83398 5 -18.501
s5.66602 -17.167 6.99902 -22.5c-10.667 -4 -20.167 -11.333 -28.5 -22s-10.833 -26 -7.5 -46c2.66699 -16 7.5 -34 14.5 -54s14.833 -39.5 23.5 -58.5s17.667 -36.333 27 -52s17.666 -26.834 24.999 -33.501l23.5 128.5c5.66699 31.667 9.33398 52.5 11.001 62.5
s2.5 15.333 2.5 16c2 10 3.16699 20.333 3.5 31s-1 20.834 -4 30.501s-8 18.667 -15 27s-16.833 14.833 -29.5 19.5c1.33301 2.66699 2.83301 7 4.5 13s3.16699 12.167 4.5 18.5l4 18.5c1.33301 6 2.33301 10 3 12c7.33301 -1.33301 17.833 -2.83301 31.5 -4.5
s29 -3.16699 46 -4.5s34.5 -2.5 52.5 -3.5s35 -1.5 51 -1.5l-2 -22.5c-1.33301 -15 0.333984 -29.833 5.00098 -44.5z" />
    <glyph glyph-name="x" unicode="x" horiz-adv-x="505" 
d="M482 497l-5.99902 -16.9941c-4 -11.333 -5.33301 -26.333 -4 -45c-18.667 0.666992 -34.834 -1.66602 -48.501 -6.99902s-24.5 -13 -32.5 -23c-4 -5.33301 -10.833 -14 -20.5 -26l-32 -39.5c-11.667 -14.333 -22.667 -28.5 -33 -42.5s-18.166 -25.333 -23.499 -34
c29.333 -55.333 58.166 -96.333 86.499 -123s63.5 -41 105.5 -43c0 -1.33301 -1 -7 -3 -17s-3.83301 -23.833 -5.5 -41.5s-2.16699 -34.834 -1.5 -51.501c-26.667 0.666992 -50 6.16699 -70 16.5s-38.5 24.166 -55.5 41.499s-33.167 37.833 -48.5 61.5l-49 77.5
c-20.667 -30 -33.5 -51 -38.5 -63l-7.5 -18c-2.66699 -12.667 -1.66699 -22.167 3 -28.5s15.334 -10.833 32.001 -13.5c-2 -6 -3.83301 -14.833 -5.5 -26.5s-2.83398 -20.167 -3.50098 -25.5c-15.333 1.33301 -39.5 0.166016 -72.5 -3.50098s-69.5 -9.5 -109.5 -17.5
c0.666992 3.33301 1 8.66602 1 15.999s-0.333008 15.166 -1 23.499s-1.66699 16.5 -3 24.5s-3 14 -5 18c22 2 39.167 6 51.5 12s23.833 16.5 34.5 31.5s22.167 35.333 34.5 61s29.166 58.834 50.499 99.501c-3.33301 8.66699 -8.16602 19.5 -14.499 32.5l-16 32.5l-7.5 15
c-13.333 27.333 -32 43.166 -56 47.499s-48.333 4.16602 -73 -0.500977c2 23.333 0.333008 42.833 -5 58.5l-8 23.5c10 0 22.667 0.5 38 1.5s31.333 2.33301 48 4s33 3.66699 49 6s29.333 4.5 40 6.5c1.33301 -9.33301 4.33301 -21 9 -35s9.83398 -28.5 15.501 -43.5
l17.5 -45c6 -15 11 -28.167 15 -39.5c2 4 8 14.333 18 31l32 55l32 56.5c10 17.667 16.333 29.167 19 34.5c19.333 -4 39.666 -7.83301 60.999 -11.5s43.333 -5.83398 66 -6.50098z" />
    <glyph glyph-name="y" unicode="y" horiz-adv-x="502" 
d="M479 491c-4 -24 -5.50293 -43.3311 -4.50293 -57.998l1.5 -22l-18.5 -3c-12.333 -2 -23.833 -6.33301 -34.5 -13c-16 -56 -24.167 -112.667 -24.5 -170s0.833984 -113.333 3.50098 -168s3.5 -106.667 2.5 -156s-10.167 -94 -27.5 -134
c-10 -23.333 -24.833 -44.333 -44.5 -63s-43.667 -33.334 -72 -44.001s-60.5 -15.834 -96.5 -15.501s-75.333 8.5 -118 24.5c1.33301 0.666992 5 4.5 11 11.5s12.5 19.167 19.5 36.5s10.5 38.333 10.5 63c52.667 -19.333 95.667 -23.666 129 -12.999
s59.166 30.334 77.499 59.001s30.333 63.5 36 104.5s7.5 82.5 5.5 124.5c-15.333 -22 -35 -36.833 -59 -44.5s-43.667 -11.167 -59 -10.5c-30.667 0.666992 -55.5 6.83398 -74.5 18.501s-33.667 26.667 -44 45s-17.166 39 -20.499 62s-5 46 -5 69s0.666992 44.667 2 65
s1.66602 37.166 0.999023 50.499c-0.666992 14 -1.5 25.5 -2.5 34.5s-3.33301 16.333 -7 22s-9 9.83398 -16 12.501s-16.5 5 -28.5 7c0.666992 1.33301 2 7 4 17s3.33301 23.667 4 41s-2 33.666 -8 48.999c16 -3.33301 34.833 -6.33301 56.5 -9
s43.167 -4.83398 64.5 -6.50098s41.166 -2.5 59.499 -2.5s32.5 0.666992 42.5 2c-5.33301 -14 -7.16602 -29.333 -5.49902 -46l2.5 -25c-14 -2.66699 -25.667 -6.16699 -35 -10.5s-17.166 -11.333 -23.499 -21s-11.666 -22.667 -15.999 -39s-8.5 -38.166 -12.5 -65.499
c-4 -30 -4.16699 -57.333 -0.5 -82s9.66699 -45.834 18 -63.501s18.666 -31.167 30.999 -40.5s24.833 -13.666 37.5 -12.999c17.333 0.666992 33.166 12.5 47.499 35.5s25.333 53.667 33 92s11.334 83.166 11.001 134.499s-6.5 105.666 -18.5 162.999
c20 -6 39.833 -9.66699 59.5 -11s37.334 -1.5 53.001 -0.5s28.334 2.33301 38.001 4z" />
    <glyph glyph-name="z" unicode="z" horiz-adv-x="493" 
d="M471 506l-75.499 -110.998l-73.5 -115.5l-65.5 -107l-51.5 -86.5l42.5 4.5c28.333 3 63.833 4.5 106.5 4.5c2.66699 6 5.5 14.667 8.5 26s5.66699 23.166 8 35.499s4 24.166 5 35.499s0.833008 20.333 -0.5 27c11.333 -0.666992 25 0.5 41 3.5s29.333 6.16699 40 9.5
c-2.66699 -10.667 -4.66699 -25.834 -6 -45.501s-2 -40.667 -2 -63s0.5 -44.666 1.5 -66.999s2.5 -41.5 4.5 -57.5c-56 3.33301 -108.333 4.66602 -157 3.99902s-90.834 -2 -126.501 -4s-63.834 -4 -84.501 -6l-31 -3c-3.33301 23.333 -9.5 42.5 -18.5 57.5l-13.5 22.5
c32 8 63.167 27.667 93.5 59s58.5 66 84.5 104s49 75 69 111l45 80c-40.667 -2.66699 -73.167 -6.66699 -97.5 -12s-43.166 -11.833 -56.499 -19.5s-22.5 -16.667 -27.5 -27s-8.83301 -22.166 -11.5 -35.499c-5.33301 0 -16 -1 -32 -3s-29.333 -4.66699 -40 -8
c2.66699 13.333 3.5 29.166 2.5 47.499s-3 36.833 -6 55.5s-6.66699 36 -11 52s-8.83301 28.333 -13.5 37c8.66699 0 21 2.16699 37 6.5s28 8.83301 36 13.5c8.66699 -23.333 29 -38.166 61 -44.499s67.833 -8.5 107.5 -6.5s78.667 6.16699 117 12.5s68.5 10.833 90.5 13.5z
" />
    <glyph glyph-name="braceleft" unicode="{" horiz-adv-x="309" 
d="M286 883c-0.666992 -1.33301 -2.50586 -7.83398 -5.50586 -19.501s-5.5 -28.834 -7.5 -51.501s-0.666992 -46.667 4 -72c-24.667 -1.33301 -44.5 -7.83301 -59.5 -19.5s-26.5 -25.667 -34.5 -42s-13.167 -33.333 -15.5 -51s-3.5 -33.5 -3.5 -47.5
c0.666992 -14 -0.333008 -33.5 -3 -58.5s-6.66699 -50.333 -12 -76s-11.833 -48.5 -19.5 -68.5s-16.5 -32 -26.5 -36c11.333 -6 21 -19.333 29 -40s14.5 -43.5 19.5 -68.5s8.5 -49.667 10.5 -74s2.66699 -43.166 2 -56.499c0 -14 1.66699 -30 5 -48s9.5 -35.333 18.5 -52
s21.5 -31 37.5 -43s36.333 -18.667 61 -20c-6 -24.667 -9.16699 -47.667 -9.5 -69s0.333984 -37.333 2.00098 -48s2.83398 -16.667 3.50098 -18c-37.333 2 -68.166 9.66699 -92.499 23s-43.666 29 -57.999 47s-24.5 36.667 -30.5 56s-10 36 -12 50
c-2.66699 22.667 -3.33398 51.5 -2.00098 86.5s1 70.167 -1 105.5s-7.5 68.5 -16.5 99.5s-24.833 54.167 -47.5 69.5c22.667 15.333 38.5 38.333 47.5 69s14.5 63.667 16.5 99s2.33301 70.333 1 105s-0.666016 63.667 2.00098 87c2 14 6.33301 31.167 13 51.5
s17.334 39.833 32.001 58.5s34.334 34.834 59.001 48.501s55.667 21.5 93 23.5z" />
    <glyph glyph-name="bar" unicode="|" horiz-adv-x="171" 
d="M149 779c-2.66699 -18 -5.33594 -49.165 -8.00293 -93.498s-5.16699 -95.333 -7.5 -153s-4.5 -119.167 -6.5 -184.5s-3.66699 -127.833 -5 -187.5s-2.16602 -113.5 -2.49902 -161.5s-0.166016 -84 0.500977 -108c-26 3.33301 -47.5 3.33301 -64.5 0l-25.5 -5
c2 35.333 3.66699 78 5 128s2.5 103.333 3.5 160s1.33301 114.667 1 174s-1 116.166 -2 170.499s-2.83301 104.166 -5.5 149.499s-6 82 -10 110c2 0 8.66699 -0.666992 20 -2s27.333 -2 48 -2s40.334 1.66699 59.001 5z" />
    <glyph glyph-name="braceright" unicode="}" horiz-adv-x="309" 
d="M286 341c-22.667 -15.333 -38.5039 -38.499 -47.5039 -69.499s-14.5 -64.167 -16.5 -99.5s-2.33301 -70.5 -1 -105.5s0.666016 -63.833 -2.00098 -86.5c-2 -14 -6 -30.667 -12 -50s-16.167 -38 -30.5 -56s-33.666 -33.667 -57.999 -47s-55.166 -21 -92.499 -23l5 39
c3.33301 26 0.666016 58 -8.00098 96c24.667 1.33301 44.834 8 60.501 20s28 26.333 37 43s15.167 34 18.5 52s5 34 5 48c-0.666992 13.333 0 32.166 2 56.499s5.5 49 10.5 74s11.5 47.833 19.5 68.5s17.667 34 29 40c-10 4 -18.833 16 -26.5 36s-14.167 42.833 -19.5 68.5
s-9.33301 51 -12 76s-3.66699 44.5 -3 58.5c0 14 -1.16699 29.833 -3.5 47.5s-7.5 34.667 -15.5 51s-19.5 30.333 -34.5 42s-34.833 18.167 -59.5 19.5c4.66699 25.333 6 49.333 4 72s-4.5 39.834 -7.5 51.501s-4.83301 18.167 -5.5 19.5
c37.333 -2 68.333 -9.83301 93 -23.5s44.334 -29.834 59.001 -48.501s25.334 -38.167 32.001 -58.5s11 -37.5 13 -51.5c2.66699 -23.333 3.33398 -52.333 2.00098 -87s-1 -69.667 1 -105s7.5 -68.333 16.5 -99s24.833 -53.667 47.5 -69z" />
    <glyph glyph-name="asciitilde" unicode="~" horiz-adv-x="415" 
d="M372 743c-32.667 -17.333 -60.833 -24.834 -84.5 -22.501s-45.5 6.5 -65.5 12.5s-39.833 9.66699 -59.5 11s-41.834 -7.66699 -66.501 -27c-4 24 -11.833 41.333 -23.5 52l-17.5 16c28 20.667 53.5 30.834 76.5 30.501s45.833 -3 68.5 -8s46.334 -8.66699 71.001 -11
s53 4.5 85 20.5v-22c0 -14.667 5.33301 -32 16 -52z" />
    <glyph glyph-name="exclamdown" unicode="&#xa1;" horiz-adv-x="177" 
d="M154 683c0.666992 -2.66699 0.833984 -7.16406 0.500977 -13.4971s-2.5 -12.833 -6.5 -19.5s-10 -12.834 -18 -18.501s-19 -9.5 -33 -11.5c-12.667 -2 -25 2 -37 12s-19.333 20 -22 30c-0.666992 4 -0.166992 10.333 1.5 19s5.16699 17 10.5 25
s12.666 14.167 21.999 18.5s21.666 4.16602 36.999 -0.500977c8 -2.66699 16.833 -7.33398 26.5 -14.001s15.834 -15.667 18.501 -27zM147 -20.9971c-1.33301 0.666992 -7.50098 1.83203 -18.501 3.49902s-26.5 3.33398 -46.5 5.00098s-40 1.83398 -60 0.500977
c2.66699 10.667 5.33398 29.834 8.00098 57.501s5.16699 60.167 7.5 97.5s4.5 77 6.5 119s3.66699 82.667 5 122s2.16602 75.166 2.49902 107.499s-0.166992 56.833 -1.5 73.5c25.333 -4.66699 47.5 -6.33398 66.5 -5.00098l28.5 2c0 -8 -1.16699 -32.833 -3.5 -74.5
s-4.16602 -91.334 -5.49902 -149.001s-1.5 -118.667 -0.5 -183s4.83301 -123.166 11.5 -176.499z" />
    <glyph glyph-name="cent" unicode="&#xa2;" horiz-adv-x="418" 
d="M396 211c-12.667 -24.667 -33.8301 -45.6689 -63.4971 -63.002s-58.167 -27.333 -85.5 -30c0 -2 0.166992 -6.16699 0.5 -12.5s0.833008 -13.333 1.5 -21s1.66699 -15 3 -22s2.66602 -12.5 3.99902 -16.5c-16.667 0 -31.834 -2 -45.501 -6l-20.5 -6v18.5v26
c0 9 -0.166992 17.667 -0.5 26s-0.833008 14.833 -1.5 19.5c-46.667 8 -84.334 26 -113.001 54s-45.667 63.333 -51 106c-2.66699 21.333 -1 42.833 5 64.5s15.333 42.167 28 61.5s28.5 36.833 47.5 52.5s40.167 28.167 63.5 37.5c-1.33301 7.33301 -2.83301 23 -4.5 47
s-4.83398 48.333 -9.50098 73l34.5 -6c23 -4 49.833 -4.66699 80.5 -2c-0.666992 -4 -1.5 -10.5 -2.5 -19.5l-3.5 -30c-1.33301 -11 -2.5 -22 -3.5 -33s-1.83301 -20.833 -2.5 -29.5c3.33301 0 9.66602 -2.16699 18.999 -6.5s18.666 -9.5 27.999 -15.5
c4 6.66699 8.33301 15.834 13 27.501s7.66699 21.5 9 29.5c8.66699 -2 17.834 -3.66699 27.501 -5s19.167 -1.66602 28.5 -0.999023c-16 -36.667 -25 -68.334 -27 -95.001s-2.66699 -52.667 -2 -78c-9.33301 2.66699 -20.166 3.83398 -32.499 3.50098
s-23.166 -2.16602 -32.499 -5.49902c3.33301 24 2.33301 45.167 -3 63.5s-16 32.166 -32 41.499c-0.666992 -16 -1.33398 -36.833 -2.00098 -62.5l-2 -79.5c-0.666992 -27.333 -1.16699 -53.333 -1.5 -78s-0.166016 -44 0.500977 -58c19.333 -2 36.333 -0.666992 51 4
s27.5 10.5 38.5 17.5s20 14.333 27 22s12.5 13.5 16.5 17.5zM186.004 191.998c0 7.33301 -0.501953 22.835 -1.50195 46.502s-2.16699 49.167 -3.5 76.5l-4 79.5c-1.33301 25.667 -2.66602 44.5 -3.99902 56.5c-11.333 -5.33301 -20.666 -14 -27.999 -26
s-13.333 -25.333 -18 -40s-7.66699 -29.334 -9 -44.001s-1.66602 -27.667 -0.999023 -39c3.33301 -31.333 12.166 -55.833 26.499 -73.5s28.5 -29.834 42.5 -36.501z" />
    <glyph glyph-name="sterling" unicode="&#xa3;" horiz-adv-x="557" 
d="M534 618c-9.33301 -14 -17.1631 -30.6602 -23.4961 -49.9932s-11.833 -39.5 -16.5 -60.5s-8 -41.667 -10 -62s-3 -38.5 -3 -54.5c-6 4 -13.167 6.83301 -21.5 8.5s-16.833 2.66699 -25.5 3s-16.5 0.166016 -23.5 -0.500977s-11.833 -1.33398 -14.5 -2.00098
c4 20 5.33301 41 4 63s-5.33301 42.167 -12 60.5s-15.834 34 -27.501 47s-26.5 20.833 -44.5 23.5c-22 4 -42 3.66699 -60 -1s-33.5 -11.834 -46.5 -21.501s-23.333 -21 -31 -34s-12.5 -25.833 -14.5 -38.5c-3.33301 -23.333 -4.5 -48.5 -3.5 -75.5
s8.83301 -59.833 23.5 -98.5c19.333 0.666992 39.333 2.16699 60 4.5s42.334 5.16602 65.001 8.49902c0 -1.33301 -0.666992 -6.33301 -2 -15s-2 -20.834 -2 -36.501s1.66699 -31.167 5 -46.5l-27.5 3.5c-18.333 2.33301 -42.166 4.16602 -71.499 5.49902
c5.33301 -29.333 5.66602 -58.166 0.999023 -86.499s-12.334 -49.833 -23.001 -64.5c20.667 6.66699 43.167 9.5 67.5 8.5s49.5 -2.66699 75.5 -5s52.333 -3.5 79 -3.5s52.667 4.66699 78 14c0 -2 -0.833008 -8.66699 -2.5 -20s-3.16699 -26 -4.5 -44
s-1.33301 -33.333 0 -46c-18 -3.33301 -42.167 -2.16602 -72.5 3.50098s-62.833 10.667 -97.5 15s-69.334 5.83301 -104.001 4.5s-66 -10.333 -94 -27c-1.33301 5.33301 -5.33301 12.666 -12 21.999l-17 24c30 30 47.167 63.833 51.5 101.5s1.16602 72.834 -9.50098 105.501
c-34 0 -69 -2 -105 -6l1.5 26.5c1 17.667 0.833008 36.167 -0.5 55.5l35.5 -2l35.5 -2c-10.667 20.667 -20.667 43 -30 67s-14.333 52 -15 84c-0.666992 37.333 7.33301 68.333 24 93s37.167 44.5 61.5 59.5s49.833 25.5 76.5 31.5s49 8.66699 67 8
c12.667 0 23.667 -0.833008 33 -2.5s18.166 -4.33398 26.499 -8.00098s16.833 -8.5 25.5 -14.5s18.667 -13.667 30 -23s21 -14.5 29 -15.5s15 0.166992 21 3.5s11.333 8.16602 16 14.499s9 12.833 13 19.5l28.5 -11c12.333 -4.66699 23.5 -8.33398 33.5 -11.001z" />
    <glyph glyph-name="currency" unicode="&#xa4;" 
d="M353 401c0 -20.667 -3.83301 -40 -11.5 -58s-18.334 -33.667 -32.001 -47s-29.5 -23.833 -47.5 -31.5s-37.333 -11.5 -58 -11.5s-40 3.83301 -58 11.5s-33.667 18.167 -47 31.5s-23.833 29 -31.5 47s-11.5 37.333 -11.5 58s3.83301 40 11.5 58s18.167 33.667 31.5 47
s29 23.833 47 31.5s37.333 11.5 58 11.5s40 -3.83301 58 -11.5s33.833 -18.167 47.5 -31.5s24.334 -29 32.001 -47s11.5 -37.333 11.5 -58zM308 401c0 28.667 -10 53.167 -30 73.5s-44.667 30.5 -74 30.5c-28.667 0 -53.167 -10.167 -73.5 -30.5s-30.5 -44.833 -30.5 -73.5
s10.167 -53.167 30.5 -73.5s44.833 -30.5 73.5 -30.5c29.333 0 54 10.167 74 30.5s30 44.833 30 73.5z" />
    <glyph glyph-name="yen" unicode="&#xa5;" 
d="M353 401c0 -20.667 -3.83301 -40 -11.5 -58s-18.334 -33.667 -32.001 -47s-29.5 -23.833 -47.5 -31.5s-37.333 -11.5 -58 -11.5s-40 3.83301 -58 11.5s-33.667 18.167 -47 31.5s-23.833 29 -31.5 47s-11.5 37.333 -11.5 58s3.83301 40 11.5 58s18.167 33.667 31.5 47
s29 23.833 47 31.5s37.333 11.5 58 11.5s40 -3.83301 58 -11.5s33.833 -18.167 47.5 -31.5s24.334 -29 32.001 -47s11.5 -37.333 11.5 -58zM308 401c0 28.667 -10 53.167 -30 73.5s-44.667 30.5 -74 30.5c-28.667 0 -53.167 -10.167 -73.5 -30.5s-30.5 -44.833 -30.5 -73.5
s10.167 -53.167 30.5 -73.5s44.833 -30.5 73.5 -30.5c29.333 0 54 10.167 74 30.5s30 44.833 30 73.5z" />
    <glyph glyph-name="brokenbar" unicode="&#xa6;" 
d="M353 401c0 -20.667 -3.83301 -40 -11.5 -58s-18.334 -33.667 -32.001 -47s-29.5 -23.833 -47.5 -31.5s-37.333 -11.5 -58 -11.5s-40 3.83301 -58 11.5s-33.667 18.167 -47 31.5s-23.833 29 -31.5 47s-11.5 37.333 -11.5 58s3.83301 40 11.5 58s18.167 33.667 31.5 47
s29 23.833 47 31.5s37.333 11.5 58 11.5s40 -3.83301 58 -11.5s33.833 -18.167 47.5 -31.5s24.334 -29 32.001 -47s11.5 -37.333 11.5 -58zM308 401c0 28.667 -10 53.167 -30 73.5s-44.667 30.5 -74 30.5c-28.667 0 -53.167 -10.167 -73.5 -30.5s-30.5 -44.833 -30.5 -73.5
s10.167 -53.167 30.5 -73.5s44.833 -30.5 73.5 -30.5c29.333 0 54 10.167 74 30.5s30 44.833 30 73.5z" />
    <glyph glyph-name="section" unicode="&#xa7;" horiz-adv-x="591" 
d="M568 683c-4 -6 -8.82227 -18.5029 -14.4893 -37.5029s-11.167 -40.333 -16.5 -64s-9.83301 -47.834 -13.5 -72.501s-5.16699 -45.667 -4.5 -63c-20.667 4.66699 -39.334 6.66699 -56.001 6l-25 -1c0 17.333 -2.83301 35.333 -8.5 54s-13.5 36 -23.5 52
s-21.5 29.333 -34.5 40s-26.5 17 -40.5 19c-30 2.66699 -54.833 -4 -74.5 -20s-31.834 -37 -36.501 -63c-6 -32 9 -58.5 45 -79.5s84.667 -38.167 146 -51.5c46.667 -10 82 -25.5 106 -46.5s38.833 -43.5 44.5 -67.5s3.16699 -47.667 -7.5 -71s-27.667 -42.333 -51 -57
c-8.66699 -6 -18.334 -10 -29.001 -12s-20.334 -3 -29.001 -3c20.667 -30 25.667 -61.333 15 -94s-32.334 -58.667 -65.001 -78c-16.667 -10 -35 -15.333 -55 -16s-39.833 1.33301 -59.5 6s-38.334 11 -56.001 19s-31.834 15.667 -42.501 23
c-1.33301 -7.33301 -2.66602 -16.5 -3.99902 -27.5s-2 -21.167 -2 -30.5c-22 4 -41 3.33301 -57 -2l-24 -8c3.33301 12.667 5.66602 27.834 6.99902 45.501s2.16602 35.334 2.49902 53.001s-0.333984 33.834 -2.00098 48.501s-3.83398 25 -6.50098 31l20.5 0.5
c13.667 0.333008 27.834 3.5 42.501 9.5c3.33301 -21.333 14.5 -40.5 33.5 -57.5s39.667 -30.167 62 -39.5s43.5 -13.333 63.5 -12s32.333 10 37 26c9.33301 31.333 3.66602 53.333 -17.001 66s-54 25.334 -100 38.001l-73 22c-26 8 -49.833 18.167 -71.5 30.5
s-39.334 27.666 -53.001 45.999s-19.834 40.833 -18.501 67.5c1.33301 20 4.33301 37 9 51s11 26.667 19 38s17.5 21.5 28.5 30.5s23.5 18.5 37.5 28.5c-2.66699 6 -4.5 13.5 -5.5 22.5s-1.16699 17.167 -0.5 24.5c1.33301 23.333 8.33301 45.333 21 66
s28.834 38.834 48.501 54.501s42 28.334 67 38.001s50.167 15.167 75.5 16.5c26.667 1.33301 51 -4.33398 73 -17.001s42 -28 60 -46c7.33301 12.667 14 27 20 43s9.66699 28 11 36l25 -9c16.667 -6 35.667 -8 57 -6zM459.011 215.997
c8.66699 13.333 10.501 25.0049 5.50098 35.0049s-14.5 19 -28.5 27s-30.833 15.167 -50.5 21.5s-40.167 12.5 -61.5 18.5c-13.333 4 -28.5 8.83301 -45.5 14.5s-34 12.167 -51 19.5s-32.833 15.666 -47.5 24.999s-26 19.333 -34 30c-8 -7.33301 -14.667 -16.333 -20 -27
s-8 -22.334 -8 -35.001c0 -11.333 5.16699 -22.333 15.5 -33s24.166 -20.834 41.499 -30.501s37.833 -18.834 61.5 -27.501s48.5 -17 74.5 -25l47.5 -14c15.667 -4.66699 30.167 -8.16699 43.5 -10.5s25 -2.83301 35 -1.5s17.333 5.66602 22 12.999z" />
    <glyph glyph-name="dieresis" unicode="&#xa8;" horiz-adv-x="286" 
d="M263 621c1.33301 -10.667 -1.83105 -20.668 -9.49805 -30.001s-15.834 -15 -24.501 -17c-3.33301 -0.666992 -8.5 -0.333984 -15.5 0.999023s-13.5 4 -19.5 8s-10.833 9.83301 -14.5 17.5s-3.5 17.5 0.5 29.5c2 6.66699 5.5 13.667 10.5 21s12.167 12.333 21.5 15
c2 0.666992 5.66699 0.833984 11 0.500977s10.666 -2 15.999 -5s10.333 -7.66699 15 -14s7.66699 -15.166 9 -26.499zM116.003 617.999c0 -2.66699 -0.667969 -6.49805 -2.00098 -11.498s-4 -9.83301 -8 -14.5s-9.66699 -8.5 -17 -11.5s-16.666 -4.16699 -27.999 -3.5
c-10 0.666992 -18.833 6 -26.5 16s-11.5 19.333 -11.5 28c0 3.33301 1.16699 8.16602 3.5 14.499s6.33301 12.166 12 17.499s12.667 8.83301 21 10.5s17.833 -0.5 28.5 -6.5c6 -3.33301 12.167 -8.33301 18.5 -15s9.5 -14.667 9.5 -24z" />
    <glyph glyph-name="copyright" unicode="&#xa9;" horiz-adv-x="266" 
d="M243 619c-0.666992 -28 -13.334 -52.168 -38.001 -72.501s-56.334 -29.166 -95.001 -26.499c-21.333 1.33301 -41.5 10 -60.5 26s-28.167 36 -27.5 60s9.33398 45.333 26.001 64s39.334 29.667 68.001 33c14 1.33301 28.5 0.666016 43.5 -2.00098s28.667 -7.5 41 -14.5
s22.5 -16.167 30.5 -27.5s12 -24.666 12 -39.999zM217 611.999c0 14.667 -3.16992 27.002 -9.50293 37.002s-14 18 -23 24s-18.5 10.5 -28.5 13.5s-18 4.5 -24 4.5c-6.66699 0 -14.667 -1 -24 -3s-18.166 -5.83301 -26.499 -11.5s-15.5 -13.834 -21.5 -24.501
s-9 -24.667 -9 -42c0 -22.667 7.83301 -40.334 23.5 -53.001s30.167 -19.667 43.5 -21c10.667 -1.33301 21.834 -0.833008 33.501 1.5s22.334 6.5 32.001 12.5s17.5 14.167 23.5 24.5s9.33301 22.833 10 37.5zM172.997 582.001
c-2.66699 -6 -7.49805 -12.3291 -14.498 -18.9961s-14.5 -10 -22.5 -10c-4 0 -8.83301 1.16699 -14.5 3.5s-11.334 6 -17.001 11s-10.5 10.833 -14.5 17.5s-6 14 -6 22c0 16.667 5.66699 30.167 17 40.5s21.666 15.5 30.999 15.5c5.33301 0 10.166 -1.33301 14.499 -4
s7.16602 -4.66699 8.49902 -6c0.666992 1.33301 1.33398 3.5 2.00098 6.5s1 4.83301 1 5.5c1.33301 -0.666992 3.66602 -1.16699 6.99902 -1.5s5.66602 -0.5 6.99902 -0.5c-1.33301 -5.33301 -2.5 -13 -3.5 -23s0.166992 -18.333 3.5 -25c-1.33301 0 -4 -0.5 -8 -1.5
s-6.66699 -1.83301 -8 -2.5c-1.33301 7.33301 -3.66602 15.166 -6.99902 23.499s-7.66602 12.166 -12.999 11.499c-4.66699 -0.666992 -9.83398 -4.33398 -15.501 -11.001s-8.16699 -16 -7.5 -28s4.66699 -21.5 12 -28.5s13.333 -10.167 18 -9.5
c4.66699 0 9.33398 2.16699 14.001 6.5s8.33398 8.16602 11.001 11.499z" />
    <glyph glyph-name="ordfeminine" unicode="&#xaa;" 
d="M353 401c0 -20.667 -3.83301 -40 -11.5 -58s-18.334 -33.667 -32.001 -47s-29.5 -23.833 -47.5 -31.5s-37.333 -11.5 -58 -11.5s-40 3.83301 -58 11.5s-33.667 18.167 -47 31.5s-23.833 29 -31.5 47s-11.5 37.333 -11.5 58s3.83301 40 11.5 58s18.167 33.667 31.5 47
s29 23.833 47 31.5s37.333 11.5 58 11.5s40 -3.83301 58 -11.5s33.833 -18.167 47.5 -31.5s24.334 -29 32.001 -47s11.5 -37.333 11.5 -58zM308 401c0 28.667 -10 53.167 -30 73.5s-44.667 30.5 -74 30.5c-28.667 0 -53.167 -10.167 -73.5 -30.5s-30.5 -44.833 -30.5 -73.5
s10.167 -53.167 30.5 -73.5s44.833 -30.5 73.5 -30.5c29.333 0 54 10.167 74 30.5s30 44.833 30 73.5z" />
    <glyph glyph-name="guillemotleft" unicode="&#xab;" 
d="M353 401c0 -20.667 -3.83301 -40 -11.5 -58s-18.334 -33.667 -32.001 -47s-29.5 -23.833 -47.5 -31.5s-37.333 -11.5 -58 -11.5s-40 3.83301 -58 11.5s-33.667 18.167 -47 31.5s-23.833 29 -31.5 47s-11.5 37.333 -11.5 58s3.83301 40 11.5 58s18.167 33.667 31.5 47
s29 23.833 47 31.5s37.333 11.5 58 11.5s40 -3.83301 58 -11.5s33.833 -18.167 47.5 -31.5s24.334 -29 32.001 -47s11.5 -37.333 11.5 -58zM308 401c0 28.667 -10 53.167 -30 73.5s-44.667 30.5 -74 30.5c-28.667 0 -53.167 -10.167 -73.5 -30.5s-30.5 -44.833 -30.5 -73.5
s10.167 -53.167 30.5 -73.5s44.833 -30.5 73.5 -30.5c29.333 0 54 10.167 74 30.5s30 44.833 30 73.5z" />
    <glyph glyph-name="logicalnot" unicode="&#xac;" 
d="M353 401c0 -20.667 -3.83301 -40 -11.5 -58s-18.334 -33.667 -32.001 -47s-29.5 -23.833 -47.5 -31.5s-37.333 -11.5 -58 -11.5s-40 3.83301 -58 11.5s-33.667 18.167 -47 31.5s-23.833 29 -31.5 47s-11.5 37.333 -11.5 58s3.83301 40 11.5 58s18.167 33.667 31.5 47
s29 23.833 47 31.5s37.333 11.5 58 11.5s40 -3.83301 58 -11.5s33.833 -18.167 47.5 -31.5s24.334 -29 32.001 -47s11.5 -37.333 11.5 -58zM308 401c0 28.667 -10 53.167 -30 73.5s-44.667 30.5 -74 30.5c-28.667 0 -53.167 -10.167 -73.5 -30.5s-30.5 -44.833 -30.5 -73.5
s10.167 -53.167 30.5 -73.5s44.833 -30.5 73.5 -30.5c29.333 0 54 10.167 74 30.5s30 44.833 30 73.5z" />
    <glyph glyph-name="registered" unicode="&#xae;" horiz-adv-x="268" 
d="M245 629c1.33301 -28.667 -6.33008 -52.835 -22.9971 -72.502s-39.334 -32.167 -68.001 -37.5c-14 -2.66699 -28.667 -2.5 -44 0.5s-29.5 8.16699 -42.5 15.5s-23.667 16.833 -32 28.5s-12.5 24.834 -12.5 39.501c-0.666992 31.333 9.5 57.333 30.5 78
s51.167 31.334 90.5 32.001c25.333 0.666992 48.166 -7 68.499 -23s31.166 -36.333 32.499 -61zM217.004 622.999c-2 23.333 -11.667 41.6689 -29 55.002s-32.666 20 -45.999 20c-11.333 0 -22.833 -1.83301 -34.5 -5.5s-22 -9.33398 -31 -17.001s-16.333 -17.167 -22 -28.5
s-7.83398 -24.666 -6.50098 -39.999c0.666992 -15.333 4.66699 -27.833 12 -37.5s16 -17.334 26 -23.001s20.167 -9.5 30.5 -11.5s18.833 -3 25.5 -3c6.66699 0.666992 14.5 2.16699 23.5 4.5s17.667 6.83301 26 13.5s15 15.667 20 27s6.83301 26.666 5.5 45.999z
M195.004 565.002c-4 -0.666992 -10.999 -0.162109 -20.999 1.50488s-17.333 6.16699 -22 13.5c-2.66699 4 -4.33398 7.83301 -5.00098 11.5s-1.5 7 -2.5 10s-2.83301 5.16699 -5.5 6.5s-7 1.33301 -13 0c-1.33301 -10.667 -0.666016 -17.667 2.00098 -21
s5.66699 -5.33301 9 -6c-0.666992 -0.666992 -0.666992 -2.33398 0 -5.00098s1 -4.66699 1 -6c-2 0.666992 -8.5 0.5 -19.5 -0.5s-18.5 -2.16699 -22.5 -3.5c-1.33301 1.33301 -2.16602 3.16602 -2.49902 5.49902s-0.833008 4.16602 -1.5 5.49902
c6.66699 0 11.5 2.16699 14.5 6.5s4.83301 9 5.5 14s0.666992 10.167 0 15.5s-1 9 -1 11c-2 16 -5.33301 25.667 -10 29s-11.334 5 -20.001 5c0.666992 1.33301 1 3.33301 1 6s0.333008 5 1 7c4.66699 -2 13.834 -2.66699 27.501 -2s25.167 1 34.5 1
c7.33301 0.666992 13.666 -1.83301 18.999 -7.5s8.33301 -11.834 9 -18.501s-0.5 -12.834 -3.5 -18.501s-9.83301 -10.167 -20.5 -13.5c2.66699 0.666992 5.16699 -1.83301 7.5 -7.5s4.16602 -10.5 5.49902 -14.5c2.66699 -6 13.334 -7.66699 32.001 -5
c-0.666992 -2 -0.833984 -5.33301 -0.500977 -10s0.833008 -8 1.5 -10zM154.005 643.007c-0.666992 6 -3 10.668 -7 14.001s-11.667 4.33301 -23 3c0 -2.66699 0.5 -9.33398 1.5 -20.001s1.5 -17 1.5 -19c20 2 29 9.33301 27 22z" />
    <glyph glyph-name="degree" unicode="&#xb0;" horiz-adv-x="157" 
d="M134 621c1.33301 -12 -1.83203 -25.167 -9.49902 -39.5s-20.5 -22.5 -38.5 -24.5c-18 -2.66699 -32.833 0.833008 -44.5 10.5s-17.834 21.167 -18.501 34.5s2.83301 27.333 10.5 42s22.167 22.667 43.5 24c17.333 1.33301 30.833 -3.16699 40.5 -13.5
s15.167 -21.5 16.5 -33.5zM99.002 615c-0.666992 4 -2.33203 10.168 -4.99902 18.501s-7.66699 11.833 -15 10.5s-12.333 -6.33301 -15 -15s-3.66699 -15.334 -3 -20.001s2.66699 -10.667 6 -18s9 -10.333 17 -9c6 0 10.167 4.5 12.5 13.5s3.16602 15.5 2.49902 19.5z" />
    <glyph glyph-name="plusminus" unicode="&#xb1;" 
d="M353 401c0 -20.667 -3.83301 -40 -11.5 -58s-18.334 -33.667 -32.001 -47s-29.5 -23.833 -47.5 -31.5s-37.333 -11.5 -58 -11.5s-40 3.83301 -58 11.5s-33.667 18.167 -47 31.5s-23.833 29 -31.5 47s-11.5 37.333 -11.5 58s3.83301 40 11.5 58s18.167 33.667 31.5 47
s29 23.833 47 31.5s37.333 11.5 58 11.5s40 -3.83301 58 -11.5s33.833 -18.167 47.5 -31.5s24.334 -29 32.001 -47s11.5 -37.333 11.5 -58zM308 401c0 28.667 -10 53.167 -30 73.5s-44.667 30.5 -74 30.5c-28.667 0 -53.167 -10.167 -73.5 -30.5s-30.5 -44.833 -30.5 -73.5
s10.167 -53.167 30.5 -73.5s44.833 -30.5 73.5 -30.5c29.333 0 54 10.167 74 30.5s30 44.833 30 73.5z" />
    <glyph glyph-name="twosuperior" unicode="&#xb2;" 
d="M353 401c0 -20.667 -3.83301 -40 -11.5 -58s-18.334 -33.667 -32.001 -47s-29.5 -23.833 -47.5 -31.5s-37.333 -11.5 -58 -11.5s-40 3.83301 -58 11.5s-33.667 18.167 -47 31.5s-23.833 29 -31.5 47s-11.5 37.333 -11.5 58s3.83301 40 11.5 58s18.167 33.667 31.5 47
s29 23.833 47 31.5s37.333 11.5 58 11.5s40 -3.83301 58 -11.5s33.833 -18.167 47.5 -31.5s24.334 -29 32.001 -47s11.5 -37.333 11.5 -58zM308 401c0 28.667 -10 53.167 -30 73.5s-44.667 30.5 -74 30.5c-28.667 0 -53.167 -10.167 -73.5 -30.5s-30.5 -44.833 -30.5 -73.5
s10.167 -53.167 30.5 -73.5s44.833 -30.5 73.5 -30.5c29.333 0 54 10.167 74 30.5s30 44.833 30 73.5z" />
    <glyph glyph-name="threesuperior" unicode="&#xb3;" 
d="M353 401c0 -20.667 -3.83301 -40 -11.5 -58s-18.334 -33.667 -32.001 -47s-29.5 -23.833 -47.5 -31.5s-37.333 -11.5 -58 -11.5s-40 3.83301 -58 11.5s-33.667 18.167 -47 31.5s-23.833 29 -31.5 47s-11.5 37.333 -11.5 58s3.83301 40 11.5 58s18.167 33.667 31.5 47
s29 23.833 47 31.5s37.333 11.5 58 11.5s40 -3.83301 58 -11.5s33.833 -18.167 47.5 -31.5s24.334 -29 32.001 -47s11.5 -37.333 11.5 -58zM308 401c0 28.667 -10 53.167 -30 73.5s-44.667 30.5 -74 30.5c-28.667 0 -53.167 -10.167 -73.5 -30.5s-30.5 -44.833 -30.5 -73.5
s10.167 -53.167 30.5 -73.5s44.833 -30.5 73.5 -30.5c29.333 0 54 10.167 74 30.5s30 44.833 30 73.5z" />
    <glyph glyph-name="acute" unicode="&#xb4;" horiz-adv-x="240" 
d="M220 685l-53.001 -66.5l-41 -55l-26.5 -37.5l-9.5 -14c-17.333 5.33301 -33.333 8.5 -48 9.5l-22 1.5l29.5 46.5c19.667 31 44.834 74.167 75.501 129.5c14 -6 28.667 -10 44 -12s27.333 -2.83301 36 -2.5s13.667 0.5 15 0.5z" />
    <glyph glyph-name="mu" unicode="&#xb5;" 
d="M353 401c0 -20.667 -3.83301 -40 -11.5 -58s-18.334 -33.667 -32.001 -47s-29.5 -23.833 -47.5 -31.5s-37.333 -11.5 -58 -11.5s-40 3.83301 -58 11.5s-33.667 18.167 -47 31.5s-23.833 29 -31.5 47s-11.5 37.333 -11.5 58s3.83301 40 11.5 58s18.167 33.667 31.5 47
s29 23.833 47 31.5s37.333 11.5 58 11.5s40 -3.83301 58 -11.5s33.833 -18.167 47.5 -31.5s24.334 -29 32.001 -47s11.5 -37.333 11.5 -58zM308 401c0 28.667 -10 53.167 -30 73.5s-44.667 30.5 -74 30.5c-28.667 0 -53.167 -10.167 -73.5 -30.5s-30.5 -44.833 -30.5 -73.5
s10.167 -53.167 30.5 -73.5s44.833 -30.5 73.5 -30.5c29.333 0 54 10.167 74 30.5s30 44.833 30 73.5z" />
    <glyph glyph-name="paragraph" unicode="&#xb6;" horiz-adv-x="650" 
d="M627 646l-4.50293 -27.0059c-3 -18 -5.16699 -41.333 -6.5 -70c-14.667 0.666992 -26.5 1.5 -35.5 2.5l-13.5 1.5c-1.33301 -48 -2 -97.833 -2 -149.5s0.166992 -99.667 0.5 -144s1 -82.166 2 -113.499s1.83301 -50.666 2.5 -57.999c1.33301 -8.66699 7 -15 17 -19
s20.333 -7 31 -9c-1.33301 -4.66699 -2 -11.334 -2 -20.001s0.333008 -16.167 1 -22.5s1 -9.83301 1 -10.5c-26.667 2 -52.167 2.66699 -76.5 2s-42.5 -1.5 -54.5 -2.5s-19 -1.5 -21 -1.5c2.66699 15.333 4.66699 37.166 6 65.499s2.5 60 3.5 95s1.66699 71.667 2 110l1 112
c0.333008 36.333 0.5 69.833 0.5 100.5v75c-14.667 3.33301 -26 2.5 -34 -2.5s-13.333 -16.5 -16 -34.5c-2 -13.333 -4.33301 -37.166 -7 -71.499s-5.16699 -71.833 -7.5 -112.5s-4.16602 -80.667 -5.49902 -120s-1.66602 -71 -0.999023 -95c0 -20 4.33301 -35.5 13 -46.5
s18.667 -17.167 30 -18.5l-2 -20c-1.33301 -13.333 0 -29.666 4 -48.999c-20 2 -41.833 3.33301 -65.5 4s-46.334 0.833984 -68.001 0.500977s-41.167 -1 -58.5 -2s-30 -2.16699 -38 -3.5c-2.66699 2 -3.16699 10.5 -1.5 25.5s1.83398 26.833 0.500977 35.5
c14 0.666992 27.833 2.5 41.5 5.5s25.334 9.16699 35.001 18.5s16.5 22.833 20.5 40.5s4 41.834 0 72.501c-30.667 4.66699 -62 10.334 -94 17.001s-61.833 18.334 -89.5 35.001s-51.5 40.5 -71.5 71.5s-33 73.167 -39 126.5c-6 49.333 -0.5 90.166 16.5 122.499
s40.167 57.5 69.5 75.5s62.666 29.333 99.999 34s73 4 107 -2c24.667 -4 48.834 -7.16699 72.501 -9.5s47.667 -4.33301 72 -6s50 -3.16699 77 -4.5s56.167 -2.66602 87.5 -3.99902z" />
    <glyph glyph-name="summation" unicode="&#xb7;" 
d="M353 401c0 -20.667 -3.83301 -40 -11.5 -58s-18.334 -33.667 -32.001 -47s-29.5 -23.833 -47.5 -31.5s-37.333 -11.5 -58 -11.5s-40 3.83301 -58 11.5s-33.667 18.167 -47 31.5s-23.833 29 -31.5 47s-11.5 37.333 -11.5 58s3.83301 40 11.5 58s18.167 33.667 31.5 47
s29 23.833 47 31.5s37.333 11.5 58 11.5s40 -3.83301 58 -11.5s33.833 -18.167 47.5 -31.5s24.334 -29 32.001 -47s11.5 -37.333 11.5 -58zM308 401c0 28.667 -10 53.167 -30 73.5s-44.667 30.5 -74 30.5c-28.667 0 -53.167 -10.167 -73.5 -30.5s-30.5 -44.833 -30.5 -73.5
s10.167 -53.167 30.5 -73.5s44.833 -30.5 73.5 -30.5c29.333 0 54 10.167 74 30.5s30 44.833 30 73.5z" />
    <glyph glyph-name="cedilla" unicode="&#xb8;" 
d="M353 401c0 -20.667 -3.83301 -40 -11.5 -58s-18.334 -33.667 -32.001 -47s-29.5 -23.833 -47.5 -31.5s-37.333 -11.5 -58 -11.5s-40 3.83301 -58 11.5s-33.667 18.167 -47 31.5s-23.833 29 -31.5 47s-11.5 37.333 -11.5 58s3.83301 40 11.5 58s18.167 33.667 31.5 47
s29 23.833 47 31.5s37.333 11.5 58 11.5s40 -3.83301 58 -11.5s33.833 -18.167 47.5 -31.5s24.334 -29 32.001 -47s11.5 -37.333 11.5 -58zM308 401c0 28.667 -10 53.167 -30 73.5s-44.667 30.5 -74 30.5c-28.667 0 -53.167 -10.167 -73.5 -30.5s-30.5 -44.833 -30.5 -73.5
s10.167 -53.167 30.5 -73.5s44.833 -30.5 73.5 -30.5c29.333 0 54 10.167 74 30.5s30 44.833 30 73.5z" />
    <glyph glyph-name="onesuperior" unicode="&#xb9;" 
d="M353 401c0 -20.667 -3.83301 -40 -11.5 -58s-18.334 -33.667 -32.001 -47s-29.5 -23.833 -47.5 -31.5s-37.333 -11.5 -58 -11.5s-40 3.83301 -58 11.5s-33.667 18.167 -47 31.5s-23.833 29 -31.5 47s-11.5 37.333 -11.5 58s3.83301 40 11.5 58s18.167 33.667 31.5 47
s29 23.833 47 31.5s37.333 11.5 58 11.5s40 -3.83301 58 -11.5s33.833 -18.167 47.5 -31.5s24.334 -29 32.001 -47s11.5 -37.333 11.5 -58zM308 401c0 28.667 -10 53.167 -30 73.5s-44.667 30.5 -74 30.5c-28.667 0 -53.167 -10.167 -73.5 -30.5s-30.5 -44.833 -30.5 -73.5
s10.167 -53.167 30.5 -73.5s44.833 -30.5 73.5 -30.5c29.333 0 54 10.167 74 30.5s30 44.833 30 73.5z" />
    <glyph glyph-name="ordmasculine" unicode="&#xba;" 
d="M353 401c0 -20.667 -3.83301 -40 -11.5 -58s-18.334 -33.667 -32.001 -47s-29.5 -23.833 -47.5 -31.5s-37.333 -11.5 -58 -11.5s-40 3.83301 -58 11.5s-33.667 18.167 -47 31.5s-23.833 29 -31.5 47s-11.5 37.333 -11.5 58s3.83301 40 11.5 58s18.167 33.667 31.5 47
s29 23.833 47 31.5s37.333 11.5 58 11.5s40 -3.83301 58 -11.5s33.833 -18.167 47.5 -31.5s24.334 -29 32.001 -47s11.5 -37.333 11.5 -58zM308 401c0 28.667 -10 53.167 -30 73.5s-44.667 30.5 -74 30.5c-28.667 0 -53.167 -10.167 -73.5 -30.5s-30.5 -44.833 -30.5 -73.5
s10.167 -53.167 30.5 -73.5s44.833 -30.5 73.5 -30.5c29.333 0 54 10.167 74 30.5s30 44.833 30 73.5z" />
    <glyph glyph-name="guillemotright" unicode="&#xbb;" 
d="M353 401c0 -20.667 -3.83301 -40 -11.5 -58s-18.334 -33.667 -32.001 -47s-29.5 -23.833 -47.5 -31.5s-37.333 -11.5 -58 -11.5s-40 3.83301 -58 11.5s-33.667 18.167 -47 31.5s-23.833 29 -31.5 47s-11.5 37.333 -11.5 58s3.83301 40 11.5 58s18.167 33.667 31.5 47
s29 23.833 47 31.5s37.333 11.5 58 11.5s40 -3.83301 58 -11.5s33.833 -18.167 47.5 -31.5s24.334 -29 32.001 -47s11.5 -37.333 11.5 -58zM308 401c0 28.667 -10 53.167 -30 73.5s-44.667 30.5 -74 30.5c-28.667 0 -53.167 -10.167 -73.5 -30.5s-30.5 -44.833 -30.5 -73.5
s10.167 -53.167 30.5 -73.5s44.833 -30.5 73.5 -30.5c29.333 0 54 10.167 74 30.5s30 44.833 30 73.5z" />
    <glyph glyph-name="onequarter" unicode="&#xbc;" 
d="M353 401c0 -20.667 -3.83301 -40 -11.5 -58s-18.334 -33.667 -32.001 -47s-29.5 -23.833 -47.5 -31.5s-37.333 -11.5 -58 -11.5s-40 3.83301 -58 11.5s-33.667 18.167 -47 31.5s-23.833 29 -31.5 47s-11.5 37.333 -11.5 58s3.83301 40 11.5 58s18.167 33.667 31.5 47
s29 23.833 47 31.5s37.333 11.5 58 11.5s40 -3.83301 58 -11.5s33.833 -18.167 47.5 -31.5s24.334 -29 32.001 -47s11.5 -37.333 11.5 -58zM308 401c0 28.667 -10 53.167 -30 73.5s-44.667 30.5 -74 30.5c-28.667 0 -53.167 -10.167 -73.5 -30.5s-30.5 -44.833 -30.5 -73.5
s10.167 -53.167 30.5 -73.5s44.833 -30.5 73.5 -30.5c29.333 0 54 10.167 74 30.5s30 44.833 30 73.5z" />
    <glyph glyph-name="onehalf" unicode="&#xbd;" 
d="M353 401c0 -20.667 -3.83301 -40 -11.5 -58s-18.334 -33.667 -32.001 -47s-29.5 -23.833 -47.5 -31.5s-37.333 -11.5 -58 -11.5s-40 3.83301 -58 11.5s-33.667 18.167 -47 31.5s-23.833 29 -31.5 47s-11.5 37.333 -11.5 58s3.83301 40 11.5 58s18.167 33.667 31.5 47
s29 23.833 47 31.5s37.333 11.5 58 11.5s40 -3.83301 58 -11.5s33.833 -18.167 47.5 -31.5s24.334 -29 32.001 -47s11.5 -37.333 11.5 -58zM308 401c0 28.667 -10 53.167 -30 73.5s-44.667 30.5 -74 30.5c-28.667 0 -53.167 -10.167 -73.5 -30.5s-30.5 -44.833 -30.5 -73.5
s10.167 -53.167 30.5 -73.5s44.833 -30.5 73.5 -30.5c29.333 0 54 10.167 74 30.5s30 44.833 30 73.5z" />
    <glyph glyph-name="threequarters" unicode="&#xbe;" 
d="M353 401c0 -20.667 -3.83301 -40 -11.5 -58s-18.334 -33.667 -32.001 -47s-29.5 -23.833 -47.5 -31.5s-37.333 -11.5 -58 -11.5s-40 3.83301 -58 11.5s-33.667 18.167 -47 31.5s-23.833 29 -31.5 47s-11.5 37.333 -11.5 58s3.83301 40 11.5 58s18.167 33.667 31.5 47
s29 23.833 47 31.5s37.333 11.5 58 11.5s40 -3.83301 58 -11.5s33.833 -18.167 47.5 -31.5s24.334 -29 32.001 -47s11.5 -37.333 11.5 -58zM308 401c0 28.667 -10 53.167 -30 73.5s-44.667 30.5 -74 30.5c-28.667 0 -53.167 -10.167 -73.5 -30.5s-30.5 -44.833 -30.5 -73.5
s10.167 -53.167 30.5 -73.5s44.833 -30.5 73.5 -30.5c29.333 0 54 10.167 74 30.5s30 44.833 30 73.5z" />
    <glyph glyph-name="questiondown" unicode="&#xbf;" horiz-adv-x="528" 
d="M340 656c1.33301 -2.66699 1.66602 -7.33203 0.999023 -13.999s-3.16699 -13.667 -7.5 -21s-11 -14 -20 -20s-21.833 -10 -38.5 -12c-15.333 -1.33301 -29.666 3.16699 -42.999 13.5s-21.666 20.833 -24.999 31.5c-1.33301 4 -1 10.5 1 19.5s6 17.5 12 25.5
s14.5 14.333 25.5 19s25.167 4.66699 42.5 0c9.33301 -2.66699 19.666 -7.33398 30.999 -14.001s18.333 -16 21 -28zM505 -4.99805c-7.33301 0 -19.3281 -1.83594 -35.9951 -5.50293s-29.667 -8.16699 -39 -13.5c-9.33301 24 -20.333 38.667 -33 44
s-27.334 5.83301 -44.001 1.5s-35 -11.333 -55 -21s-41.667 -16.834 -65 -21.501c-20 -4 -41.667 -3.16699 -65 2.5s-45.5 15 -66.5 28s-38.833 29 -53.5 48s-23 39.5 -25 61.5c-2 24.667 0.166992 48.834 6.5 72.501s15.666 45.667 27.999 66s26.833 38.833 43.5 55.5
s34 30.334 52 41.001c36 21.333 57.667 47 65 77s7 64.333 -1 103c20 -2 39.667 -2 59 0s34.166 4.33301 44.499 7s16.166 4.33398 17.499 5.00098c2 -7.33301 3.66699 -16.333 5 -27s1.83301 -22 1.5 -34s-2.16602 -24.333 -5.49902 -37s-8.66602 -25 -15.999 -37
c-8.66699 -13.333 -22.167 -26.166 -40.5 -38.499s-37.333 -26.5 -57 -42.5s-37.834 -34.667 -54.501 -56s-27.334 -48 -32.001 -80c-2.66699 -17.333 -3.5 -35.5 -2.5 -54.5s4.83301 -36.5 11.5 -52.5s16.5 -29.5 29.5 -40.5s30.5 -16.833 52.5 -17.5
c42.667 -1.33301 76.167 17.667 100.5 57s36.166 90 35.499 152c8.66699 -1.33301 21 -1.33301 37 0s28.667 3.33301 38 6c-1.33301 -34.667 0 -65.167 4 -91.5s9.33301 -49.5 16 -69.5s14 -37 22 -51z" />
    <glyph glyph-name="AE" unicode="&#xc6;" horiz-adv-x="884" 
d="M862 245l0.505859 -0.507812c0.333008 -0.333008 0.166016 -7.33301 -0.500977 -21s-2 -37.167 -4 -70.5s-5.33301 -82.666 -10 -147.999c-24 4.66699 -57 7.33398 -99 8.00098s-86.333 0.333984 -133 -0.999023s-91.834 -3.5 -135.501 -6.5s-78.5 -5.5 -104.5 -7.5
c2.66699 20.667 2.66699 40 0 58l-4 27c15.333 4 29.666 9.5 42.999 16.5s22.666 19.167 27.999 36.5c1.33301 4.66699 2.16602 23 2.49902 55s-0.166992 68.667 -1.5 110l-182 -14c-0.666992 -2 -4.16699 -11.333 -10.5 -28l-20.5 -55l-20 -56
c-6 -17.333 -9.66699 -27.333 -11 -30c14.667 -9.33301 28.334 -15.5 41.001 -18.5s27 -5.5 43 -7.5c-2.66699 -10.667 -4.16699 -23.834 -4.5 -39.501s0.166992 -29.167 1.5 -40.5c-7.33301 -0.666992 -20.333 -1.16699 -39 -1.5s-40.334 -1 -65.001 -2
s-50.667 -2.83301 -78 -5.5s-53 -6.66699 -77 -12c8.66699 26.667 12.167 50.5 10.5 71.5l-2.5 31.5c19.333 2 37.333 9.16699 54 21.5s31.334 31.833 44.001 58.5c4 8.66699 10.667 24.167 20 46.5l31 76.5l36 90.5l35.5 89.5l28.5 73.5l16 41.5
c-7.33301 1.33301 -20.333 2 -39 2s-37.334 -0.333008 -56.001 -1c7.33301 14.667 12 30.5 14 47.5s2.83301 30.667 2.5 41s-0.5 16.166 -0.5 17.499c70.667 -11.333 132 -18 184 -20s101 -2.16699 147 -0.5s91.833 3.5 137.5 5.5s97.5 1.66699 155.5 -1
c-4 -16 -6.83301 -33.667 -8.5 -53s-2.5 -38.166 -2.5 -56.499s1 -35.333 3 -51s4.33301 -27.5 7 -35.5l-19.5 -2.5c-13 -1.66699 -26.167 -6.16699 -39.5 -13.5c-5.33301 22 -10.5 40 -15.5 54s-10.167 25.5 -15.5 34.5s-11.166 16.5 -17.499 22.5s-13.5 11.667 -21.5 17
c-0.666992 0.666992 -5 2.33398 -13 5.00098s-25.167 4.33398 -51.5 5.00098s-61.833 -2.66602 -106.5 -9.99902v-227c32.667 0.666992 60 8.33398 82 23.001s33 43.334 33 86.001c10.667 -4.66699 23.167 -8.5 37.5 -11.5s25.5 -5.5 33.5 -7.5l-1.5 -11.5
c-1 -7.66699 -2.33301 -20.667 -4 -39s-3.16699 -42.666 -4.5 -72.999s-2 -68.166 -2 -113.499c-6.66699 -0.666992 -16.834 -3 -30.501 -7l-33.5 -10c2.66699 22.667 -0.333008 41.167 -9 55.5s-19.334 25 -32.001 32s-25.667 11.167 -39 12.5s-23.333 0.333008 -30 -3
c-0.666992 -12.667 -0.833984 -30.667 -0.500977 -54s1 -47 2 -71s2.16699 -46 3.5 -66s2.33301 -32.667 3 -38c55.333 -0.666992 98.666 1.16602 129.999 5.49902s54.833 13 70.5 26s25.334 31 29.001 54s5.83398 52.5 6.50098 88.5c17.333 -0.666992 33 -1.5 47 -2.5
s24.667 -1.83301 32 -2.5zM443.006 363.992l-0.5 17.502c-0.333008 11.667 -0.833008 26.667 -1.5 45s-1.16699 38.833 -1.5 61.5s-0.833008 45 -1.5 67c-0.666992 9.33301 -5.5 17.333 -14.5 24s-21.833 9.66699 -38.5 9l-27 -61c-18 -40.667 -40.667 -95.334 -68 -164.001
c18.667 -1.33301 43 -1.83301 73 -1.5s56.667 1.16602 80 2.49902z" />
    <glyph glyph-name="Ccedilla" unicode="&#xc7;" horiz-adv-x="669" 
d="M646 654c-8.66699 -13.333 -16.8281 -31.5029 -24.4951 -54.5029s-14.5 -47.5 -20.5 -73.5s-10.667 -51.667 -14 -77s-5 -47.333 -5 -66c-18 4.66699 -34.833 6.5 -50.5 5.5l-23.5 -1.5c0.666992 9.33301 0.666992 25.666 0 48.999s-4.66699 47.5 -12 72.5
s-19 47.5 -35 67.5s-39 31.333 -69 34c-25.333 2.66699 -50.5 -2 -75.5 -14s-47.833 -28.833 -68.5 -50.5s-38.334 -47 -53.001 -76s-24 -59.5 -28 -91.5c-2.66699 -20.667 -2.16699 -44.834 1.5 -72.501s12.5 -54.667 26.5 -81s34.167 -50 60.5 -71
s60.5 -34.833 102.5 -41.5s75.333 -5.16699 100 4.5s43.667 23.667 57 42s21.833 39.333 25.5 63s5.5 45.834 5.5 66.501l16 1c10.667 0.666992 22.667 -0.333008 36 -3c-2 -14 -2.16699 -29.5 -0.5 -46.5s4.16699 -33.833 7.5 -50.5s7.16602 -32.5 11.499 -47.5
s8.83301 -27.5 13.5 -37.5l-26 -13c-12 -6 -21.333 -12 -28 -18c-8 16 -18.667 23 -32 21s-29.666 -7.83301 -48.999 -17.5s-41.5 -20.167 -66.5 -31.5s-53.167 -18.333 -84.5 -21l-11 -32c6 2 14.5 3 25.5 3s21.833 -2.33301 32.5 -7s20.167 -12 28.5 -22
s13.166 -23.667 14.499 -41c2 -22 -3.66699 -38.5 -17 -49.5s-30 -18 -50 -21s-40.5 -3 -61.5 0s-37.833 7.5 -50.5 13.5l6.5 11.5c4.33301 7.66699 6.5 15.834 6.5 24.501c7.33301 -4.66699 16.666 -8.16699 27.999 -10.5s22.333 -3 33 -2s19.834 3.83301 27.501 8.5
s11.5 11.667 11.5 21s-3.16699 16.666 -9.5 21.999s-15 8.83301 -26 10.5s-23.167 1.83398 -36.5 0.500977s-27 -4 -41 -8l21 88c-28 8 -58.5 21.333 -91.5 40s-62.833 43.167 -89.5 73.5s-47 67 -61 110s-16 92.833 -6 149.5c8.66699 50 26.167 91.667 52.5 125
s55.666 59.833 87.999 79.5s64.666 33.5 96.999 41.5s58.833 11.667 79.5 11s38.667 -2.66699 54 -6s29.666 -8.16602 42.999 -14.499s26.333 -14 39 -23l43 -31.5l9.5 22c3.66699 8.66699 7.16699 17.834 10.5 27.501l9.5 27.5c3 8.66699 5.16699 15.667 6.5 21
c2 -3.33301 6.66699 -6.66602 14 -9.99902s15.333 -6.5 24 -9.5s17.5 -5.66699 26.5 -8z" />
    <glyph glyph-name="Eth" unicode="&#xd0;" 
d="M353 401c0 -20.667 -3.83301 -40 -11.5 -58s-18.334 -33.667 -32.001 -47s-29.5 -23.833 -47.5 -31.5s-37.333 -11.5 -58 -11.5s-40 3.83301 -58 11.5s-33.667 18.167 -47 31.5s-23.833 29 -31.5 47s-11.5 37.333 -11.5 58s3.83301 40 11.5 58s18.167 33.667 31.5 47
s29 23.833 47 31.5s37.333 11.5 58 11.5s40 -3.83301 58 -11.5s33.833 -18.167 47.5 -31.5s24.334 -29 32.001 -47s11.5 -37.333 11.5 -58zM308 401c0 28.667 -10 53.167 -30 73.5s-44.667 30.5 -74 30.5c-28.667 0 -53.167 -10.167 -73.5 -30.5s-30.5 -44.833 -30.5 -73.5
s10.167 -53.167 30.5 -73.5s44.833 -30.5 73.5 -30.5c29.333 0 54 10.167 74 30.5s30 44.833 30 73.5z" />
    <glyph glyph-name="multiply" unicode="&#xd7;" 
d="M353 401c0 -20.667 -3.83301 -40 -11.5 -58s-18.334 -33.667 -32.001 -47s-29.5 -23.833 -47.5 -31.5s-37.333 -11.5 -58 -11.5s-40 3.83301 -58 11.5s-33.667 18.167 -47 31.5s-23.833 29 -31.5 47s-11.5 37.333 -11.5 58s3.83301 40 11.5 58s18.167 33.667 31.5 47
s29 23.833 47 31.5s37.333 11.5 58 11.5s40 -3.83301 58 -11.5s33.833 -18.167 47.5 -31.5s24.334 -29 32.001 -47s11.5 -37.333 11.5 -58zM308 401c0 28.667 -10 53.167 -30 73.5s-44.667 30.5 -74 30.5c-28.667 0 -53.167 -10.167 -73.5 -30.5s-30.5 -44.833 -30.5 -73.5
s10.167 -53.167 30.5 -73.5s44.833 -30.5 73.5 -30.5c29.333 0 54 10.167 74 30.5s30 44.833 30 73.5z" />
    <glyph glyph-name="Oslash" unicode="&#xd8;" horiz-adv-x="688" 
d="M662 265c-4 -38 -17.001 -74.168 -39.001 -108.501s-48.833 -64.5 -80.5 -90.5s-65.5 -46.833 -101.5 -62.5s-70 -23.834 -102 -24.501c-14 0 -32.833 3.5 -56.5 10.5s-48.834 17.5 -75.501 31.5l-29.5 -51l-20.5 -37c-4 2.66699 -9.66699 5.33398 -17 8.00098
s-14.833 5 -22.5 7s-15 3.66699 -22 5s-11.833 2 -14.5 2l29.5 48.5l35.5 56.5c-25.333 20 -48.5 43.333 -69.5 70s-36.167 56.834 -45.5 90.501s-11.166 70.834 -5.49902 111.501s21.834 84.667 48.501 132c12.667 22 28.334 45.167 47.001 69.5s40.167 46.666 64.5 66.999
s51.5 37.333 81.5 51s62.333 20.834 97 21.501c11.333 0.666992 27.166 -1 47.499 -5s42.166 -11.667 65.499 -23l25.5 54.5c7.66699 16.333 14.167 31.166 19.5 44.499c1.33301 -0.666992 7 -2.66699 17 -6s25 -6.83301 45 -10.5s41.333 -5.5 64 -5.5
c-7.33301 -10 -18.666 -26.5 -33.999 -49.5l-54 -82.5c32.667 -30 59.667 -71.167 81 -123.5s28.333 -119.5 21 -201.5zM436.999 567.999c-12 13.333 -24.167 23.833 -36.5 31.5s-24.166 11.834 -35.499 12.501c-16.667 0.666992 -34.334 -6 -53.001 -20
s-36.334 -31.5 -53.001 -52.5s-31.667 -43.833 -45 -68.5s-22.666 -47 -27.999 -67c-16 -58.667 -21.833 -108.834 -17.5 -150.501s14.833 -76.167 31.5 -103.5l61 103.5l62 107.5l60 106.5zM533.999 347.999c-2.66699 24 -7.83398 47.665 -15.501 70.998
s-16.5 45.333 -26.5 66l-62 -98l-63.5 -101.5l-61 -99.5l-55.5 -92c26.667 -20.667 54.834 -33.667 84.501 -39s52.834 -5.66602 69.501 -0.999023c16.667 4 33.667 15 51 33s32.666 40.5 45.999 67.5s23.5 57.333 30.5 91s7.83301 67.834 2.5 102.501z" />
    <glyph glyph-name="Yacute" unicode="&#xdd;" 
d="M353 401c0 -20.667 -3.83301 -40 -11.5 -58s-18.334 -33.667 -32.001 -47s-29.5 -23.833 -47.5 -31.5s-37.333 -11.5 -58 -11.5s-40 3.83301 -58 11.5s-33.667 18.167 -47 31.5s-23.833 29 -31.5 47s-11.5 37.333 -11.5 58s3.83301 40 11.5 58s18.167 33.667 31.5 47
s29 23.833 47 31.5s37.333 11.5 58 11.5s40 -3.83301 58 -11.5s33.833 -18.167 47.5 -31.5s24.334 -29 32.001 -47s11.5 -37.333 11.5 -58zM308 401c0 28.667 -10 53.167 -30 73.5s-44.667 30.5 -74 30.5c-28.667 0 -53.167 -10.167 -73.5 -30.5s-30.5 -44.833 -30.5 -73.5
s10.167 -53.167 30.5 -73.5s44.833 -30.5 73.5 -30.5c29.333 0 54 10.167 74 30.5s30 44.833 30 73.5z" />
    <glyph glyph-name="Thorn" unicode="&#xde;" 
d="M353 401c0 -20.667 -3.83301 -40 -11.5 -58s-18.334 -33.667 -32.001 -47s-29.5 -23.833 -47.5 -31.5s-37.333 -11.5 -58 -11.5s-40 3.83301 -58 11.5s-33.667 18.167 -47 31.5s-23.833 29 -31.5 47s-11.5 37.333 -11.5 58s3.83301 40 11.5 58s18.167 33.667 31.5 47
s29 23.833 47 31.5s37.333 11.5 58 11.5s40 -3.83301 58 -11.5s33.833 -18.167 47.5 -31.5s24.334 -29 32.001 -47s11.5 -37.333 11.5 -58zM308 401c0 28.667 -10 53.167 -30 73.5s-44.667 30.5 -74 30.5c-28.667 0 -53.167 -10.167 -73.5 -30.5s-30.5 -44.833 -30.5 -73.5
s10.167 -53.167 30.5 -73.5s44.833 -30.5 73.5 -30.5c29.333 0 54 10.167 74 30.5s30 44.833 30 73.5z" />
    <glyph glyph-name="germandbls" unicode="&#xdf;" horiz-adv-x="557" 
d="M534 500c1.33301 -16 -2 -33.499 -10 -52.499s-20 -37 -36 -54s-35.5 -32.167 -58.5 -45.5s-48.833 -22.333 -77.5 -27c38.667 -11.333 70.834 -30 96.501 -56s38.5 -59.333 38.5 -100c0 -32 -8.83301 -58.833 -26.5 -80.5s-40.167 -39.667 -67.5 -54
s-57.166 -25.166 -89.499 -32.499s-63.5 -12.333 -93.5 -15l2.5 23.5c1 9.66699 1.5 20 1.5 31s-0.333008 21.833 -1 32.5s-2.66699 20 -6 28c19.333 0.666992 39.333 3 60 7s39.667 10 57 18s31.5 18.167 42.5 30.5s16.833 27.5 17.5 45.5c0.666992 24 -15 43.833 -47 59.5
s-70.667 24.5 -116 26.5c6 21.333 7 39.5 3 54.5l-6 22.5c25.333 -2 51.333 -1 78 3s51.167 10.833 73.5 20.5s40.666 22.5 54.999 38.5s21.5 35.333 21.5 58c0 22 -10.333 40.833 -31 56.5s-46.334 28 -77.001 37s-63.334 14.667 -98.001 17s-66 1.5 -94 -2.5
c5.33301 -37.333 10.333 -76.166 15 -116.499s8.5 -80.666 11.5 -120.999s5 -80.333 6 -120s0.833008 -77.5 -0.5 -113.5c-2 -42.667 -10.833 -77.834 -26.5 -105.501s-36.167 -45.5 -61.5 -53.5c-13.333 32 -28 57.333 -44 76l-24 28c22.667 14 38.334 41.667 47.001 83
s13.5 90.666 14.5 147.999s-0.833008 119.666 -5.5 186.999l-14 199c104 9.33301 186.833 8.5 248.5 -2.5s108.667 -26.833 141 -47.5s53.5 -43.334 63.5 -68.001s15.667 -45.667 17 -63z" />
    <glyph glyph-name="ae" unicode="&#xe6;" horiz-adv-x="777" 
d="M755 27c-8 -4 -19.5059 -9.16699 -34.5059 -15.5s-25.167 -13.166 -30.5 -20.499c-3.33301 20.667 -10 32.334 -20 35.001s-24 -1 -42 -11c-17.333 -10.667 -30.833 -18.167 -40.5 -22.5s-23.167 -6.83301 -40.5 -7.5c-11.333 0 -25.166 1.66699 -41.499 5
s-33.666 8.83301 -51.999 16.5s-36.5 17.667 -54.5 30s-34 27.166 -48 44.499c-4.66699 -6 -13 -15.333 -25 -28s-25.333 -24.334 -40 -35.001c-20 -14.667 -44.833 -22.5 -74.5 -23.5s-58.334 3.33301 -86.001 13s-51.5 23.5 -71.5 41.5s-30.333 38 -31 60
c-2 44.667 10 79 36 103s61.333 42.667 106 56c24 7.33301 43.5 13.833 58.5 19.5s27.833 11.5 38.5 17.5s19.834 12.5 27.501 19.5s15.5 15.167 23.5 24.5c-0.666992 8.66699 -3.5 17.834 -8.5 27.501s-11.5 18.334 -19.5 26.001s-17.167 13.667 -27.5 18
s-21.5 5.5 -33.5 3.5c-23.333 -4 -44.666 -14.833 -63.999 -32.5s-29.333 -43.834 -30 -78.501c-8 -0.666992 -17.667 -1.66699 -29 -3s-23 -4.33301 -35 -9c0.666992 23.333 -1.16602 50.5 -5.49902 81.5s-10.833 57.5 -19.5 79.5c4.66699 0 14 1.33301 28 4
s23.333 6 28 10c0.666992 -4 2.33398 -9.16699 5.00098 -15.5s7.5 -11.5 14.5 -15.5s16.5 -5.83301 28.5 -5.5s27 5.16602 45 14.499c27.333 13.333 57.166 16.333 89.499 9s62.5 -27.333 90.5 -60c22 32.667 46.833 58.667 74.5 78s53.834 29.333 78.501 30
c29.333 1.33301 55.666 -4.66699 78.999 -18s43.333 -32 60 -56s29.5 -51.667 38.5 -83s14.167 -64.333 15.5 -99c-11.333 -2 -30.5 -4.16699 -57.5 -6.5s-55.667 -4.66602 -86 -6.99902s-59.333 -4.83301 -87 -7.5s-48.5 -5.33398 -62.5 -8.00098
c-0.666992 -34.667 3.33301 -64.167 12 -88.5s19.667 -43.833 33 -58.5s27.833 -25 43.5 -31s30.5 -8 44.5 -6s27.167 8.16699 39.5 18.5s23.333 22.333 33 36s17.334 28.167 23.001 43.5s8.83398 29.333 9.50098 42l32.5 5.5c10.333 1.66699 20.166 5.5 29.499 11.5
c-0.666992 -14.667 -1 -29.667 -1 -45s0.833008 -30.5 2.5 -45.5s4.83398 -29.5 9.50098 -43.5s11.667 -26.667 21 -38zM613.994 308c2.66699 41.333 -4.66895 75.998 -22.002 103.998s-37.666 42.333 -60.999 43c-11.333 0.666992 -23 -3.16602 -35 -11.499
s-22.833 -20.333 -32.5 -36s-17.667 -34.167 -24 -55.5s-10.166 -44.666 -11.499 -69.999c34.667 2.66699 68 6.16699 100 10.5s60.667 9.5 86 15.5zM327.991 115.998c-6.66699 13.333 -11.5 26.502 -14.5 39.502s-4.16699 28.833 -3.5 47.5
c0.666992 11.333 1.16699 24.333 1.5 39s1.83301 27.334 4.5 38.001c-10.667 -10 -24.834 -19.833 -42.501 -29.5s-38.167 -19.5 -61.5 -29.5c-14.667 -6 -28.167 -15.167 -40.5 -27.5s-21.666 -26 -27.999 -41s-9.16602 -30.5 -8.49902 -46.5s6.66699 -30.333 18 -43
c8.66699 -10 20.5 -15.833 35.5 -17.5s31 0.166016 48 5.49902s33.667 13.666 50 24.999s30.166 24.666 41.499 39.999z" />
    <glyph glyph-name="ccedilla" unicode="&#xe7;" horiz-adv-x="482" 
d="M459 487c-7.33301 -12.667 -13.166 -28.5059 -17.499 -47.5059s-7.5 -38.667 -9.5 -59s-2.66699 -40 -2 -59s2.66699 -34.833 6 -47.5c-5.33301 0 -16 -0.333008 -32 -1s-28.333 -1.66699 -37 -3c0 12.667 -0.5 28.667 -1.5 48s-4.16699 38.166 -9.5 56.499
s-13.333 34.166 -24 47.499s-25.667 20.666 -45 21.999c-19.333 0.666992 -37 -5.16602 -53 -17.499s-29.833 -27.5 -41.5 -45.5s-20.834 -37.167 -27.501 -57.5s-10.334 -38.166 -11.001 -53.499s1.33301 -34 6 -56s12 -43.167 22 -63.5s22.833 -37.333 38.5 -51
s34.5 -19.834 56.5 -18.501c21.333 2 40.5 6.66699 57.5 14s31.5 15.833 43.5 25.5s21.833 19 29.5 28s13.167 16.167 16.5 21.5c1.33301 -2.66699 5 -8.5 11 -17.5s11 -14.833 15 -17.5l-28 -33.5c-10.667 -12.333 -22.834 -24.166 -36.501 -35.499
s-28.667 -21.5 -45 -30.5s-34.5 -14.833 -54.5 -17.5l-11 -25c4.66699 1.33301 11.334 1.83301 20.001 1.5s17.334 -2.16602 26.001 -5.49902s16.334 -9 23.001 -17s10.667 -18.667 12 -32c1.33301 -17.333 -3.33398 -30.333 -14.001 -39s-23.834 -14.334 -39.501 -17.001
s-31.834 -2.83398 -48.501 -0.500977s-30 5.83301 -40 10.5l5 9.5c3.33301 6.33301 5 12.833 5 19.5c6 -4 13.333 -6.83301 22 -8.5s17.167 -2.16699 25.5 -1.5s15.666 2.83398 21.999 6.50098s9.5 9.16699 9.5 16.5c0.666992 14.667 -8.66602 23.334 -27.999 26.001
s-39.666 0.666992 -60.999 -6l17 69c-45.333 8.66699 -82 23.834 -110 45.501s-49.5 45.5 -64.5 71.5s-24.833 52 -29.5 78s-6.33398 48.333 -5.00098 67s7.16602 40.834 17.499 66.501s25.833 49.334 46.5 71.001s46.5 38.834 77.5 51.501s67.5 15 109.5 7
c29.333 -5.33301 51.833 -8.66602 67.5 -9.99902s27.334 -1 35.001 1s12.667 5.33301 15 10s4.83301 10 7.5 16c8.66699 -2.66699 18.834 -5.16699 30.501 -7.5s21.834 -4.16602 30.501 -5.49902z" />
    <glyph glyph-name="eth" unicode="&#xf0;" 
d="M353 401c0 -20.667 -3.83301 -40 -11.5 -58s-18.334 -33.667 -32.001 -47s-29.5 -23.833 -47.5 -31.5s-37.333 -11.5 -58 -11.5s-40 3.83301 -58 11.5s-33.667 18.167 -47 31.5s-23.833 29 -31.5 47s-11.5 37.333 -11.5 58s3.83301 40 11.5 58s18.167 33.667 31.5 47
s29 23.833 47 31.5s37.333 11.5 58 11.5s40 -3.83301 58 -11.5s33.833 -18.167 47.5 -31.5s24.334 -29 32.001 -47s11.5 -37.333 11.5 -58zM308 401c0 28.667 -10 53.167 -30 73.5s-44.667 30.5 -74 30.5c-28.667 0 -53.167 -10.167 -73.5 -30.5s-30.5 -44.833 -30.5 -73.5
s10.167 -53.167 30.5 -73.5s44.833 -30.5 73.5 -30.5c29.333 0 54 10.167 74 30.5s30 44.833 30 73.5z" />
    <glyph glyph-name="divide" unicode="&#xf7;" 
d="M353 401c0 -20.667 -3.83301 -40 -11.5 -58s-18.334 -33.667 -32.001 -47s-29.5 -23.833 -47.5 -31.5s-37.333 -11.5 -58 -11.5s-40 3.83301 -58 11.5s-33.667 18.167 -47 31.5s-23.833 29 -31.5 47s-11.5 37.333 -11.5 58s3.83301 40 11.5 58s18.167 33.667 31.5 47
s29 23.833 47 31.5s37.333 11.5 58 11.5s40 -3.83301 58 -11.5s33.833 -18.167 47.5 -31.5s24.334 -29 32.001 -47s11.5 -37.333 11.5 -58zM308 401c0 28.667 -10 53.167 -30 73.5s-44.667 30.5 -74 30.5c-28.667 0 -53.167 -10.167 -73.5 -30.5s-30.5 -44.833 -30.5 -73.5
s10.167 -53.167 30.5 -73.5s44.833 -30.5 73.5 -30.5c29.333 0 54 10.167 74 30.5s30 44.833 30 73.5z" />
    <glyph glyph-name="oslash" unicode="&#xf8;" horiz-adv-x="539" 
d="M515 275c3.33301 -26.667 1.5 -55.5029 -5.5 -86.5029s-19.167 -60.333 -36.5 -88s-40.166 -51.667 -68.499 -72s-62.5 -32.833 -102.5 -37.5c-26 -3.33301 -51 -3.5 -75 -0.5s-46.333 8.5 -67 16.5l-20.5 -32.5c-6.33301 -9.66699 -11.166 -17.834 -14.499 -24.501
c-3.33301 2 -8.5 3.83301 -15.5 5.5l-22 5c-7.66699 1.66699 -14.834 2.83398 -21.501 3.50098s-11 1 -13 1l24 33.5l27 39.5c-25.333 18.667 -45 41.334 -59 68.001s-21.333 54.667 -22 84c-0.666992 27.333 2.5 57.333 9.5 90s19.5 63.334 37.5 92.001
s42.667 53.334 74 74.001s70.666 33 117.999 37c21.333 2 41.5 1.5 60.5 -1.5s36.5 -7.83301 52.5 -14.5l14.5 28c4.33301 8.66699 8.16602 16.667 11.499 24l29 -8.5c19.333 -5.66699 43.333 -10.167 72 -13.5c-5.33301 -6 -13 -15.667 -23 -29l-35 -48
c20.667 -20 36.834 -42.667 48.501 -68s19.167 -51 22.5 -77zM340 403.997c-10 9.33301 -21.167 16.667 -33.5 22s-26.166 7 -41.499 5c-25.333 -3.33301 -46.333 -13.333 -63 -30s-29.834 -36 -39.501 -58s-16 -44.5 -19 -67.5s-3.5 -42.167 -1.5 -57.5
c1.33301 -12 4 -25.667 8 -41s9.66699 -30.333 17 -45l91 139zM405 254.998c-0.666992 8.66699 -2.66895 20.333 -6.00195 35s-8.33301 29.667 -15 45l-91.5 -130.5l-86.5 -128.5c12 -11.333 26 -20.5 42 -27.5s34 -9.83301 54 -8.5c21.333 1.33301 39 11 53 29
s24.833 38.833 32.5 62.5s12.834 47.167 15.501 70.5s3.33398 41 2.00098 53z" />
    <glyph glyph-name="yacute" unicode="&#xfd;" 
d="M353 401c0 -20.667 -3.83301 -40 -11.5 -58s-18.334 -33.667 -32.001 -47s-29.5 -23.833 -47.5 -31.5s-37.333 -11.5 -58 -11.5s-40 3.83301 -58 11.5s-33.667 18.167 -47 31.5s-23.833 29 -31.5 47s-11.5 37.333 -11.5 58s3.83301 40 11.5 58s18.167 33.667 31.5 47
s29 23.833 47 31.5s37.333 11.5 58 11.5s40 -3.83301 58 -11.5s33.833 -18.167 47.5 -31.5s24.334 -29 32.001 -47s11.5 -37.333 11.5 -58zM308 401c0 28.667 -10 53.167 -30 73.5s-44.667 30.5 -74 30.5c-28.667 0 -53.167 -10.167 -73.5 -30.5s-30.5 -44.833 -30.5 -73.5
s10.167 -53.167 30.5 -73.5s44.833 -30.5 73.5 -30.5c29.333 0 54 10.167 74 30.5s30 44.833 30 73.5z" />
    <glyph glyph-name="thorn" unicode="&#xfe;" 
d="M353 401c0 -20.667 -3.83301 -40 -11.5 -58s-18.334 -33.667 -32.001 -47s-29.5 -23.833 -47.5 -31.5s-37.333 -11.5 -58 -11.5s-40 3.83301 -58 11.5s-33.667 18.167 -47 31.5s-23.833 29 -31.5 47s-11.5 37.333 -11.5 58s3.83301 40 11.5 58s18.167 33.667 31.5 47
s29 23.833 47 31.5s37.333 11.5 58 11.5s40 -3.83301 58 -11.5s33.833 -18.167 47.5 -31.5s24.334 -29 32.001 -47s11.5 -37.333 11.5 -58zM308 401c0 28.667 -10 53.167 -30 73.5s-44.667 30.5 -74 30.5c-28.667 0 -53.167 -10.167 -73.5 -30.5s-30.5 -44.833 -30.5 -73.5
s10.167 -53.167 30.5 -73.5s44.833 -30.5 73.5 -30.5c29.333 0 54 10.167 74 30.5s30 44.833 30 73.5z" />
    <glyph glyph-name="dotlessi" unicode="&#x131;" horiz-adv-x="252" 
d="M229 56c-0.666992 -2.66699 -1.99805 -9.99805 -3.99805 -21.998s-2.66699 -21.333 -2 -28c-31.333 4.66699 -61.666 5.5 -90.999 2.5s-61.333 -8.16699 -96 -15.5c2.66699 17.333 2.16699 34.333 -1.5 51l-5.5 25c22 3.33301 37.333 12.166 46 26.499
s14.667 30.833 18 49.5c2 12 3.66699 26.333 5 43s2.16602 33 2.49902 49s0.5 31 0.5 45s-0.333008 24.667 -1 32c-0.666992 13.333 -4.5 26.666 -11.5 39.999s-23.833 19.333 -50.5 18c1.33301 19.333 -1 37 -7 53l-9 24c13.333 0 28.666 1 45.999 3
s34.166 4.33301 50.499 7s31.333 5.66699 45 9s23.5 6.33301 29.5 9c-4 -14 -7.5 -37.667 -10.5 -71s-5.5 -67.833 -7.5 -103.5s-3.5 -68.5 -4.5 -98.5s-1.16699 -49 -0.5 -57c0 -8 1 -17 3 -27s5.16699 -19.5 9.5 -28.5s10.333 -16.833 18 -23.5s17.167 -10.667 28.5 -12z
" />
    <glyph glyph-name="Lslash" unicode="&#x141;" 
d="M353 401c0 -20.667 -3.83301 -40 -11.5 -58s-18.334 -33.667 -32.001 -47s-29.5 -23.833 -47.5 -31.5s-37.333 -11.5 -58 -11.5s-40 3.83301 -58 11.5s-33.667 18.167 -47 31.5s-23.833 29 -31.5 47s-11.5 37.333 -11.5 58s3.83301 40 11.5 58s18.167 33.667 31.5 47
s29 23.833 47 31.5s37.333 11.5 58 11.5s40 -3.83301 58 -11.5s33.833 -18.167 47.5 -31.5s24.334 -29 32.001 -47s11.5 -37.333 11.5 -58zM308 401c0 28.667 -10 53.167 -30 73.5s-44.667 30.5 -74 30.5c-28.667 0 -53.167 -10.167 -73.5 -30.5s-30.5 -44.833 -30.5 -73.5
s10.167 -53.167 30.5 -73.5s44.833 -30.5 73.5 -30.5c29.333 0 54 10.167 74 30.5s30 44.833 30 73.5z" />
    <glyph glyph-name="lslash" unicode="&#x142;" 
d="M353 401c0 -20.667 -3.83301 -40 -11.5 -58s-18.334 -33.667 -32.001 -47s-29.5 -23.833 -47.5 -31.5s-37.333 -11.5 -58 -11.5s-40 3.83301 -58 11.5s-33.667 18.167 -47 31.5s-23.833 29 -31.5 47s-11.5 37.333 -11.5 58s3.83301 40 11.5 58s18.167 33.667 31.5 47
s29 23.833 47 31.5s37.333 11.5 58 11.5s40 -3.83301 58 -11.5s33.833 -18.167 47.5 -31.5s24.334 -29 32.001 -47s11.5 -37.333 11.5 -58zM308 401c0 28.667 -10 53.167 -30 73.5s-44.667 30.5 -74 30.5c-28.667 0 -53.167 -10.167 -73.5 -30.5s-30.5 -44.833 -30.5 -73.5
s10.167 -53.167 30.5 -73.5s44.833 -30.5 73.5 -30.5c29.333 0 54 10.167 74 30.5s30 44.833 30 73.5z" />
    <glyph glyph-name="OE" unicode="&#x152;" horiz-adv-x="974" 
d="M952 244l0.507812 -0.508789c0.333008 -0.333008 0 -7.33301 -1 -21s-2.83301 -37 -5.5 -70s-7.33398 -82.167 -14.001 -147.5c-20.667 4.66699 -50 8.16699 -88 10.5s-78.833 3.83301 -122.5 4.5s-87.334 0.833984 -131.001 0.500977s-81.5 -1.16602 -113.5 -2.49902
c-20.667 -12 -43.334 -21.667 -68.001 -29s-50.667 -11.333 -78 -12c-18 -0.666992 -40.833 3.5 -68.5 12.5s-56 22.5 -85 40.5s-56.167 40.667 -81.5 68s-44.5 59.166 -57.5 95.499s-17.667 77 -14 122s20.5 94.5 50.5 148.5c12 22 26.833 45.167 44.5 69.5
s38 46.666 61 66.999s48.667 37.333 77 51s59.5 20.834 93.5 21.501c14.667 0.666992 35.667 -2.66602 63 -9.99902s55.333 -21 84 -41c0.666992 8 0.833984 17 0.500977 27s-0.833008 19.667 -1.5 29c20.667 -3.33301 43.667 -5.16602 69 -5.49902s50.5 0.166992 75.5 1.5
s49.167 3 72.5 5s44 4 62 6l19.5 1.5c13 1 27.833 1.83301 44.5 2.5s33.167 0.666992 49.5 0s28.166 -2.66699 35.499 -6c-4 -16 -6.83301 -33.667 -8.5 -53s-2.5 -38.166 -2.5 -56.499s1 -35.333 3 -51s4.33301 -27.5 7 -35.5l-20 -2.5
c-13.333 -1.66699 -26.333 -6.16699 -39 -13.5c-4.66699 22 -9.5 40 -14.5 54s-10.333 25.5 -16 34.5s-11.667 16.5 -18 22.5s-13.5 11.667 -21.5 17c-0.666992 0.666992 -4.83398 2.33398 -12.501 5.00098s-22.667 4 -45 4s-52.166 -4 -89.499 -12l-11 -226
c32.667 -1.33301 58 6.16699 76 22.5s27 45.833 27 88.5c10.667 -4.66699 23.167 -8.5 37.5 -11.5s25.5 -5.5 33.5 -7.5l-1.5 -11.5c-1 -7.66699 -2.33301 -20.667 -4 -39s-3.16699 -42.666 -4.5 -72.999s-2.33301 -68.166 -3 -113.499
c-6.66699 -0.666992 -16.834 -3 -30.501 -7l-33.5 -10c2.66699 22.667 0.166992 41 -7.5 55s-17.167 24.5 -28.5 31.5s-23.166 11 -35.499 12s-21.833 -0.166992 -28.5 -3.5c-1.33301 -12.667 -2.33301 -30 -3 -52s-0.833984 -44.5 -0.500977 -67.5
s0.666016 -43.833 0.999023 -62.5s0.833008 -31 1.5 -37c55.333 -2 98.666 -1.33301 129.999 2s55 11.333 71 24s26.167 30.334 30.5 53.001s7.16602 52.334 8.49902 89.001c35.333 -3.33301 61.666 -6 78.999 -8zM511.008 347.991
c-4.66699 33.333 -12.498 65.6689 -23.498 97.002s-23.833 59.166 -38.5 83.499s-30.334 44.166 -47.001 59.499s-33.334 23.333 -50.001 24s-34 -6 -52 -20s-35.333 -31.5 -52 -52.5s-31.334 -43.833 -44.001 -68.5s-21.667 -47 -27 -67c-14 -52 -20 -97.167 -18 -135.5
s9 -71 21 -98s27.833 -49 47.5 -66s39.834 -29.833 60.501 -38.5s40.667 -14 60 -16s35 -1.33301 47 2c16.667 4 33 15.167 49 33.5s29.833 41.166 41.5 68.499s20 57.833 25 91.5s5.16699 67.834 0.5 102.501z" />
    <glyph glyph-name="oe" unicode="&#x153;" horiz-adv-x="843" 
d="M821 27c-8 -4 -19.5049 -9.16797 -34.5049 -15.501s-25.167 -13.166 -30.5 -20.499c-3.33301 20.667 -10 32.334 -20 35.001s-23.667 -1 -41 -11c-18 -10.667 -31.833 -18.167 -41.5 -22.5s-23.167 -6.83301 -40.5 -7.5c-10.667 0 -24 1.66699 -40 5
s-33 8.66602 -51 15.999s-36 16.833 -54 28.5s-34 25.5 -48 41.5c-17.333 -18.667 -36.666 -34.834 -57.999 -48.501s-48.333 -22.5 -81 -26.5c-35.333 -4 -68.166 -2.5 -98.499 4.5s-57 18.667 -80 35s-41.5 36.5 -55.5 60.5s-22 50.667 -24 80s-0.333008 60.666 5 93.999
s16.333 64.5 33 93.5s40 53.833 70 74.5s68.667 33 116 37c44.667 4 81.834 -1.83301 111.501 -17.5s54.834 -36.5 75.501 -62.5c22 33.333 47.167 60 75.5 80s54.833 30.333 79.5 31c29.333 1.33301 56.166 -5.16699 80.499 -19.5s45.333 -33.666 63 -57.999
s31.667 -52.666 42 -84.999s15.833 -65.833 16.5 -100.5c-16.667 0 -39.167 -0.833008 -67.5 -2.5s-57.666 -3.5 -87.999 -5.5s-58.833 -4.16699 -85.5 -6.5s-47 -4.83301 -61 -7.5c-0.666992 -34.667 3.33301 -64.167 12 -88.5s19.667 -43.833 33 -58.5s28 -25 44 -31
s31 -8 45 -6c13.333 2 26.166 8.16699 38.499 18.5s23.333 22.333 33 36s17.334 28.167 23.001 43.5s8.83398 29.333 9.50098 42l32.5 5.5c10.333 1.66699 20.166 5.5 29.499 11.5c-0.666992 -14.667 -1 -29.667 -1 -45s1 -30.5 3 -45.5s5.33301 -29.5 10 -43.5
s11.334 -26.667 20.001 -38zM676.995 307.999c1.33301 20.667 0.166016 39.998 -3.50098 57.998s-9.16699 33.5 -16.5 46.5s-16 23.333 -26 31s-21 11.5 -33 11.5c-12 0.666992 -23.833 -3.16602 -35.5 -11.499s-22.5 -20.333 -32.5 -36s-18.167 -34.167 -24.5 -55.5
s-10.166 -44.666 -11.499 -69.999c34.667 2.66699 67.667 6.16699 99 10.5s59.333 9.5 84 15.5zM390.995 254.997c-1.33301 12 -4.83301 28.498 -10.5 49.498s-14.167 41.333 -25.5 61s-25.5 36.167 -42.5 49.5s-37.5 18.666 -61.5 15.999
c-26 -3.33301 -47.333 -13.166 -64 -29.499s-29.667 -35.5 -39 -57.5s-15.5 -44.5 -18.5 -67.5s-3.83301 -42.5 -2.5 -58.5c2 -16 6.33301 -34.167 13 -54.5s16.5 -39.5 29.5 -57.5s29.167 -33 48.5 -45s42.666 -17 69.999 -15c21.333 1.33301 38.833 10.833 52.5 28.5
s24.5 37.834 32.5 60.501s13.333 45.334 16 68.001s3.33398 40 2.00098 52z" />
    <glyph glyph-name="Scaron" unicode="&#x160;" 
d="M353 401c0 -20.667 -3.83301 -40 -11.5 -58s-18.334 -33.667 -32.001 -47s-29.5 -23.833 -47.5 -31.5s-37.333 -11.5 -58 -11.5s-40 3.83301 -58 11.5s-33.667 18.167 -47 31.5s-23.833 29 -31.5 47s-11.5 37.333 -11.5 58s3.83301 40 11.5 58s18.167 33.667 31.5 47
s29 23.833 47 31.5s37.333 11.5 58 11.5s40 -3.83301 58 -11.5s33.833 -18.167 47.5 -31.5s24.334 -29 32.001 -47s11.5 -37.333 11.5 -58zM308 401c0 28.667 -10 53.167 -30 73.5s-44.667 30.5 -74 30.5c-28.667 0 -53.167 -10.167 -73.5 -30.5s-30.5 -44.833 -30.5 -73.5
s10.167 -53.167 30.5 -73.5s44.833 -30.5 73.5 -30.5c29.333 0 54 10.167 74 30.5s30 44.833 30 73.5z" />
    <glyph glyph-name="scaron" unicode="&#x161;" 
d="M353 401c0 -20.667 -3.83301 -40 -11.5 -58s-18.334 -33.667 -32.001 -47s-29.5 -23.833 -47.5 -31.5s-37.333 -11.5 -58 -11.5s-40 3.83301 -58 11.5s-33.667 18.167 -47 31.5s-23.833 29 -31.5 47s-11.5 37.333 -11.5 58s3.83301 40 11.5 58s18.167 33.667 31.5 47
s29 23.833 47 31.5s37.333 11.5 58 11.5s40 -3.83301 58 -11.5s33.833 -18.167 47.5 -31.5s24.334 -29 32.001 -47s11.5 -37.333 11.5 -58zM308 401c0 28.667 -10 53.167 -30 73.5s-44.667 30.5 -74 30.5c-28.667 0 -53.167 -10.167 -73.5 -30.5s-30.5 -44.833 -30.5 -73.5
s10.167 -53.167 30.5 -73.5s44.833 -30.5 73.5 -30.5c29.333 0 54 10.167 74 30.5s30 44.833 30 73.5z" />
    <glyph glyph-name="Zcaron" unicode="&#x17d;" 
d="M353 401c0 -20.667 -3.83301 -40 -11.5 -58s-18.334 -33.667 -32.001 -47s-29.5 -23.833 -47.5 -31.5s-37.333 -11.5 -58 -11.5s-40 3.83301 -58 11.5s-33.667 18.167 -47 31.5s-23.833 29 -31.5 47s-11.5 37.333 -11.5 58s3.83301 40 11.5 58s18.167 33.667 31.5 47
s29 23.833 47 31.5s37.333 11.5 58 11.5s40 -3.83301 58 -11.5s33.833 -18.167 47.5 -31.5s24.334 -29 32.001 -47s11.5 -37.333 11.5 -58zM308 401c0 28.667 -10 53.167 -30 73.5s-44.667 30.5 -74 30.5c-28.667 0 -53.167 -10.167 -73.5 -30.5s-30.5 -44.833 -30.5 -73.5
s10.167 -53.167 30.5 -73.5s44.833 -30.5 73.5 -30.5c29.333 0 54 10.167 74 30.5s30 44.833 30 73.5z" />
    <glyph glyph-name="zcaron" unicode="&#x17e;" 
d="M353 401c0 -20.667 -3.83301 -40 -11.5 -58s-18.334 -33.667 -32.001 -47s-29.5 -23.833 -47.5 -31.5s-37.333 -11.5 -58 -11.5s-40 3.83301 -58 11.5s-33.667 18.167 -47 31.5s-23.833 29 -31.5 47s-11.5 37.333 -11.5 58s3.83301 40 11.5 58s18.167 33.667 31.5 47
s29 23.833 47 31.5s37.333 11.5 58 11.5s40 -3.83301 58 -11.5s33.833 -18.167 47.5 -31.5s24.334 -29 32.001 -47s11.5 -37.333 11.5 -58zM308 401c0 28.667 -10 53.167 -30 73.5s-44.667 30.5 -74 30.5c-28.667 0 -53.167 -10.167 -73.5 -30.5s-30.5 -44.833 -30.5 -73.5
s10.167 -53.167 30.5 -73.5s44.833 -30.5 73.5 -30.5c29.333 0 54 10.167 74 30.5s30 44.833 30 73.5z" />
    <glyph glyph-name="florin" unicode="&#x192;" 
d="M353 401c0 -20.667 -3.83301 -40 -11.5 -58s-18.334 -33.667 -32.001 -47s-29.5 -23.833 -47.5 -31.5s-37.333 -11.5 -58 -11.5s-40 3.83301 -58 11.5s-33.667 18.167 -47 31.5s-23.833 29 -31.5 47s-11.5 37.333 -11.5 58s3.83301 40 11.5 58s18.167 33.667 31.5 47
s29 23.833 47 31.5s37.333 11.5 58 11.5s40 -3.83301 58 -11.5s33.833 -18.167 47.5 -31.5s24.334 -29 32.001 -47s11.5 -37.333 11.5 -58zM308 401c0 28.667 -10 53.167 -30 73.5s-44.667 30.5 -74 30.5c-28.667 0 -53.167 -10.167 -73.5 -30.5s-30.5 -44.833 -30.5 -73.5
s10.167 -53.167 30.5 -73.5s44.833 -30.5 73.5 -30.5c29.333 0 54 10.167 74 30.5s30 44.833 30 73.5z" />
    <glyph glyph-name="circumflex" unicode="&#x2c6;" 
d="M353 401c0 -20.667 -3.83301 -40 -11.5 -58s-18.334 -33.667 -32.001 -47s-29.5 -23.833 -47.5 -31.5s-37.333 -11.5 -58 -11.5s-40 3.83301 -58 11.5s-33.667 18.167 -47 31.5s-23.833 29 -31.5 47s-11.5 37.333 -11.5 58s3.83301 40 11.5 58s18.167 33.667 31.5 47
s29 23.833 47 31.5s37.333 11.5 58 11.5s40 -3.83301 58 -11.5s33.833 -18.167 47.5 -31.5s24.334 -29 32.001 -47s11.5 -37.333 11.5 -58zM308 401c0 28.667 -10 53.167 -30 73.5s-44.667 30.5 -74 30.5c-28.667 0 -53.167 -10.167 -73.5 -30.5s-30.5 -44.833 -30.5 -73.5
s10.167 -53.167 30.5 -73.5s44.833 -30.5 73.5 -30.5c29.333 0 54 10.167 74 30.5s30 44.833 30 73.5z" />
    <glyph glyph-name="caron" unicode="&#x2c7;" 
d="M353 401c0 -20.667 -3.83301 -40 -11.5 -58s-18.334 -33.667 -32.001 -47s-29.5 -23.833 -47.5 -31.5s-37.333 -11.5 -58 -11.5s-40 3.83301 -58 11.5s-33.667 18.167 -47 31.5s-23.833 29 -31.5 47s-11.5 37.333 -11.5 58s3.83301 40 11.5 58s18.167 33.667 31.5 47
s29 23.833 47 31.5s37.333 11.5 58 11.5s40 -3.83301 58 -11.5s33.833 -18.167 47.5 -31.5s24.334 -29 32.001 -47s11.5 -37.333 11.5 -58zM308 401c0 28.667 -10 53.167 -30 73.5s-44.667 30.5 -74 30.5c-28.667 0 -53.167 -10.167 -73.5 -30.5s-30.5 -44.833 -30.5 -73.5
s10.167 -53.167 30.5 -73.5s44.833 -30.5 73.5 -30.5c29.333 0 54 10.167 74 30.5s30 44.833 30 73.5z" />
    <glyph glyph-name="macron" unicode="&#x2c9;" 
d="M353 401c0 -20.667 -3.83301 -40 -11.5 -58s-18.334 -33.667 -32.001 -47s-29.5 -23.833 -47.5 -31.5s-37.333 -11.5 -58 -11.5s-40 3.83301 -58 11.5s-33.667 18.167 -47 31.5s-23.833 29 -31.5 47s-11.5 37.333 -11.5 58s3.83301 40 11.5 58s18.167 33.667 31.5 47
s29 23.833 47 31.5s37.333 11.5 58 11.5s40 -3.83301 58 -11.5s33.833 -18.167 47.5 -31.5s24.334 -29 32.001 -47s11.5 -37.333 11.5 -58zM308 401c0 28.667 -10 53.167 -30 73.5s-44.667 30.5 -74 30.5c-28.667 0 -53.167 -10.167 -73.5 -30.5s-30.5 -44.833 -30.5 -73.5
s10.167 -53.167 30.5 -73.5s44.833 -30.5 73.5 -30.5c29.333 0 54 10.167 74 30.5s30 44.833 30 73.5z" />
    <glyph glyph-name="breve" unicode="&#x2d8;" 
d="M353 401c0 -20.667 -3.83301 -40 -11.5 -58s-18.334 -33.667 -32.001 -47s-29.5 -23.833 -47.5 -31.5s-37.333 -11.5 -58 -11.5s-40 3.83301 -58 11.5s-33.667 18.167 -47 31.5s-23.833 29 -31.5 47s-11.5 37.333 -11.5 58s3.83301 40 11.5 58s18.167 33.667 31.5 47
s29 23.833 47 31.5s37.333 11.5 58 11.5s40 -3.83301 58 -11.5s33.833 -18.167 47.5 -31.5s24.334 -29 32.001 -47s11.5 -37.333 11.5 -58zM308 401c0 28.667 -10 53.167 -30 73.5s-44.667 30.5 -74 30.5c-28.667 0 -53.167 -10.167 -73.5 -30.5s-30.5 -44.833 -30.5 -73.5
s10.167 -53.167 30.5 -73.5s44.833 -30.5 73.5 -30.5c29.333 0 54 10.167 74 30.5s30 44.833 30 73.5z" />
    <glyph glyph-name="dotaccent" unicode="&#x2d9;" 
d="M353 401c0 -20.667 -3.83301 -40 -11.5 -58s-18.334 -33.667 -32.001 -47s-29.5 -23.833 -47.5 -31.5s-37.333 -11.5 -58 -11.5s-40 3.83301 -58 11.5s-33.667 18.167 -47 31.5s-23.833 29 -31.5 47s-11.5 37.333 -11.5 58s3.83301 40 11.5 58s18.167 33.667 31.5 47
s29 23.833 47 31.5s37.333 11.5 58 11.5s40 -3.83301 58 -11.5s33.833 -18.167 47.5 -31.5s24.334 -29 32.001 -47s11.5 -37.333 11.5 -58zM308 401c0 28.667 -10 53.167 -30 73.5s-44.667 30.5 -74 30.5c-28.667 0 -53.167 -10.167 -73.5 -30.5s-30.5 -44.833 -30.5 -73.5
s10.167 -53.167 30.5 -73.5s44.833 -30.5 73.5 -30.5c29.333 0 54 10.167 74 30.5s30 44.833 30 73.5z" />
    <glyph glyph-name="ring" unicode="&#x2da;" horiz-adv-x="218" 
d="M198 658c1.33301 -9.33301 0.669922 -19.501 -1.99707 -30.501s-7.16699 -21.5 -13.5 -31.5s-14.666 -18.667 -24.999 -26s-22.5 -12 -36.5 -14c-28.667 -3.33301 -52.334 2.5 -71.001 17.5s-28.667 33.167 -30 54.5c-0.666992 10.667 0.166016 21.834 2.49902 33.501
s7 22.667 14 33s16.167 19 27.5 26s25.666 11.167 42.999 12.5c27.333 2.66699 48.666 -4.33301 63.999 -21s24.333 -34.667 27 -54zM141.004 648.999c-0.666992 6.66699 -3.33594 16.3301 -8.00293 28.9971s-12.667 18.334 -24 17.001s-19 -8.83301 -23 -22.5
s-5.66699 -24.5 -5 -32.5s3.83398 -17.667 9.50098 -29s14.834 -16.333 27.501 -15c4.66699 0 8.66699 2.33301 12 7s5.83301 9.83398 7.5 15.501s2.83398 11.334 3.50098 17.001s0.666992 10.167 0 13.5z" />
    <glyph glyph-name="ogonek" unicode="&#x2db;" 
d="M353 401c0 -20.667 -3.83301 -40 -11.5 -58s-18.334 -33.667 -32.001 -47s-29.5 -23.833 -47.5 -31.5s-37.333 -11.5 -58 -11.5s-40 3.83301 -58 11.5s-33.667 18.167 -47 31.5s-23.833 29 -31.5 47s-11.5 37.333 -11.5 58s3.83301 40 11.5 58s18.167 33.667 31.5 47
s29 23.833 47 31.5s37.333 11.5 58 11.5s40 -3.83301 58 -11.5s33.833 -18.167 47.5 -31.5s24.334 -29 32.001 -47s11.5 -37.333 11.5 -58zM308 401c0 28.667 -10 53.167 -30 73.5s-44.667 30.5 -74 30.5c-28.667 0 -53.167 -10.167 -73.5 -30.5s-30.5 -44.833 -30.5 -73.5
s10.167 -53.167 30.5 -73.5s44.833 -30.5 73.5 -30.5c29.333 0 54 10.167 74 30.5s30 44.833 30 73.5z" />
    <glyph glyph-name="tilde" unicode="&#x2dc;" 
d="M353 401c0 -20.667 -3.83301 -40 -11.5 -58s-18.334 -33.667 -32.001 -47s-29.5 -23.833 -47.5 -31.5s-37.333 -11.5 -58 -11.5s-40 3.83301 -58 11.5s-33.667 18.167 -47 31.5s-23.833 29 -31.5 47s-11.5 37.333 -11.5 58s3.83301 40 11.5 58s18.167 33.667 31.5 47
s29 23.833 47 31.5s37.333 11.5 58 11.5s40 -3.83301 58 -11.5s33.833 -18.167 47.5 -31.5s24.334 -29 32.001 -47s11.5 -37.333 11.5 -58zM308 401c0 28.667 -10 53.167 -30 73.5s-44.667 30.5 -74 30.5c-28.667 0 -53.167 -10.167 -73.5 -30.5s-30.5 -44.833 -30.5 -73.5
s10.167 -53.167 30.5 -73.5s44.833 -30.5 73.5 -30.5c29.333 0 54 10.167 74 30.5s30 44.833 30 73.5z" />
    <glyph glyph-name="hungarumlaut" unicode="&#x2dd;" 
d="M353 401c0 -20.667 -3.83301 -40 -11.5 -58s-18.334 -33.667 -32.001 -47s-29.5 -23.833 -47.5 -31.5s-37.333 -11.5 -58 -11.5s-40 3.83301 -58 11.5s-33.667 18.167 -47 31.5s-23.833 29 -31.5 47s-11.5 37.333 -11.5 58s3.83301 40 11.5 58s18.167 33.667 31.5 47
s29 23.833 47 31.5s37.333 11.5 58 11.5s40 -3.83301 58 -11.5s33.833 -18.167 47.5 -31.5s24.334 -29 32.001 -47s11.5 -37.333 11.5 -58zM308 401c0 28.667 -10 53.167 -30 73.5s-44.667 30.5 -74 30.5c-28.667 0 -53.167 -10.167 -73.5 -30.5s-30.5 -44.833 -30.5 -73.5
s10.167 -53.167 30.5 -73.5s44.833 -30.5 73.5 -30.5c29.333 0 54 10.167 74 30.5s30 44.833 30 73.5z" />
    <glyph glyph-name="pi" unicode="&#x3c0;" 
d="M353 401c0 -20.667 -3.83301 -40 -11.5 -58s-18.334 -33.667 -32.001 -47s-29.5 -23.833 -47.5 -31.5s-37.333 -11.5 -58 -11.5s-40 3.83301 -58 11.5s-33.667 18.167 -47 31.5s-23.833 29 -31.5 47s-11.5 37.333 -11.5 58s3.83301 40 11.5 58s18.167 33.667 31.5 47
s29 23.833 47 31.5s37.333 11.5 58 11.5s40 -3.83301 58 -11.5s33.833 -18.167 47.5 -31.5s24.334 -29 32.001 -47s11.5 -37.333 11.5 -58zM308 401c0 28.667 -10 53.167 -30 73.5s-44.667 30.5 -74 30.5c-28.667 0 -53.167 -10.167 -73.5 -30.5s-30.5 -44.833 -30.5 -73.5
s10.167 -53.167 30.5 -73.5s44.833 -30.5 73.5 -30.5c29.333 0 54 10.167 74 30.5s30 44.833 30 73.5z" />
    <glyph glyph-name="endash" unicode="&#x2013;" horiz-adv-x="426" 
d="M403 247l-32.0029 3c-21.333 2 -49.666 3.66699 -84.999 5s-75.833 2 -121.5 2s-93.167 -2 -142.5 -6c0 1.33301 0.666992 6.5 2 15.5s2.66602 21 3.99902 36s2 29.167 2 42.5c26.667 -2 55.334 -3.33301 86.001 -4s61.834 -0.666992 93.501 0s63.334 2.16699 95.001 4.5
s62.167 5.83301 91.5 10.5v-18.5c0 -11 0.5 -25.333 1.5 -43s2.83301 -33.5 5.5 -47.5z" />
    <glyph glyph-name="emdash" unicode="&#x2014;" horiz-adv-x="529" 
d="M507 356c0 -1.33301 -0.666992 -7.66797 -2 -19.001s-2.33301 -26 -3 -44s-0.666992 -34 0 -48l-36 2.5c-24 1.66699 -57.5 3.33398 -100.5 5.00098s-93.667 2.66699 -152 3s-122.166 -1.16699 -191.499 -4.5c0 1.33301 0.666992 6.5 2 15.5s2.16602 21 2.49902 36
s-0.5 29.167 -2.5 42.5c26.667 -2 60.5 -3.33301 101.5 -4s84 -0.5 129 0.5s89.833 2.66699 134.5 5s84 5.5 118 9.5z" />
    <glyph glyph-name="quoteleft" unicode="&#x2018;" horiz-adv-x="184" 
d="M161 494c-4.66699 0 -11.832 -0.331055 -21.499 -0.998047s-20.167 -1.83398 -31.5 -3.50098s-22.5 -3.5 -33.5 -5.5s-20.5 -4 -28.5 -6c-14 36.667 -21.667 68.5 -23 95.5s1.5 50 8.5 69s16.667 34.5 29 46.5s25.166 21 38.499 27
c0.666992 -0.666992 2.33398 -3.83398 5.00098 -9.50098s7.66699 -12.334 15 -20.001s15.666 -12.834 24.999 -15.501c-11.333 -5.33301 -21.833 -15 -31.5 -29s-12.5 -29 -8.5 -45c8 0 17 1 27 3s18.667 4.33301 26 7c-0.666992 -5.33301 -1.16699 -13.166 -1.5 -23.499
s-0.333008 -21.166 0 -32.499s1 -22.333 2 -33s2.16699 -18.667 3.5 -24z" />
    <glyph glyph-name="quoteright" unicode="&#x2019;" horiz-adv-x="182" 
d="M142 706c10.667 -34 16.1631 -63.832 16.4961 -89.499s-2.66699 -47.834 -9 -66.501s-15.333 -34 -27 -46s-24.167 -21 -37.5 -27l-11 19c-7.33301 12.667 -18.666 21.334 -33.999 26.001c11.333 5.33301 21.833 14 31.5 26s12.834 24.333 9.50098 37l-18.5 1
c-12.333 0.666992 -23.833 0 -34.5 -2c1.33301 5.33301 2 13.5 2 24.5s-0.333008 22.667 -1 35s-1.66699 24 -3 35s-2.66602 19.167 -3.99902 24.5c34.667 -2.66699 63.334 -2.83398 86.001 -0.500977z" />
    <glyph glyph-name="quotesinglbase" unicode="&#x201a;" horiz-adv-x="182" 
d="M142 120c10.667 -34 16.165 -63.832 16.498 -89.499s-2.66699 -47.834 -9 -66.501s-15.333 -34 -27 -46s-24.167 -21 -37.5 -27c-0.666992 0.666992 -2.33398 3.83398 -5.00098 9.50098s-7.5 12.334 -14.5 20.001s-15.5 12.834 -25.5 15.501
c11.333 5.33301 21.833 14.166 31.5 26.499s12.834 24.5 9.50098 36.5l-18.5 1c-12.333 0.666992 -23.833 0 -34.5 -2c1.33301 5.33301 2 13.5 2 24.5s-0.333008 22.667 -1 35s-1.66699 24.166 -3 35.499s-2.66602 19.666 -3.99902 24.999
c34.667 -2.66699 63.334 -3 86.001 -1z" />
    <glyph glyph-name="quotedblleft" unicode="&#x201c;" horiz-adv-x="342" 
d="M320 487c-34.667 3.33301 -63.334 3.83105 -86.001 1.49805l-34 -3.5c-10.667 34 -16.334 63.833 -17.001 89.5s2.33301 47.834 9 66.501s15.834 34 27.501 46s24.167 21 37.5 27c0.666992 -0.666992 2.33398 -3.83398 5.00098 -9.50098s7.5 -12.5 14.5 -20.5
s15.5 -13.333 25.5 -16c-11.333 -5.33301 -21.833 -14 -31.5 -26s-13.167 -24 -10.5 -36l19 -1.5c12.667 -1 24.334 -0.166992 35.001 2.5c-1.33301 -5.33301 -2 -13.5 -2 -24.5s0.333008 -22.667 1 -35s1.66699 -24.166 3 -35.499s2.66602 -19.666 3.99902 -24.999z
M161 493.998c-4.66699 0 -11.832 -0.331055 -21.499 -0.998047s-20.167 -1.83398 -31.5 -3.50098s-22.5 -3.5 -33.5 -5.5s-20.5 -4 -28.5 -6c-14 36.667 -21.667 68.5 -23 95.5s1.5 50 8.5 69s16.667 34.5 29 46.5s25.166 21 38.499 27
c0.666992 -0.666992 2.33398 -3.83398 5.00098 -9.50098s7.66699 -12.334 15 -20.001s15.666 -12.834 24.999 -15.501c-11.333 -5.33301 -21.833 -15 -31.5 -29s-12.5 -29 -8.5 -45c8 0 17 1 27 3s18.667 4.33301 26 7c-0.666992 -5.33301 -1.16699 -13.166 -1.5 -23.499
s-0.333008 -21.166 0 -32.499s1 -22.333 2 -33s2.16699 -18.667 3.5 -24z" />
    <glyph glyph-name="quotedblright" unicode="&#x201d;" horiz-adv-x="342" 
d="M296 713c14 -36.667 21.5049 -68.501 22.5049 -95.501s-1.83301 -50 -8.5 -69s-16.334 -34.5 -29.001 -46.5s-25.334 -21 -38.001 -27l-11.5 19c-7.66699 12.667 -18.834 21.334 -33.501 26.001c11.333 5.33301 21.666 14.833 30.999 28.5s12.333 28.834 9 45.501
c-8.66699 0 -17.834 -1.16699 -27.501 -3.5s-18.167 -4.5 -25.5 -6.5c0.666992 5.33301 1.16699 13.166 1.5 23.499s0.166016 21.166 -0.500977 32.499s-1.5 22.333 -2.5 33s-1.83301 18.667 -2.5 24c4.66699 0 11.834 0.333008 21.501 1s20.167 1.83398 31.5 3.50098
s22.5 3.5 33.5 5.5s20.5 4 28.5 6zM142.005 705.999c10.667 -34 16.1631 -63.832 16.4961 -89.499s-2.66699 -47.834 -9 -66.501s-15.333 -34 -27 -46s-24.167 -21 -37.5 -27l-11 19c-7.33301 12.667 -18.666 21.334 -33.999 26.001c11.333 5.33301 21.833 14 31.5 26
s12.834 24.333 9.50098 37l-18.5 1c-12.333 0.666992 -23.833 0 -34.5 -2c1.33301 5.33301 2 13.5 2 24.5s-0.333008 22.667 -1 35s-1.66699 24 -3 35s-2.66602 19.167 -3.99902 24.5c34.667 -2.66699 63.334 -2.83398 86.001 -0.500977z" />
    <glyph glyph-name="quotedblbase" unicode="&#x201e;" horiz-adv-x="342" 
d="M296 127c14 -36.667 21.5049 -68.5 22.5049 -95.5s-1.83301 -50 -8.5 -69s-16.334 -34.5 -29.001 -46.5s-25.334 -21 -38.001 -27l-11.5 19c-7.66699 12.667 -18.834 21.334 -33.501 26.001c11.333 5.33301 21.666 15 30.999 29s12.333 29 9 45
c-8.66699 0 -17.834 -1.16699 -27.501 -3.5s-18.167 -4.5 -25.5 -6.5c0.666992 5.33301 1.16699 13.166 1.5 23.499s0.166016 21.166 -0.500977 32.499s-1.5 22.333 -2.5 33s-1.83301 18.667 -2.5 24c4.66699 0 11.834 0.333008 21.501 1s20.167 1.83398 31.5 3.50098
s22.5 3.5 33.5 5.5s20.5 4 28.5 6zM142.005 120c10.667 -34 16.165 -63.832 16.498 -89.499s-2.66699 -47.834 -9 -66.501s-15.333 -34 -27 -46s-24.167 -21 -37.5 -27c-0.666992 0.666992 -2.33398 3.83398 -5.00098 9.50098s-7.5 12.334 -14.5 20.001
s-15.5 12.834 -25.5 15.501c11.333 5.33301 21.833 14.166 31.5 26.499s12.834 24.5 9.50098 36.5l-18.5 1c-12.333 0.666992 -23.833 0 -34.5 -2c1.33301 5.33301 2 13.5 2 24.5s-0.333008 22.667 -1 35s-1.66699 24.166 -3 35.499s-2.66602 19.666 -3.99902 24.999
c34.667 -2.66699 63.334 -3 86.001 -1z" />
    <glyph glyph-name="dagger" unicode="&#x2020;" horiz-adv-x="243" 
d="M221 594l-19.501 2.00195c-13 1.33301 -29.5 2.33301 -49.5 3c0 -20 0.166992 -41.5 0.5 -64.5s1.5 -46.833 3.5 -71.5l-20 1.5c-13.333 1 -28.666 1.83301 -45.999 2.5c1.33301 18 2 38.667 2 62s-0.333008 47 -1 71c-24 0 -47 -1 -69 -3l2 18.5
c1.33301 12.333 2.33301 26.166 3 41.499c11.333 -0.666992 21.833 -1.16699 31.5 -1.5s19.167 -0.5 28.5 -0.5c-0.666992 11.333 -1.66699 22 -3 32s-2.66602 19.333 -3.99902 28l24.5 0.5c16.333 0.333008 33.833 2.16602 52.5 5.49902l-1.5 -17
c-1 -11.333 -1.83301 -27 -2.5 -47c10 0.666992 20.167 1.66699 30.5 3s21.166 3 32.499 5l0.5 -22.5c0.333008 -15 1.83301 -31.167 4.5 -48.5z" />
    <glyph glyph-name="daggerdbl" unicode="&#x2021;" 
d="M353 401c0 -20.667 -3.83301 -40 -11.5 -58s-18.334 -33.667 -32.001 -47s-29.5 -23.833 -47.5 -31.5s-37.333 -11.5 -58 -11.5s-40 3.83301 -58 11.5s-33.667 18.167 -47 31.5s-23.833 29 -31.5 47s-11.5 37.333 -11.5 58s3.83301 40 11.5 58s18.167 33.667 31.5 47
s29 23.833 47 31.5s37.333 11.5 58 11.5s40 -3.83301 58 -11.5s33.833 -18.167 47.5 -31.5s24.334 -29 32.001 -47s11.5 -37.333 11.5 -58zM308 401c0 28.667 -10 53.167 -30 73.5s-44.667 30.5 -74 30.5c-28.667 0 -53.167 -10.167 -73.5 -30.5s-30.5 -44.833 -30.5 -73.5
s10.167 -53.167 30.5 -73.5s44.833 -30.5 73.5 -30.5c29.333 0 54 10.167 74 30.5s30 44.833 30 73.5z" />
    <glyph glyph-name="bullet" unicode="&#x2022;" horiz-adv-x="242" 
d="M218 371c2 -6.66699 1.66699 -17.335 -1 -32.002s-8.5 -28.667 -17.5 -42s-21.5 -23.666 -37.5 -30.999s-36.667 -7 -62 1c-14 4.66699 -28.833 12.334 -44.5 23.001s-26.167 25.667 -31.5 45c-1.33301 4.66699 -1.66602 12.5 -0.999023 23.5s4 22.167 10 33.5
s15.833 21.833 29.5 31.5s32.5 16.167 56.5 19.5c11.333 1.33301 22.333 0 33 -4s20.667 -9.66699 30 -17s17.166 -15.5 23.499 -24.5s10.5 -17.833 12.5 -26.5z" />
    <glyph glyph-name="ellipsis" unicode="&#x2026;" horiz-adv-x="529" 
d="M506 51c0.666992 -4 0.166016 -10.333 -1.50098 -19s-5.16699 -16.834 -10.5 -24.501s-12.666 -13.667 -21.999 -18s-21.666 -4.16602 -36.999 0.500977c-8 2.66699 -16.667 7.16699 -26 13.5s-15.333 15.166 -18 26.499
c-0.666992 2.66699 -0.833984 7.33398 -0.500977 14.001s2.33301 13.334 6 20.001s9.5 12.834 17.5 18.501s19 9.5 33 11.5c12.667 1.33301 25 -2.83398 37 -12.501s19.333 -19.834 22 -30.501zM315.999 59c1.33301 -4 1.16797 -10.1709 -0.499023 -18.5039
s-5.33398 -16.5 -11.001 -24.5s-13.167 -14.167 -22.5 -18.5s-21.666 -4.16602 -36.999 0.500977c-8 2.66699 -16.667 7.33398 -26 14.001s-15.333 15.334 -18 26.001c-0.666992 2.66699 -0.833984 7.33398 -0.500977 14.001s2.33301 13.334 6 20.001
s9.5 12.834 17.5 18.501s19 9.5 33 11.5c12.667 1.33301 25 -2.83398 37 -12.501s19.333 -19.834 22 -30.501zM134.001 50.9961c1.33301 -4 1.16797 -10.168 -0.499023 -18.501s-5 -16.333 -10 -24s-12.167 -13.667 -21.5 -18s-21.333 -4.16602 -36 0.500977
c-8 2.66699 -16.5 7.16699 -25.5 13.5s-14.833 14.833 -17.5 25.5c-0.666992 2.66699 -0.833984 7.16699 -0.500977 13.5s2.33301 12.833 6 19.5s9.16699 12.667 16.5 18s18 9 32 11c12.667 1.33301 24.667 -2.66699 36 -12s18.333 -19 21 -29z" />
    <glyph glyph-name="perthousand" unicode="&#x2030;" horiz-adv-x="790" 
d="M768 -43c-5.33301 -12.667 -9.99609 -29.1621 -13.9961 -49.4951s-4 -36.166 0 -47.499c-9.33301 -3.33301 -25.333 -4.83301 -48 -4.5s-47 1.66602 -73 3.99902s-51.5 5.5 -76.5 9.5s-44.5 8 -58.5 12c1.33301 18.667 1.5 40.834 0.5 66.501s-4 52.334 -9 80.001
s-12.5 54.667 -22.5 81s-23.333 49.166 -40 68.499s-37 33.833 -61 43.5s-52.667 11.5 -86 5.5l-17 -2c-11.333 -1.33301 -22 -3.66602 -32 -6.99902c11.333 -87.333 5.66602 -153.833 -17.001 -199.5s-60.667 -74.834 -114 -87.501
c-7.33301 42.667 -15.833 75.5 -25.5 98.5l-14.5 34.5c10 4 19.167 8.5 27.5 13.5s15.666 12.5 21.999 22.5s11.5 23.5 15.5 40.5s6.33301 39.5 7 67.5c0.666992 20 0.166992 48 -1.5 84s-3.66699 73 -6 111s-5 73.167 -8 105.5s-5.5 54.833 -7.5 67.5
c-3.33301 19.333 -10.666 30.166 -21.999 32.499s-24 1.5 -38 -2.5c-4.66699 27.333 -10.334 47.333 -17.001 60l-10 19c18.667 2 37.167 4.83301 55.5 8.5l60 12.5l71.5 15c26 5.33301 55.667 10.666 89 15.999c34 5.33301 68 4.5 102 -2.5s65 -19.167 93 -36.5
s51.833 -39.5 71.5 -66.5s32.834 -57.833 39.501 -92.5c6 -29.333 6.16699 -58.333 0.5 -87s-16.334 -55.334 -32.001 -80.001s-35.667 -46.5 -60 -65.5s-52.5 -33.5 -84.5 -43.5c32.667 -4 58.167 -17.333 76.5 -40s33.166 -48.334 44.499 -77.001
s20.666 -57.167 27.999 -85.5s16.333 -49.5 27 -63.5c11.333 -14.667 23 -25.334 35 -32.001s24.667 -10.834 38 -12.501s27.5 -1.66699 42.5 0zM475.004 562.005c-16 32 -33.6709 56.335 -53.0039 73.002s-41.166 27 -65.499 31s-51.5 2.5 -81.5 -4.5
s-63.333 -17.833 -100 -32.5l2.5 -11.5c1.66699 -7.66699 4.5 -23.834 8.5 -48.501s9.33301 -59.834 16 -105.501s15 -106.834 25 -183.501c30.667 2.66699 61.834 7.33398 93.501 14.001s67.834 19.667 108.501 39c24 12 41.667 27 53 45s18 37.5 20 58.5
s0.333008 42.333 -5 64s-12.666 42.167 -21.999 61.5z" />
    <glyph glyph-name="guilsinglleft" unicode="&#x2039;" 
d="M353 401c0 -20.667 -3.83301 -40 -11.5 -58s-18.334 -33.667 -32.001 -47s-29.5 -23.833 -47.5 -31.5s-37.333 -11.5 -58 -11.5s-40 3.83301 -58 11.5s-33.667 18.167 -47 31.5s-23.833 29 -31.5 47s-11.5 37.333 -11.5 58s3.83301 40 11.5 58s18.167 33.667 31.5 47
s29 23.833 47 31.5s37.333 11.5 58 11.5s40 -3.83301 58 -11.5s33.833 -18.167 47.5 -31.5s24.334 -29 32.001 -47s11.5 -37.333 11.5 -58zM308 401c0 28.667 -10 53.167 -30 73.5s-44.667 30.5 -74 30.5c-28.667 0 -53.167 -10.167 -73.5 -30.5s-30.5 -44.833 -30.5 -73.5
s10.167 -53.167 30.5 -73.5s44.833 -30.5 73.5 -30.5c29.333 0 54 10.167 74 30.5s30 44.833 30 73.5z" />
    <glyph glyph-name="guilsinglright" unicode="&#x203a;" 
d="M353 401c0 -20.667 -3.83301 -40 -11.5 -58s-18.334 -33.667 -32.001 -47s-29.5 -23.833 -47.5 -31.5s-37.333 -11.5 -58 -11.5s-40 3.83301 -58 11.5s-33.667 18.167 -47 31.5s-23.833 29 -31.5 47s-11.5 37.333 -11.5 58s3.83301 40 11.5 58s18.167 33.667 31.5 47
s29 23.833 47 31.5s37.333 11.5 58 11.5s40 -3.83301 58 -11.5s33.833 -18.167 47.5 -31.5s24.334 -29 32.001 -47s11.5 -37.333 11.5 -58zM308 401c0 28.667 -10 53.167 -30 73.5s-44.667 30.5 -74 30.5c-28.667 0 -53.167 -10.167 -73.5 -30.5s-30.5 -44.833 -30.5 -73.5
s10.167 -53.167 30.5 -73.5s44.833 -30.5 73.5 -30.5c29.333 0 54 10.167 74 30.5s30 44.833 30 73.5z" />
    <glyph glyph-name="trademark" unicode="&#x2122;" horiz-adv-x="231" 
d="M208 572c-9.33301 0.666992 -17.3311 0.499023 -23.998 -0.500977l-10 -1.5c2.66699 12 4 26 4 42s-0.666992 28.333 -2 37c-1.33301 -8.66699 -3.66602 -20.5 -6.99902 -35.5s-6.33301 -26.167 -9 -33.5l-4 -1c-2.66699 -0.666992 -6.33398 -0.666992 -11.001 0
c2 11.333 0 23.833 -6 37.5s-10.333 23.834 -13 30.501c0 -2 0.5 -8.16699 1.5 -18.5s1.83301 -21.166 2.5 -32.499c0 -11.333 -3.66699 -18.166 -11 -20.499s-16.333 -2.5 -27 -0.5c-0.666992 5.33301 -1.5 10 -2.5 14l-1.5 6c15.333 -2.66699 23.333 1.16602 24 11.499
s0.666992 23.166 0 38.499c-0.666992 7.33301 -1.83398 13.5 -3.50098 18.5s-6.16699 7.5 -13.5 7.5c1.33301 2.66699 2 6 2 10c2 -0.666992 7.33301 -1.16699 16 -1.5s14.667 -0.5 18 -0.5c1.33301 -10 5 -20.333 11 -31s10 -18.667 12 -24
c2.66699 9.33301 5 20.166 7 32.499s2.66699 20.5 2 24.5c16.667 -1.33301 29.334 0 38.001 4c0.666992 -0.666992 1 -2.5 1 -5.5s0.666992 -5.5 2 -7.5c-3.33301 -1.33301 -6.5 -2.66602 -9.5 -3.99902s-4.83301 -6 -5.5 -14
c-0.666992 -10 -0.333984 -20.167 0.999023 -30.5s2.66602 -17.833 3.99902 -22.5c1.33301 -8 3.5 -12.167 6.5 -12.5s5.5 -0.5 7.5 -0.5v-16zM104.002 660.999c-1.33301 -2 -1.83496 -9.16992 -1.50195 -21.5029s0.5 -20.833 0.5 -25.5h-5
c-2.66699 0 -5.33398 -0.666992 -8.00098 -2c0 15.333 -1 24.833 -3 28.5s-6 5.16699 -12 4.5c0.666992 -9.33301 0.833984 -18.666 0.500977 -27.999s-0.166016 -17.666 0.500977 -24.999s2.5 -13.166 5.5 -17.499s7.83301 -6.5 14.5 -6.5
c-0.666992 -1.33301 -1 -3.33301 -1 -6v-7c-0.666992 0 -3.5 0.166992 -8.5 0.5s-10.5 0.5 -16.5 0.5s-11.667 -0.166992 -17 -0.5s-8.66602 -0.5 -9.99902 -0.5c0 3.33301 -0.333008 6.16602 -1 8.49902l-1 3.5c13.333 0.666992 20.333 6 21 16s1 31 1 63
c-13.333 1.33301 -20 -2.16699 -20 -10.5v-20.5c-3.33301 0 -6.5 -0.166992 -9.5 -0.5l-4.5 -0.5c0 8.66699 -0.666992 17.834 -2 27.501s-3 17.167 -5 22.5c14 -2.66699 27.5 -4 40.5 -4s26.833 0.333008 41.5 1z" />
    <glyph glyph-name="partialdiff" unicode="&#x2202;" 
d="M353 401c0 -20.667 -3.83301 -40 -11.5 -58s-18.334 -33.667 -32.001 -47s-29.5 -23.833 -47.5 -31.5s-37.333 -11.5 -58 -11.5s-40 3.83301 -58 11.5s-33.667 18.167 -47 31.5s-23.833 29 -31.5 47s-11.5 37.333 -11.5 58s3.83301 40 11.5 58s18.167 33.667 31.5 47
s29 23.833 47 31.5s37.333 11.5 58 11.5s40 -3.83301 58 -11.5s33.833 -18.167 47.5 -31.5s24.334 -29 32.001 -47s11.5 -37.333 11.5 -58zM308 401c0 28.667 -10 53.167 -30 73.5s-44.667 30.5 -74 30.5c-28.667 0 -53.167 -10.167 -73.5 -30.5s-30.5 -44.833 -30.5 -73.5
s10.167 -53.167 30.5 -73.5s44.833 -30.5 73.5 -30.5c29.333 0 54 10.167 74 30.5s30 44.833 30 73.5z" />
    <glyph glyph-name="Delta" unicode="&#x2206;" 
d="M353 401c0 -20.667 -3.83301 -40 -11.5 -58s-18.334 -33.667 -32.001 -47s-29.5 -23.833 -47.5 -31.5s-37.333 -11.5 -58 -11.5s-40 3.83301 -58 11.5s-33.667 18.167 -47 31.5s-23.833 29 -31.5 47s-11.5 37.333 -11.5 58s3.83301 40 11.5 58s18.167 33.667 31.5 47
s29 23.833 47 31.5s37.333 11.5 58 11.5s40 -3.83301 58 -11.5s33.833 -18.167 47.5 -31.5s24.334 -29 32.001 -47s11.5 -37.333 11.5 -58zM308 401c0 28.667 -10 53.167 -30 73.5s-44.667 30.5 -74 30.5c-28.667 0 -53.167 -10.167 -73.5 -30.5s-30.5 -44.833 -30.5 -73.5
s10.167 -53.167 30.5 -73.5s44.833 -30.5 73.5 -30.5c29.333 0 54 10.167 74 30.5s30 44.833 30 73.5z" />
    <glyph glyph-name="product" unicode="&#x220f;" 
d="M353 401c0 -20.667 -3.83301 -40 -11.5 -58s-18.334 -33.667 -32.001 -47s-29.5 -23.833 -47.5 -31.5s-37.333 -11.5 -58 -11.5s-40 3.83301 -58 11.5s-33.667 18.167 -47 31.5s-23.833 29 -31.5 47s-11.5 37.333 -11.5 58s3.83301 40 11.5 58s18.167 33.667 31.5 47
s29 23.833 47 31.5s37.333 11.5 58 11.5s40 -3.83301 58 -11.5s33.833 -18.167 47.5 -31.5s24.334 -29 32.001 -47s11.5 -37.333 11.5 -58zM308 401c0 28.667 -10 53.167 -30 73.5s-44.667 30.5 -74 30.5c-28.667 0 -53.167 -10.167 -73.5 -30.5s-30.5 -44.833 -30.5 -73.5
s10.167 -53.167 30.5 -73.5s44.833 -30.5 73.5 -30.5c29.333 0 54 10.167 74 30.5s30 44.833 30 73.5z" />
    <glyph glyph-name="minus" unicode="&#x2212;" 
d="M353 401c0 -20.667 -3.83301 -40 -11.5 -58s-18.334 -33.667 -32.001 -47s-29.5 -23.833 -47.5 -31.5s-37.333 -11.5 -58 -11.5s-40 3.83301 -58 11.5s-33.667 18.167 -47 31.5s-23.833 29 -31.5 47s-11.5 37.333 -11.5 58s3.83301 40 11.5 58s18.167 33.667 31.5 47
s29 23.833 47 31.5s37.333 11.5 58 11.5s40 -3.83301 58 -11.5s33.833 -18.167 47.5 -31.5s24.334 -29 32.001 -47s11.5 -37.333 11.5 -58zM308 401c0 28.667 -10 53.167 -30 73.5s-44.667 30.5 -74 30.5c-28.667 0 -53.167 -10.167 -73.5 -30.5s-30.5 -44.833 -30.5 -73.5
s10.167 -53.167 30.5 -73.5s44.833 -30.5 73.5 -30.5c29.333 0 54 10.167 74 30.5s30 44.833 30 73.5z" />
    </font>
</defs>
</svg>
