<?xml version="1.0" encoding="utf-8"?>
<!-- Generator: Adobe Illustrator 16.0.0, SVG Export Plug-In . SVG Version: 6.00 Build 0)  -->
<!DOCTYPE svg PUBLIC "-//W3C//DTD SVG 1.1//EN" "http://www.w3.org/Graphics/SVG/1.1/DTD/svg11.dtd">
<svg version="1.1" id="Layer_1" xmlns="http://www.w3.org/2000/svg" xmlns:xlink="http://www.w3.org/1999/xlink" x="0px" y="0px"
	 width="149px" height="49px" viewBox="0 0 149 49" enable-background="new 0 0 149 49" xml:space="preserve">
<g>
	<g>
		<path fill="#FFFFFF" d="M132.018,25.226c0.047,0,0.1,0.006,0.158,0.018c0.141,0.023,0.267,0.088,0.378,0.193
			s0.167,0.246,0.167,0.422c0,0.211-0.1,0.46-0.299,0.747s-0.562,0.595-1.09,0.923c-0.117,0.07-0.319,0.205-0.606,0.404
			s-0.624,0.422-1.011,0.668s-0.8,0.504-1.239,0.773c-0.338,0.207-0.659,0.381-0.979,0.554c0.117-0.303,0.197-0.592,0.197-0.853
			c0-0.054-0.014-0.097-0.02-0.146c0.105-0.226,0.202-0.449,0.336-0.688c0.199-0.357,0.425-0.718,0.677-1.081
			s0.539-0.688,0.861-0.976s0.677-0.519,1.063-0.694s0.803-0.264,1.248-0.264C131.918,25.226,131.971,25.226,132.018,25.226
			 M132.018,23.226h-0.158c-0.73,0-1.429,0.149-2.075,0.443c-0.568,0.258-1.096,0.602-1.566,1.022
			c-0.438,0.391-0.834,0.838-1.175,1.329c-0.288,0.415-0.55,0.834-0.78,1.247c-0.133,0.238-0.239,0.464-0.343,0.691l-0.059,0.125
			l-0.24,0.516l0.057,0.477c-0.011,0.032-0.025,0.075-0.047,0.131l-1.953,5.054l4.769-2.573c0.301-0.163,0.677-0.366,1.074-0.609
			c0.45-0.276,0.873-0.54,1.269-0.792c0.412-0.263,0.771-0.5,1.077-0.712c0.234-0.163,0.398-0.275,0.495-0.333
			c0.796-0.495,1.344-0.979,1.704-1.498c0.435-0.627,0.655-1.262,0.655-1.887c0-0.725-0.281-1.39-0.791-1.874
			c-0.392-0.37-0.871-0.614-1.391-0.708C132.362,23.243,132.187,23.226,132.018,23.226L132.018,23.226z"/>
	</g>
	<g>
		<path fill="#FFFFFF" d="M81.375,25.929c0.176,0,0.378,0.032,0.606,0.097s0.445,0.161,0.65,0.29s0.378,0.29,0.519,0.483
			s0.211,0.419,0.211,0.677c0,0.152-0.082,0.384-0.246,0.694s-0.384,0.659-0.659,1.046s-0.583,0.782-0.923,1.187
			s-0.688,0.773-1.046,1.107s-0.703,0.609-1.037,0.826s-0.624,0.325-0.87,0.325c-0.34,0-0.606-0.062-0.8-0.185
			s-0.34-0.278-0.439-0.466s-0.164-0.39-0.193-0.606s-0.044-0.419-0.044-0.606c0-0.621,0.117-1.225,0.352-1.811
			s0.551-1.104,0.949-1.556s0.855-0.814,1.371-1.09S80.824,25.929,81.375,25.929 M81.375,23.929c-0.88,0-1.736,0.218-2.542,0.649
			c-0.724,0.387-1.373,0.902-1.928,1.53c-0.549,0.621-0.989,1.34-1.307,2.137c-0.328,0.82-0.495,1.68-0.495,2.553
			c0,0.276,0.021,0.57,0.062,0.875c0.061,0.451,0.199,0.88,0.409,1.277c0.263,0.496,0.644,0.904,1.132,1.215
			c0.519,0.33,1.149,0.497,1.874,0.497c0.647,0,1.288-0.212,1.959-0.647c0.431-0.28,0.873-0.63,1.314-1.042
			c0.414-0.387,0.821-0.818,1.211-1.282c0.373-0.443,0.716-0.885,1.021-1.313c0.33-0.463,0.591-0.879,0.799-1.272
			c0.33-0.625,0.478-1.127,0.478-1.628c0-0.678-0.205-1.319-0.593-1.853c-0.291-0.399-0.651-0.736-1.072-1
			c-0.366-0.23-0.76-0.405-1.172-0.521C82.115,23.985,81.739,23.929,81.375,23.929L81.375,23.929z"/>
	</g>
	<g>
		<path fill="#CE202A" d="M54.99,22.657c-0.965,0-1.666-0.181-2.145-0.554c-0.51-0.398-0.812-0.951-0.873-1.601
			c-0.004-0.473,0.064-0.865,0.2-1.256c0.14-0.403,0.353-0.774,0.631-1.102c0.284-0.334,0.639-0.612,1.055-0.824
			c0.439-0.224,0.95-0.337,1.518-0.337c0.96,0,1.655,0.223,2.123,0.681c0.461,0.451,0.705,1.042,0.705,1.708
			c0,0.327-0.061,0.68-0.181,1.048c-0.123,0.376-0.309,0.729-0.554,1.047c-0.261,0.339-0.598,0.622-1.002,0.841
			C56.041,22.54,55.543,22.657,54.99,22.657z"/>
		<path fill="#FFFFFF" d="M55.377,17.983c0.68,0,1.154,0.132,1.424,0.396s0.404,0.595,0.404,0.993c0,0.223-0.044,0.469-0.132,0.738
			s-0.22,0.519-0.396,0.747s-0.404,0.419-0.686,0.571s-0.615,0.229-1.002,0.229c-0.727,0-1.236-0.114-1.529-0.343
			s-0.457-0.53-0.492-0.905c0-0.27,0.05-0.548,0.149-0.835s0.249-0.548,0.448-0.782s0.448-0.428,0.747-0.58
			S54.967,17.983,55.377,17.983 M55.377,15.983c-0.727,0-1.391,0.15-1.972,0.447c-0.534,0.272-0.993,0.631-1.363,1.066
			c-0.359,0.423-0.633,0.901-0.814,1.422c-0.172,0.497-0.26,0.999-0.26,1.491v0.094l0.009,0.093
			c0.086,0.917,0.531,1.732,1.253,2.296c0.661,0.515,1.563,0.766,2.759,0.766c0.721,0,1.379-0.158,1.955-0.47
			c0.528-0.286,0.971-0.66,1.318-1.111c0.314-0.408,0.553-0.861,0.711-1.346c0.153-0.469,0.23-0.926,0.23-1.358
			c0-0.941-0.348-1.779-1.006-2.423C57.544,16.309,56.595,15.983,55.377,15.983L55.377,15.983z"/>
	</g>
	<g>
		<path fill="#CE202A" d="M106.02,22.657c-0.965,0-1.666-0.181-2.145-0.554c-0.51-0.398-0.812-0.951-0.873-1.601
			c-0.004-0.473,0.064-0.865,0.2-1.256c0.14-0.403,0.353-0.774,0.631-1.102c0.284-0.334,0.639-0.612,1.055-0.824
			c0.439-0.224,0.95-0.337,1.518-0.337c0.96,0,1.655,0.223,2.123,0.681c0.461,0.451,0.705,1.042,0.705,1.708
			c0,0.327-0.061,0.68-0.181,1.048c-0.123,0.376-0.309,0.729-0.554,1.047c-0.261,0.339-0.598,0.622-1.002,0.841
			C107.07,22.54,106.573,22.657,106.02,22.657z"/>
		<path fill="#FFFFFF" d="M106.406,17.983c0.68,0,1.154,0.132,1.424,0.396s0.404,0.595,0.404,0.993c0,0.223-0.044,0.469-0.132,0.738
			s-0.22,0.519-0.396,0.747s-0.404,0.419-0.686,0.571s-0.615,0.229-1.002,0.229c-0.727,0-1.236-0.114-1.529-0.343
			s-0.457-0.53-0.492-0.905c0-0.27,0.05-0.548,0.149-0.835s0.249-0.548,0.448-0.782s0.448-0.428,0.747-0.58
			S105.996,17.983,106.406,17.983 M106.406,15.983c-0.727,0-1.391,0.15-1.972,0.447c-0.534,0.272-0.993,0.631-1.363,1.066
			c-0.359,0.423-0.633,0.901-0.814,1.422c-0.172,0.497-0.26,0.999-0.26,1.491v0.094l0.009,0.093
			c0.086,0.917,0.531,1.732,1.253,2.296c0.661,0.515,1.563,0.766,2.759,0.766c0.721,0,1.379-0.158,1.955-0.47
			c0.528-0.286,0.971-0.66,1.318-1.111c0.314-0.408,0.553-0.861,0.711-1.346c0.153-0.469,0.23-0.926,0.23-1.358
			c0-0.941-0.348-1.779-1.006-2.423C108.574,16.309,107.624,15.983,106.406,15.983L106.406,15.983z"/>
	</g>
	<g>
		<path fill="#CE202A" d="M76.506,47.056c-0.755,0-1.395-0.289-1.849-0.834c-0.417-0.5-0.627-1.099-0.627-1.783
			c0-0.59,0.128-1.235,0.393-1.972c0.24-0.67,0.58-1.399,1.01-2.165c0.421-0.751,0.937-1.547,1.531-2.366
			c0.332-0.457,0.687-0.922,1.062-1.391c-0.268,0.046-0.515,0.069-0.746,0.069c-0.635,0-1.234-0.15-1.779-0.447
			c-0.525-0.286-0.98-0.685-1.353-1.188c-0.226-0.305-0.422-0.645-0.585-1.016c-0.444,0.304-0.897,0.594-1.353,0.866
			c-0.609,0.363-1.27,0.707-1.963,1.02c-0.702,0.317-1.531,0.614-2.463,0.884c-0.329,0.102-0.645,0.181-0.93,0.233
			c-0.311,0.058-0.606,0.087-0.877,0.087c-1.158,0-1.798-0.479-2.132-0.88c-0.438-0.528-0.661-1.231-0.661-2.089
			c0-0.108,0.004-0.213,0.012-0.314c0.007-0.09,0.017-0.191,0.031-0.302c0.024-0.405,0.145-0.908,0.351-1.436
			c0.183-0.466,0.405-0.949,0.661-1.437c0.249-0.473,0.513-0.943,0.792-1.41c0.265-0.444,0.51-0.865,0.735-1.263
			c0.195-0.345,0.361-0.656,0.498-0.933c-0.345,0.076-0.678,0.222-1.009,0.44c-0.6,0.396-1.171,0.894-1.698,1.479
			c-0.553,0.613-1.068,1.271-1.532,1.957c-0.489,0.721-0.919,1.367-1.292,1.937c-0.193,0.319-0.389,0.697-0.563,1.095
			c-0.207,0.469-0.422,0.906-0.647,1.312c-0.259,0.468-0.561,0.867-0.896,1.188c-0.448,0.428-1.031,0.655-1.684,0.655
			c-0.874,0-1.411-0.388-1.707-0.714c-0.174-0.192-0.312-0.406-0.414-0.638c-0.59,0.361-1.189,0.662-1.786,0.896
			c-0.77,0.303-1.562,0.456-2.352,0.456c-1.198,0-2.176-0.331-2.907-0.983c-0.515-0.459-0.858-1.07-1.028-1.825
			c-0.235,0.066-0.466,0.125-0.692,0.175c-0.527,0.116-0.986,0.173-1.402,0.173c-0.581,0-1.171-0.115-1.763-0.343
			c-0.741,0.794-1.516,1.43-2.312,1.894c-1.036,0.604-2.113,0.91-3.202,0.91c-1.149,0-2.019-0.342-2.585-1.016
			c-0.163-0.194-0.301-0.411-0.414-0.651c-0.469,0.375-0.927,0.684-1.368,0.923c-0.912,0.494-1.868,0.745-2.841,0.745
			c-0.637,0-1.169-0.079-1.627-0.243c-0.494-0.176-0.906-0.436-1.226-0.773c-0.32-0.337-0.549-0.737-0.682-1.188
			c-0.114-0.389-0.172-0.812-0.172-1.258c0-0.655,0.093-1.351,0.277-2.068c0.173-0.672,0.383-1.333,0.624-1.962
			c0.236-0.617,0.472-1.188,0.707-1.713l0.553-1.236c0.368-0.819,0.669-1.478,0.905-1.979c0.261-0.555,0.5-0.983,0.728-1.309
			c0.295-0.42,0.61-0.708,0.962-0.879c0.33-0.16,0.722-0.241,1.166-0.241c0.686,0,1.314,0.236,1.816,0.684
			c0.536,0.477,0.818,1.115,0.818,1.845c0,0.195-0.027,0.392-0.081,0.584c-0.042,0.152-0.096,0.303-0.164,0.455l-2.284,5.401
			c0.114-0.113,0.236-0.234,0.364-0.362c0.309-0.33,0.658-0.764,1.017-1.269c0.372-0.524,0.741-1.084,1.096-1.666
			c0.354-0.58,0.688-1.173,0.992-1.764c0.307-0.597,0.574-1.151,0.802-1.663c0.215-0.433,0.393-0.749,0.549-0.991
			c0.193-0.298,0.388-0.531,0.596-0.711c0.244-0.212,0.51-0.361,0.79-0.443c0.231-0.067,0.491-0.102,0.772-0.102
			c1.259,0,2.072,0.758,2.072,1.932v0.123l-0.03,0.12c-0.009,0.037-0.013,0.078-0.016,0.124c-0.011,0.226-0.064,0.459-0.162,0.713
			l-2.208,6.526c0.068-0.054,0.136-0.109,0.205-0.167c0.297-0.253,0.581-0.552,0.842-0.889c0.234-0.301,0.405-0.612,0.509-0.925
			l0.783-2.34c0.274-0.817,0.572-1.571,0.886-2.241c0.333-0.713,0.705-1.318,1.104-1.797c0.522-0.628,1.14-0.976,1.837-1.034
			c0.005,0,0.011,0,0.016,0c0.714,0,1.272,0.226,1.697,0.65c0.427,0.427,0.653,0.997,0.653,1.647c0,0.531-0.071,1.104-0.211,1.704
			c-0.132,0.568-0.308,1.143-0.521,1.708c-0.216,0.571-0.477,1.131-0.775,1.664c-0.022,0.041-0.045,0.081-0.068,0.122
			c0.338-0.061,0.671-0.148,0.989-0.261c0.163-0.057,0.325-0.124,0.487-0.196c0.197-0.445,0.404-0.875,0.62-1.291
			c0.218-0.42,0.405-0.825,0.557-1.203c0.059-0.153,0.169-0.408,0.329-0.751c0.15-0.326,0.31-0.657,0.479-0.994l0.593-1.221
			c0.335-0.561,0.693-0.918,1.106-1.144c0.405-0.221,0.833-0.333,1.27-0.333c0.686,0,1.314,0.236,1.816,0.684
			c0.536,0.477,0.818,1.115,0.818,1.845v0.055L55.14,25.09c-0.014,0.124-0.031,0.247-0.051,0.371
			c-0.036,0.218-0.112,0.432-0.227,0.638c-0.152,0.282-0.282,0.531-0.384,0.735l-0.284,0.577l-0.551,1.163
			c-0.145,0.302-0.307,0.628-0.486,0.981c-0.167,0.328-0.326,0.665-0.476,1.01c-0.144,0.33-0.267,0.655-0.368,0.975
			c-0.049,0.156-0.083,0.302-0.103,0.435c0.173-0.014,0.36-0.06,0.559-0.138c0.302-0.119,0.613-0.276,0.925-0.467
			c0.323-0.198,0.647-0.429,0.962-0.687c0.333-0.271,0.646-0.546,0.939-0.823c0.3-0.283,0.578-0.555,0.833-0.815
			c0.242-0.248,0.444-0.468,0.606-0.662l0.037-0.045l0.042-0.04c0.069-0.065,0.138-0.122,0.204-0.171l0.123-0.254
			c0.323-0.665,0.632-1.292,0.927-1.881c0.287-0.574,0.522-1.061,0.706-1.462c0.312-0.669,0.719-1.182,1.215-1.529
			c0.521-0.365,1.063-0.55,1.61-0.55c0.531,0,1.027,0.198,1.433,0.572c0.14,0.128,0.292,0.307,0.414,0.548
			c0.396-0.253,0.82-0.487,1.266-0.698c0.627-0.298,1.282-0.545,1.947-0.735c0.702-0.201,1.383-0.302,2.024-0.302
			c0.832,0,1.551,0.214,2.139,0.636c0.475,0.341,1.041,1.022,1.041,2.333c0,0.512-0.078,1.046-0.231,1.59
			c-0.142,0.502-0.327,1.01-0.551,1.509c-0.217,0.485-0.463,0.967-0.73,1.433c-0.26,0.453-0.517,0.879-0.771,1.279l-0.461,0.725
			c0.245-0.114,0.492-0.238,0.74-0.37c0.634-0.337,1.251-0.698,1.834-1.074c0.463-0.298,0.901-0.601,1.306-0.9
			c0.14-0.58,0.333-1.128,0.574-1.634c0.549-1.15,1.267-2.146,2.133-2.96c0.863-0.811,1.832-1.446,2.88-1.889
			c1.063-0.449,2.125-0.676,3.158-0.676c0.621,0,1.183,0.083,1.67,0.245c0.446,0.148,0.836,0.317,1.16,0.5
			c0.15,0.092,0.29,0.185,0.422,0.28c0.2-0.098,0.419-0.187,0.659-0.264c0.297-0.096,0.602-0.145,0.905-0.145
			c0.734,0,1.338,0.174,1.795,0.517c0.53,0.397,0.822,0.95,0.822,1.556c0,0.319-0.082,0.632-0.243,0.931l-2.431,4.603
			c0.256-0.139,0.496-0.267,0.721-0.383c0.923-0.48,1.642-0.827,2.199-1.062c0.12-0.05,0.231-0.097,0.336-0.139
			c0.224-0.492,0.448-0.985,0.676-1.473l6.487-13.818c0.302-0.653,0.738-1.136,1.293-1.427c0.5-0.262,1.021-0.396,1.545-0.396
			c0.562,0,1.083,0.157,1.548,0.467c0.576,0.384,0.894,1.023,0.894,1.799c0,0.345-0.077,0.702-0.229,1.059
			c-0.113,0.266-0.255,0.551-0.428,0.857c-0.278,0.523-0.624,1.192-1.025,1.982c-0.403,0.794-0.834,1.658-1.296,2.592
			c-0.461,0.934-0.934,1.906-1.419,2.917l-1.424,2.963c-0.461,0.958-0.894,1.866-1.296,2.724c-0.403,0.859-0.751,1.605-1.043,2.236
			c-0.12,0.25-0.231,0.529-0.34,0.846c-0.005,0.014-0.009,0.028-0.014,0.042c0.312-0.127,0.656-0.296,1.022-0.502
			c0.406-0.228,0.829-0.49,1.269-0.785c0.452-0.303,0.901-0.618,1.347-0.944c0.444-0.325,0.869-0.649,1.273-0.974l0.082-0.066
			l0.01-0.022c0.071-0.154,0.143-0.308,0.218-0.454c0.218-0.42,0.406-0.825,0.557-1.203c0.059-0.153,0.169-0.408,0.329-0.751
			c0.15-0.326,0.31-0.657,0.479-0.994l0.593-1.221c0.335-0.561,0.693-0.918,1.106-1.144c0.405-0.221,0.833-0.333,1.27-0.333
			c0.686,0,1.314,0.236,1.816,0.684c0.536,0.477,0.818,1.115,0.818,1.845v0.055l-0.006,0.055c-0.014,0.124-0.031,0.247-0.051,0.371
			c-0.036,0.218-0.112,0.432-0.227,0.637c-0.152,0.283-0.282,0.532-0.384,0.735l-0.284,0.577l-0.551,1.163
			c-0.145,0.302-0.307,0.628-0.486,0.981c-0.167,0.328-0.326,0.665-0.476,1.01c-0.144,0.33-0.267,0.655-0.368,0.975
			c-0.049,0.156-0.083,0.302-0.103,0.435c0.173-0.014,0.36-0.06,0.559-0.138c0.302-0.119,0.613-0.276,0.925-0.467
			c0.323-0.198,0.647-0.429,0.962-0.687c0.333-0.271,0.646-0.546,0.939-0.823c0.3-0.283,0.578-0.555,0.833-0.815
			c0.242-0.248,0.444-0.468,0.606-0.662l0.037-0.045l0.042-0.04c0.069-0.066,0.138-0.122,0.204-0.171l0.123-0.254
			c0.323-0.665,0.632-1.292,0.927-1.881c0.287-0.574,0.522-1.061,0.706-1.462c0.312-0.669,0.719-1.182,1.215-1.529
			c0.521-0.365,1.063-0.55,1.61-0.55c0.531,0,1.027,0.198,1.434,0.572c0.139,0.128,0.291,0.307,0.413,0.548
			c0.396-0.253,0.82-0.487,1.267-0.698c0.627-0.298,1.282-0.545,1.947-0.735c0.701-0.201,1.382-0.302,2.023-0.302
			c0.832,0,1.552,0.214,2.139,0.636c0.476,0.341,1.041,1.022,1.041,2.333c0,0.512-0.078,1.046-0.23,1.59
			c-0.142,0.502-0.327,1.01-0.552,1.509c-0.217,0.485-0.463,0.967-0.73,1.433c-0.26,0.453-0.517,0.879-0.771,1.279l-0.462,0.725
			c0.245-0.114,0.492-0.238,0.74-0.37c0.515-0.273,1.018-0.562,1.5-0.862c0.057-0.339,0.137-0.665,0.243-0.986
			c0.223-0.674,0.545-1.357,0.959-2.029c0.408-0.664,0.914-1.318,1.503-1.945c0.596-0.635,1.274-1.204,2.018-1.69
			c0.749-0.491,1.582-0.89,2.475-1.185c0.912-0.302,1.896-0.455,2.925-0.455c1.238,0,2.206,0.332,2.878,0.987
			c0.679,0.662,1.022,1.559,1.022,2.667c0,0.641-0.163,1.306-0.484,1.979c-0.319,0.668-0.836,1.31-1.578,1.963
			c-0.685,0.603-1.601,1.219-2.721,1.832c-0.534,0.292-1.136,0.586-1.801,0.88c0.188-0.032,0.382-0.074,0.58-0.125
			c0.568-0.146,1.141-0.336,1.699-0.564c0.577-0.235,1.148-0.494,1.697-0.769c0.56-0.28,1.065-0.545,1.517-0.796
			c0.45-0.251,0.827-0.468,1.13-0.65c0.297-0.18,0.516-0.302,0.653-0.371c0.212-0.13,0.428-0.21,0.646-0.239
			c0.137-0.018,0.26-0.026,0.369-0.026c0.346,0,0.655,0.092,0.918,0.272c0.187,0.128,0.347,0.283,0.478,0.461
			c0.144,0.196,0.244,0.413,0.299,0.644c0.041,0.177,0.062,0.335,0.062,0.484c0,0.149-0.015,0.328-0.048,0.536
			c-0.052,0.326-0.207,0.644-0.475,0.973l-0.069,0.077c-0.068,0.069-0.295,0.258-0.685,0.559c-0.349,0.269-0.798,0.587-1.349,0.955
			c-0.546,0.364-1.186,0.752-1.901,1.156c-0.727,0.409-1.507,0.79-2.317,1.131c-0.82,0.345-1.687,0.636-2.573,0.864
			c-0.921,0.236-1.845,0.356-2.745,0.356c-0.855,0-1.634-0.171-2.315-0.508c-0.668-0.331-1.244-0.784-1.714-1.346
			c-0.149-0.179-0.287-0.37-0.413-0.572c-0.109,0.069-0.218,0.136-0.327,0.202c-0.61,0.363-1.271,0.707-1.965,1.02
			c-0.702,0.317-1.53,0.614-2.462,0.884c-0.329,0.102-0.645,0.181-0.931,0.233c-0.311,0.058-0.605,0.087-0.877,0.087
			c-1.158,0-1.798-0.479-2.132-0.879c-0.438-0.529-0.661-1.231-0.661-2.089c0-0.108,0.004-0.213,0.012-0.314
			c0.007-0.09,0.018-0.191,0.031-0.302c0.024-0.405,0.145-0.908,0.352-1.436c0.183-0.466,0.404-0.949,0.661-1.437
			c0.248-0.473,0.512-0.943,0.791-1.41c0.265-0.444,0.51-0.865,0.735-1.263c0.194-0.345,0.36-0.656,0.497-0.933
			c-0.345,0.076-0.679,0.222-1.009,0.44c-0.601,0.396-1.172,0.894-1.698,1.479c-0.553,0.613-1.068,1.271-1.532,1.957
			c-0.489,0.721-0.92,1.367-1.291,1.937c-0.193,0.319-0.389,0.697-0.564,1.095c-0.207,0.469-0.422,0.906-0.647,1.312
			c-0.259,0.468-0.561,0.867-0.896,1.188c-0.448,0.428-1.031,0.655-1.684,0.655c-0.874,0-1.411-0.388-1.707-0.714
			c-0.174-0.192-0.312-0.406-0.414-0.638c-0.59,0.361-1.189,0.662-1.786,0.896c-0.77,0.303-1.562,0.456-2.352,0.456
			c-1.198,0-2.176-0.331-2.907-0.983c-0.399-0.356-0.695-0.804-0.887-1.338c-0.31,0.217-0.617,0.422-0.921,0.613
			c-0.809,0.508-1.625,0.919-2.428,1.223c-0.854,0.323-1.704,0.486-2.524,0.486c-0.615,0-1.13-0.086-1.576-0.265
			c-0.47-0.188-0.859-0.457-1.157-0.8c-0.292-0.337-0.502-0.736-0.624-1.187c-0.044-0.165-0.08-0.335-0.105-0.508
			c-0.277,0.131-0.558,0.267-0.843,0.407c-0.733,0.361-1.479,0.77-2.219,1.216c-0.666,0.401-1.299,0.848-1.886,1.33l-3.293,5.959
			c-0.285,0.673-0.549,1.236-0.786,1.673c-0.269,0.497-0.536,0.888-0.814,1.197c-0.325,0.359-0.68,0.617-1.056,0.768
			C77.334,46.984,76.937,47.056,76.506,47.056z M78.317,31.632c0.002,0,0.077,0.029,0.263,0.029c-0.005,0,0.1-0.017,0.326-0.164
			c0.283-0.184,0.586-0.425,0.899-0.718c0.327-0.305,0.65-0.648,0.963-1.021c0.322-0.383,0.613-0.757,0.874-1.123
			c0.249-0.349,0.447-0.663,0.589-0.933c0.115-0.218,0.136-0.304,0.137-0.308c-0.092-0.098-0.171-0.171-0.269-0.232
			c-0.125-0.079-0.252-0.136-0.39-0.174c-0.182-0.051-0.288-0.059-0.335-0.059c-0.388,0-0.757,0.097-1.128,0.295
			c-0.408,0.217-0.775,0.51-1.093,0.87c-0.32,0.363-0.58,0.789-0.77,1.265c-0.186,0.464-0.28,0.949-0.28,1.439
			c0,0.146,0.012,0.304,0.035,0.473c0.013,0.1,0.041,0.188,0.085,0.271C78.236,31.564,78.257,31.595,78.317,31.632
			C78.316,31.632,78.316,31.632,78.317,31.632z M131.36,26.283c-0.115,0.028-0.227,0.067-0.335,0.116
			c-0.294,0.133-0.566,0.312-0.812,0.531c-0.146,0.131-0.285,0.272-0.415,0.424c0.127-0.084,0.246-0.166,0.357-0.243
			c0.313-0.217,0.534-0.363,0.662-0.44C131.065,26.516,131.239,26.386,131.36,26.283z"/>
		<path fill="#FFFFFF" d="M100.061,12.358c0.363,0,0.694,0.1,0.993,0.299s0.448,0.521,0.448,0.967c0,0.211-0.05,0.434-0.149,0.668
			s-0.226,0.486-0.378,0.756c-0.293,0.551-0.642,1.225-1.046,2.021s-0.838,1.664-1.301,2.602s-0.938,1.913-1.424,2.927
			s-0.961,2.001-1.424,2.962s-0.896,1.872-1.301,2.733s-0.753,1.608-1.046,2.241c-0.129,0.27-0.255,0.583-0.378,0.94
			s-0.185,0.677-0.185,0.958c0,0.176,0.035,0.316,0.105,0.422s0.205,0.158,0.404,0.158c0.246,0,0.554-0.073,0.923-0.22
			s0.768-0.34,1.195-0.58s0.873-0.516,1.336-0.826s0.923-0.633,1.38-0.967s0.894-0.668,1.31-1.002
			c0.093-0.075,0.176-0.143,0.265-0.215c0.103-0.214,0.199-0.439,0.307-0.646c0.234-0.451,0.434-0.882,0.598-1.292
			c0.059-0.152,0.161-0.387,0.308-0.703s0.302-0.639,0.466-0.967c0.188-0.387,0.387-0.797,0.598-1.23
			c0.199-0.328,0.428-0.562,0.686-0.703s0.521-0.211,0.791-0.211c0.445,0,0.829,0.144,1.151,0.431s0.483,0.653,0.483,1.099
			c-0.012,0.105-0.026,0.211-0.044,0.316s-0.056,0.211-0.114,0.316c-0.164,0.305-0.299,0.562-0.404,0.773s-0.202,0.407-0.29,0.589
			s-0.173,0.36-0.255,0.536s-0.182,0.387-0.299,0.633c-0.141,0.293-0.299,0.612-0.475,0.958s-0.343,0.7-0.501,1.063
			s-0.293,0.721-0.404,1.072s-0.167,0.674-0.167,0.967c0,0.316,0.079,0.524,0.237,0.624s0.384,0.149,0.677,0.149
			c0.328,0,0.671-0.07,1.028-0.211s0.718-0.322,1.081-0.545s0.721-0.478,1.072-0.765s0.683-0.577,0.993-0.87
			s0.598-0.574,0.861-0.844s0.483-0.51,0.659-0.721c0.098-0.093,0.196-0.155,0.293-0.209c0.081-0.167,0.162-0.337,0.243-0.503
			c0.322-0.662,0.63-1.286,0.923-1.872s0.533-1.084,0.721-1.494c0.234-0.504,0.527-0.879,0.879-1.125s0.697-0.369,1.037-0.369
			c0.281,0,0.533,0.103,0.756,0.308s0.334,0.507,0.334,0.905c0,0.152-0.018,0.316-0.053,0.492s-0.1,0.363-0.193,0.562
			c0.258-0.328,0.627-0.665,1.107-1.011s1.011-0.656,1.591-0.932s1.178-0.501,1.793-0.677s1.198-0.264,1.749-0.264
			c0.621,0,1.14,0.149,1.556,0.448s0.624,0.806,0.624,1.521c0,0.422-0.064,0.861-0.193,1.318s-0.296,0.914-0.501,1.371
			s-0.434,0.905-0.686,1.345s-0.501,0.853-0.747,1.239s-0.472,0.741-0.677,1.063s-0.366,0.589-0.483,0.8
			c-0.152,0.188-0.229,0.404-0.229,0.65c0,0.094,0.029,0.176,0.088,0.246s0.152,0.105,0.281,0.105c0.082,0,0.176-0.009,0.281-0.026
			s0.234-0.079,0.387-0.185c0.633-0.234,1.28-0.527,1.942-0.879s1.298-0.724,1.907-1.116c0.02-0.012,0.036-0.024,0.055-0.037
			c0.038-0.396,0.112-0.812,0.262-1.264c0.199-0.604,0.486-1.21,0.861-1.819s0.835-1.204,1.38-1.784s1.157-1.093,1.837-1.538
			s1.427-0.803,2.241-1.072s1.685-0.404,2.61-0.404c0.973,0,1.699,0.234,2.18,0.703s0.721,1.119,0.721,1.951
			c0,0.492-0.129,1.008-0.387,1.547s-0.703,1.087-1.336,1.644s-1.479,1.125-2.54,1.705s-2.388,1.163-3.981,1.749
			c0.059,0.34,0.24,0.606,0.545,0.8s0.709,0.29,1.213,0.29c0.539,0,1.116-0.079,1.731-0.237s1.225-0.36,1.828-0.606
			s1.192-0.513,1.767-0.8s1.093-0.56,1.556-0.817s0.85-0.48,1.16-0.668s0.519-0.305,0.624-0.352c0.105-0.07,0.202-0.111,0.29-0.123
			s0.167-0.018,0.237-0.018c0.141,0,0.258,0.032,0.352,0.097s0.173,0.141,0.237,0.229s0.108,0.182,0.132,0.281
			s0.035,0.185,0.035,0.255c0,0.105-0.012,0.231-0.035,0.378s-0.111,0.313-0.264,0.501c-0.059,0.059-0.255,0.217-0.589,0.475
			s-0.765,0.562-1.292,0.914s-1.14,0.724-1.837,1.116s-1.436,0.753-2.215,1.081s-1.591,0.601-2.435,0.817s-1.676,0.325-2.496,0.325
			c-0.703,0-1.327-0.135-1.872-0.404s-1.008-0.633-1.389-1.09c-0.339-0.407-0.594-0.878-0.789-1.396
			c-0.407,0.277-0.813,0.557-1.232,0.807c-0.58,0.346-1.201,0.668-1.863,0.967s-1.438,0.577-2.329,0.835
			c-0.305,0.094-0.583,0.164-0.835,0.211s-0.483,0.07-0.694,0.07c-0.621,0-1.075-0.173-1.362-0.519s-0.431-0.829-0.431-1.45
			c0-0.082,0.003-0.161,0.009-0.237s0.015-0.161,0.026-0.255c0.023-0.363,0.12-0.762,0.29-1.195s0.375-0.879,0.615-1.336
			s0.495-0.911,0.765-1.362s0.519-0.879,0.747-1.283s0.419-0.765,0.571-1.081s0.229-0.574,0.229-0.773
			c0-0.176-0.05-0.325-0.149-0.448s-0.249-0.185-0.448-0.185c-0.75,0-1.462,0.223-2.136,0.668s-1.304,0.993-1.89,1.644
			s-1.125,1.339-1.617,2.065s-0.926,1.377-1.301,1.951c-0.234,0.387-0.448,0.8-0.642,1.239s-0.396,0.85-0.606,1.23
			s-0.448,0.697-0.712,0.949s-0.595,0.378-0.993,0.378c-0.41,0-0.732-0.129-0.967-0.387s-0.352-0.574-0.352-0.949
			c0-0.199,0.082-0.521,0.246-0.967c0.005-0.015,0.013-0.032,0.018-0.047c-0.414,0.336-0.831,0.654-1.257,0.935
			c-0.65,0.428-1.304,0.771-1.96,1.028s-1.318,0.387-1.986,0.387c-0.949,0-1.696-0.243-2.241-0.729s-0.817-1.245-0.817-2.276
			c0-0.045,0.008-0.088,0.01-0.133c-0.735,0.595-1.468,1.125-2.198,1.583c-0.756,0.475-1.506,0.853-2.25,1.134
			s-1.468,0.422-2.171,0.422c-0.48,0-0.882-0.064-1.204-0.193s-0.58-0.305-0.773-0.527s-0.331-0.486-0.413-0.791
			s-0.123-0.627-0.123-0.967c0-0.278,0.022-0.56,0.062-0.844c-0.034,0.015-0.062,0.029-0.097,0.044
			c-0.703,0.311-1.436,0.653-2.197,1.028s-1.526,0.794-2.294,1.257s-1.485,0.976-2.153,1.538l-3.41,6.17
			c-0.281,0.668-0.536,1.213-0.765,1.635S78.223,45.159,78,45.405s-0.451,0.416-0.686,0.51s-0.504,0.141-0.809,0.141
			c-0.457,0-0.817-0.158-1.081-0.475s-0.396-0.697-0.396-1.143c0-0.469,0.111-1.014,0.334-1.635s0.536-1.292,0.94-2.013
			s0.894-1.477,1.468-2.268s1.213-1.597,1.916-2.417l2.18-2.777c-0.445,0.41-0.885,0.762-1.318,1.055s-0.85,0.53-1.248,0.712
			s-0.771,0.313-1.116,0.396s-0.647,0.123-0.905,0.123c-0.469,0-0.902-0.108-1.301-0.325s-0.741-0.519-1.028-0.905
			s-0.513-0.844-0.677-1.371c-0.067-0.215-0.111-0.443-0.15-0.674c-0.248,0.177-0.491,0.352-0.72,0.516
			c-0.557,0.398-1.125,0.771-1.705,1.116s-1.201,0.668-1.863,0.967s-1.438,0.577-2.329,0.835c-0.305,0.094-0.583,0.164-0.835,0.211
			s-0.483,0.07-0.694,0.07c-0.621,0-1.075-0.173-1.362-0.519s-0.431-0.829-0.431-1.45c0-0.082,0.003-0.161,0.009-0.237
			s0.015-0.161,0.026-0.255c0.023-0.363,0.12-0.762,0.29-1.195s0.375-0.879,0.615-1.336s0.495-0.911,0.765-1.362
			s0.519-0.879,0.747-1.283s0.419-0.765,0.571-1.081s0.229-0.574,0.229-0.773c0-0.176-0.05-0.325-0.149-0.448
			s-0.249-0.185-0.448-0.185c-0.75,0-1.462,0.223-2.136,0.668s-1.304,0.993-1.89,1.644s-1.125,1.339-1.617,2.065
			s-0.926,1.377-1.301,1.951c-0.234,0.387-0.448,0.8-0.642,1.239s-0.396,0.85-0.606,1.23s-0.448,0.697-0.712,0.949
			s-0.595,0.378-0.993,0.378c-0.41,0-0.732-0.129-0.967-0.387s-0.352-0.574-0.352-0.949c0-0.199,0.082-0.521,0.246-0.967
			c0.005-0.015,0.013-0.032,0.018-0.047c-0.414,0.336-0.831,0.654-1.257,0.935c-0.65,0.428-1.304,0.771-1.96,1.028
			s-1.318,0.387-1.986,0.387c-0.949,0-1.696-0.243-2.241-0.729s-0.817-1.245-0.817-2.276c0-0.057,0.01-0.112,0.012-0.168
			c-0.131,0.05-0.258,0.113-0.39,0.159c-0.486,0.17-0.955,0.305-1.406,0.404s-0.847,0.149-1.187,0.149
			c-0.656,0-1.33-0.188-2.021-0.562c-0.82,0.984-1.673,1.734-2.558,2.25s-1.784,0.773-2.698,0.773c-0.844,0-1.45-0.22-1.819-0.659
			s-0.554-1.081-0.554-1.925c-0.879,0.891-1.702,1.544-2.47,1.96s-1.556,0.624-2.364,0.624c-0.516,0-0.946-0.062-1.292-0.185
			s-0.624-0.296-0.835-0.519s-0.36-0.483-0.448-0.782s-0.132-0.624-0.132-0.976c0-0.574,0.082-1.181,0.246-1.819
			s0.36-1.257,0.589-1.854s0.457-1.151,0.686-1.661s0.413-0.923,0.554-1.239c0.363-0.809,0.662-1.462,0.896-1.96
			s0.448-0.885,0.642-1.16s0.387-0.46,0.58-0.554s0.437-0.141,0.729-0.141c0.445,0,0.829,0.144,1.151,0.431s0.483,0.653,0.483,1.099
			c0,0.105-0.015,0.211-0.044,0.316s-0.067,0.211-0.114,0.316l-2.988,7.066c-0.047,0.094-0.079,0.196-0.097,0.308
			s-0.026,0.202-0.026,0.272c0,0.152,0.032,0.267,0.097,0.343s0.132,0.114,0.202,0.114c0.129,0,0.261-0.029,0.396-0.088
			s0.293-0.161,0.475-0.308s0.404-0.346,0.668-0.598s0.589-0.571,0.976-0.958c0.363-0.387,0.738-0.853,1.125-1.397
			s0.765-1.119,1.134-1.723s0.712-1.213,1.028-1.828s0.592-1.187,0.826-1.714c0.176-0.352,0.334-0.636,0.475-0.853
			s0.278-0.384,0.413-0.501s0.272-0.196,0.413-0.237s0.305-0.062,0.492-0.062c0.715,0,1.072,0.311,1.072,0.932
			c-0.023,0.094-0.038,0.199-0.044,0.316s-0.038,0.252-0.097,0.404l-2.742,8.104c0,0.293,0.146,0.439,0.439,0.439
			c0.211-0.023,0.489-0.132,0.835-0.325s0.694-0.439,1.046-0.738s0.68-0.645,0.984-1.037s0.527-0.8,0.668-1.222
			c0.258-0.773,0.519-1.553,0.782-2.338s0.545-1.497,0.844-2.136s0.621-1.166,0.967-1.582s0.729-0.642,1.151-0.677
			c0.375,0,0.683,0.12,0.923,0.36s0.36,0.554,0.36,0.94c0,0.457-0.062,0.949-0.185,1.477s-0.284,1.055-0.483,1.582
			s-0.437,1.037-0.712,1.529s-0.56,0.938-0.853,1.336c0.082,0.246,0.252,0.369,0.51,0.369c0.457,0,0.888-0.035,1.292-0.105
			s0.797-0.173,1.178-0.308c0.311-0.11,0.622-0.25,0.932-0.395c0.023-0.055,0.038-0.114,0.061-0.168
			c0.211-0.486,0.434-0.955,0.668-1.406s0.434-0.882,0.598-1.292c0.059-0.152,0.161-0.387,0.308-0.703s0.302-0.639,0.466-0.967
			c0.188-0.387,0.387-0.797,0.598-1.23c0.199-0.328,0.428-0.562,0.686-0.703s0.521-0.211,0.791-0.211
			c0.445,0,0.829,0.144,1.151,0.431s0.483,0.653,0.483,1.099c-0.012,0.105-0.026,0.211-0.044,0.316s-0.056,0.211-0.114,0.316
			c-0.164,0.305-0.299,0.562-0.404,0.773s-0.202,0.407-0.29,0.589s-0.173,0.36-0.255,0.536s-0.182,0.387-0.299,0.633
			c-0.141,0.293-0.299,0.612-0.475,0.958s-0.343,0.7-0.501,1.063s-0.293,0.721-0.404,1.072s-0.167,0.674-0.167,0.967
			c0,0.316,0.079,0.524,0.237,0.624s0.384,0.149,0.677,0.149c0.328,0,0.671-0.07,1.028-0.211s0.718-0.322,1.081-0.545
			s0.721-0.478,1.072-0.765s0.683-0.577,0.993-0.87s0.598-0.574,0.861-0.844s0.483-0.51,0.659-0.721
			c0.098-0.093,0.196-0.155,0.293-0.209c0.081-0.167,0.162-0.337,0.243-0.503c0.322-0.662,0.63-1.286,0.923-1.872
			s0.533-1.084,0.721-1.494c0.234-0.504,0.527-0.879,0.879-1.125s0.697-0.369,1.037-0.369c0.281,0,0.533,0.103,0.756,0.308
			s0.334,0.507,0.334,0.905c0,0.152-0.018,0.316-0.053,0.492s-0.1,0.363-0.193,0.562c0.258-0.328,0.627-0.665,1.107-1.011
			s1.011-0.656,1.591-0.932s1.178-0.501,1.793-0.677s1.198-0.264,1.749-0.264c0.621,0,1.14,0.149,1.556,0.448
			s0.624,0.806,0.624,1.521c0,0.422-0.064,0.861-0.193,1.318s-0.296,0.914-0.501,1.371s-0.434,0.905-0.686,1.345
			s-0.501,0.853-0.747,1.239s-0.472,0.741-0.677,1.063s-0.366,0.589-0.483,0.8c-0.152,0.188-0.229,0.404-0.229,0.65
			c0,0.094,0.029,0.176,0.088,0.246s0.152,0.105,0.281,0.105c0.082,0,0.176-0.009,0.281-0.026s0.234-0.079,0.387-0.185
			c0.633-0.234,1.28-0.527,1.942-0.879s1.298-0.724,1.907-1.116c0.603-0.389,1.156-0.777,1.662-1.166
			c0.124-0.627,0.313-1.222,0.58-1.779c0.498-1.043,1.137-1.931,1.916-2.663s1.641-1.298,2.584-1.696s1.866-0.598,2.769-0.598
			c0.516,0,0.967,0.064,1.354,0.193s0.715,0.27,0.984,0.422c0.305,0.188,0.574,0.393,0.809,0.615
			c0.164-0.105,0.34-0.205,0.527-0.299c0.164-0.082,0.346-0.155,0.545-0.22s0.398-0.097,0.598-0.097
			c0.516,0,0.914,0.105,1.195,0.316s0.422,0.463,0.422,0.756c0,0.152-0.041,0.305-0.123,0.457l-4.113,7.787l0.334-0.299
			c1.383-0.809,2.52-1.444,3.41-1.907s1.6-0.806,2.127-1.028c0.269-0.114,0.497-0.204,0.688-0.273
			c0.279-0.613,0.557-1.228,0.841-1.836c0.422-0.902,0.809-1.729,1.16-2.479l5.326-11.338c0.211-0.457,0.495-0.779,0.853-0.967
			S99.697,12.358,100.061,12.358 M127.496,29.928c0.32-0.173,0.642-0.347,0.979-0.554c0.439-0.27,0.853-0.527,1.239-0.773
			s0.724-0.469,1.011-0.668s0.489-0.334,0.606-0.404c0.527-0.328,0.891-0.636,1.09-0.923s0.299-0.536,0.299-0.747
			c0-0.176-0.056-0.316-0.167-0.422s-0.237-0.17-0.378-0.193c-0.059-0.012-0.111-0.018-0.158-0.018s-0.1,0-0.158,0
			c-0.445,0-0.861,0.088-1.248,0.264s-0.741,0.407-1.063,0.694s-0.609,0.612-0.861,0.976s-0.478,0.724-0.677,1.081
			c-0.134,0.239-0.23,0.462-0.336,0.688c0.006,0.049,0.02,0.093,0.02,0.146C127.693,29.336,127.613,29.625,127.496,29.928
			 M78.58,32.661c0.246,0,0.536-0.108,0.87-0.325s0.68-0.492,1.037-0.826s0.706-0.703,1.046-1.107s0.647-0.8,0.923-1.187
			s0.495-0.735,0.659-1.046s0.246-0.542,0.246-0.694c0-0.258-0.07-0.483-0.211-0.677s-0.313-0.354-0.519-0.483
			s-0.422-0.226-0.65-0.29s-0.431-0.097-0.606-0.097c-0.551,0-1.084,0.138-1.6,0.413s-0.973,0.639-1.371,1.09
			s-0.715,0.97-0.949,1.556s-0.352,1.189-0.352,1.811c0,0.188,0.015,0.39,0.044,0.606s0.094,0.419,0.193,0.606
			s0.246,0.343,0.439,0.466S78.24,32.661,78.58,32.661 M100.061,10.358c-0.688,0-1.365,0.172-2.01,0.51
			c-0.755,0.396-1.34,1.035-1.739,1.9l-5.32,11.325l-1.162,2.482c-0.174,0.373-0.346,0.748-0.517,1.123
			c-0.056,0.024-0.113,0.048-0.172,0.074l0.982-1.859c0.232-0.432,0.354-0.905,0.354-1.391c0-0.928-0.434-1.765-1.222-2.356
			c-0.633-0.475-1.439-0.716-2.395-0.716c-0.408,0-0.816,0.065-1.213,0.194c-0.083,0.027-0.166,0.055-0.246,0.085l-0.002-0.001
			l-0.033-0.019c-0.385-0.218-0.822-0.407-1.336-0.578c-0.589-0.196-1.257-0.296-1.986-0.296c-1.167,0-2.36,0.254-3.547,0.755
			c-1.158,0.489-2.227,1.189-3.175,2.081c-0.957,0.9-1.748,1.996-2.351,3.259c-0.22,0.461-0.404,0.952-0.549,1.466
			c-0.081,0.058-0.164,0.116-0.247,0.174c0.04-0.086,0.08-0.172,0.119-0.259c0.244-0.544,0.446-1.098,0.601-1.647
			c0.178-0.631,0.269-1.258,0.269-1.861c0-1.734-0.792-2.667-1.457-3.145c-0.761-0.546-1.677-0.824-2.723-0.824
			c-0.734,0-1.507,0.115-2.298,0.341c-0.718,0.205-1.425,0.472-2.102,0.793c-0.202,0.096-0.399,0.196-0.593,0.3
			c-0.591-0.536-1.313-0.818-2.091-0.818c-0.756,0-1.491,0.246-2.184,0.73c-0.642,0.45-1.162,1.096-1.545,1.92
			c-0.185,0.405-0.416,0.882-0.696,1.443c-0.296,0.592-0.606,1.222-0.932,1.891l-0.027,0.057c-0.029,0.025-0.059,0.052-0.088,0.08
			l-0.084,0.081l-0.075,0.089c-0.141,0.169-0.327,0.372-0.552,0.603c-0.246,0.251-0.514,0.514-0.804,0.787
			c-0.236,0.224-0.491,0.448-0.757,0.67c0.142-0.282,0.272-0.546,0.391-0.792c0.122-0.257,0.224-0.473,0.308-0.653
			c0.078-0.167,0.159-0.338,0.243-0.511c0.084-0.174,0.177-0.363,0.279-0.565c0.098-0.196,0.224-0.436,0.376-0.72
			c0.157-0.282,0.271-0.605,0.326-0.936c0.024-0.141,0.043-0.283,0.059-0.424l0.012-0.11v-0.111c0-1.009-0.41-1.93-1.153-2.592
			c-0.688-0.613-1.547-0.938-2.482-0.938c-0.606,0-1.195,0.153-1.749,0.455c-0.57,0.311-1.054,0.789-1.438,1.421l-0.048,0.08
			l-0.041,0.083l-0.579,1.191c0-0.012,0-0.023,0-0.035c0-0.921-0.327-1.736-0.946-2.354c-0.619-0.619-1.427-0.946-2.337-0.946
			h-0.083l-0.083,0.007c-0.67,0.056-1.652,0.343-2.523,1.392c-0.103,0.124-0.203,0.253-0.302,0.39
			c-0.392-1.173-1.482-1.929-2.915-1.929c-0.376,0-0.73,0.048-1.052,0.142c-0.419,0.122-0.812,0.34-1.166,0.648
			c-0.279,0.243-0.533,0.544-0.778,0.922c-0.173,0.267-0.354,0.587-0.552,0.979c-0.163-0.675-0.523-1.279-1.054-1.752
			c-0.688-0.613-1.547-0.938-2.482-0.938c-0.596,0-1.135,0.115-1.602,0.341c-0.509,0.247-0.949,0.641-1.344,1.204
			c-0.262,0.374-0.528,0.85-0.814,1.458c-0.238,0.506-0.542,1.17-0.911,1.992l-0.555,1.241c-0.243,0.542-0.488,1.135-0.729,1.765
			c-0.254,0.666-0.476,1.362-0.658,2.071c-0.205,0.798-0.309,1.578-0.309,2.317c0,0.541,0.072,1.059,0.213,1.54
			c0.178,0.604,0.486,1.14,0.915,1.593c0.429,0.453,0.973,0.798,1.617,1.027c0.567,0.202,1.209,0.3,1.962,0.3
			c1.141,0,2.257-0.291,3.317-0.866c0.214-0.116,0.429-0.245,0.646-0.386c0.551,0.598,1.543,1.252,3.244,1.252
			c1.268,0,2.515-0.352,3.705-1.045c0.719-0.419,1.418-0.96,2.09-1.616c0.494,0.133,0.99,0.2,1.482,0.2
			c0.44,0,0.913-0.052,1.439-0.159c0.244,0.534,0.583,0.996,1.017,1.382c0.92,0.821,2.122,1.237,3.573,1.237
			c0.916,0,1.831-0.177,2.718-0.525c0.369-0.145,0.738-0.313,1.106-0.502c0.434,0.472,1.206,1.028,2.434,1.028
			c0.916,0,1.737-0.322,2.375-0.932c0.408-0.39,0.772-0.87,1.08-1.426c0.239-0.432,0.471-0.901,0.688-1.394
			c0.153-0.348,0.323-0.678,0.505-0.981c0.298-0.456,0.632-0.959,1.004-1.511c-0.203,0.55-0.325,1.084-0.365,1.589
			c-0.013,0.107-0.022,0.206-0.029,0.295c-0.01,0.125-0.015,0.255-0.015,0.391c0,1.098,0.3,2.015,0.892,2.728
			c0.47,0.566,1.355,1.241,2.901,1.241c0.333,0,0.689-0.035,1.06-0.104c0.326-0.061,0.681-0.15,1.058-0.266
			c0.945-0.273,1.818-0.587,2.563-0.924c0.728-0.328,1.422-0.689,2.064-1.071c0.164-0.098,0.327-0.197,0.489-0.299
			c0.043,0.063,0.088,0.125,0.133,0.187c0.46,0.62,1.025,1.114,1.678,1.47c0.335,0.182,0.686,0.321,1.049,0.416
			c-0.583,0.81-1.091,1.601-1.512,2.351c-0.457,0.814-0.82,1.594-1.079,2.316c-0.304,0.847-0.451,1.603-0.451,2.31
			c0,0.911,0.297,1.749,0.859,2.423c0.642,0.77,1.572,1.194,2.618,1.194c0.559,0,1.081-0.095,1.551-0.284
			c0.519-0.208,0.998-0.552,1.426-1.025c0.333-0.368,0.645-0.823,0.953-1.391c0.25-0.462,0.515-1.022,0.807-1.712l3.174-5.743
			c0.507-0.406,1.051-0.785,1.621-1.128c0.64-0.386,1.284-0.743,1.918-1.063c0.156,0.34,0.357,0.653,0.601,0.934
			c0.403,0.464,0.922,0.825,1.541,1.073c0.566,0.227,1.203,0.336,1.947,0.336c0.942,0,1.911-0.186,2.878-0.551
			c0.865-0.327,1.742-0.768,2.606-1.311c0.009-0.006,0.018-0.011,0.027-0.017c0.17,0.232,0.365,0.447,0.583,0.642
			c0.92,0.821,2.122,1.237,3.573,1.237c0.916,0,1.831-0.177,2.718-0.525c0.369-0.145,0.738-0.313,1.106-0.502
			c0.434,0.472,1.206,1.028,2.434,1.028c0.916,0,1.737-0.322,2.375-0.932c0.408-0.39,0.772-0.87,1.08-1.426
			c0.239-0.432,0.471-0.901,0.688-1.394c0.152-0.348,0.322-0.678,0.505-0.981c0.297-0.456,0.632-0.959,1.004-1.511
			c-0.203,0.55-0.326,1.084-0.365,1.589c-0.013,0.107-0.022,0.206-0.029,0.295c-0.01,0.125-0.015,0.255-0.015,0.391
			c0,1.098,0.3,2.015,0.893,2.728c0.47,0.566,1.354,1.241,2.9,1.241c0.332,0,0.689-0.035,1.061-0.104
			c0.325-0.061,0.681-0.15,1.057-0.266c0.945-0.273,1.818-0.587,2.564-0.924c0.562-0.253,1.104-0.526,1.616-0.813
			c0.542,0.621,1.196,1.124,1.947,1.495c0.82,0.406,1.749,0.612,2.759,0.612c0.984,0,1.991-0.13,2.994-0.388
			c0.935-0.24,1.847-0.547,2.713-0.911c0.846-0.356,1.659-0.753,2.42-1.182c0.737-0.415,1.398-0.817,1.965-1.195
			c0.571-0.381,1.03-0.706,1.404-0.995c0.51-0.393,0.663-0.525,0.781-0.644l0.073-0.073l0.064-0.08
			c0.376-0.463,0.607-0.949,0.687-1.446c0.041-0.253,0.061-0.48,0.061-0.694c0-0.227-0.029-0.46-0.088-0.713
			c-0.086-0.362-0.242-0.701-0.467-1.006c-0.196-0.269-0.438-0.502-0.717-0.694c-0.427-0.293-0.94-0.449-1.484-0.449
			c-0.148,0-0.315,0.01-0.502,0.035c-0.264,0.035-0.523,0.114-0.775,0.235c0.379-0.799,0.57-1.601,0.57-2.384
			c0-1.728-0.72-2.793-1.324-3.383c-0.864-0.844-2.068-1.271-3.576-1.271c-1.136,0-2.225,0.17-3.238,0.505
			c-0.977,0.323-1.888,0.76-2.709,1.298c-0.809,0.53-1.549,1.149-2.199,1.842c-0.164,0.174-0.321,0.351-0.474,0.529
			c0.002-0.063,0.003-0.126,0.003-0.188c0-1.734-0.792-2.667-1.457-3.145c-0.762-0.546-1.677-0.824-2.723-0.824
			c-0.734,0-1.508,0.115-2.299,0.341c-0.718,0.205-1.425,0.472-2.101,0.793c-0.202,0.096-0.4,0.196-0.594,0.3
			c-0.59-0.536-1.312-0.818-2.091-0.818c-0.756,0-1.491,0.246-2.184,0.73c-0.642,0.45-1.162,1.096-1.545,1.92
			c-0.185,0.405-0.416,0.882-0.696,1.443c-0.296,0.592-0.606,1.223-0.932,1.891l-0.027,0.057c-0.029,0.026-0.058,0.053-0.088,0.081
			l-0.084,0.08l-0.075,0.09c-0.141,0.169-0.327,0.372-0.552,0.603c-0.246,0.251-0.514,0.514-0.804,0.788
			c-0.237,0.223-0.491,0.448-0.757,0.669c0.142-0.282,0.272-0.546,0.391-0.793c0.122-0.257,0.224-0.473,0.308-0.652
			c0.078-0.167,0.159-0.338,0.243-0.511c0.084-0.174,0.177-0.363,0.278-0.565c0.099-0.196,0.224-0.436,0.376-0.72
			c0.157-0.282,0.271-0.605,0.326-0.936c0.024-0.141,0.043-0.283,0.059-0.424l0.012-0.11v-0.111c0-1.009-0.41-1.93-1.153-2.592
			c-0.688-0.613-1.547-0.938-2.482-0.938c-0.606,0-1.195,0.153-1.749,0.455c-0.57,0.311-1.054,0.789-1.438,1.421l-0.048,0.08
			l-0.041,0.083l-0.599,1.233c-0.162,0.325-0.326,0.665-0.481,0.999c-0.172,0.371-0.291,0.646-0.359,0.825
			c-0.129,0.323-0.303,0.697-0.506,1.088c-0.051,0.099-0.101,0.201-0.149,0.305c-0.362,0.288-0.744,0.579-1.137,0.866
			c-0.291,0.212-0.585,0.421-0.879,0.625c0.044-0.094,0.089-0.19,0.135-0.288c0.401-0.855,0.832-1.76,1.292-2.715
			c0.463-0.962,0.938-1.95,1.425-2.965c0.483-1.007,0.954-1.976,1.414-2.907c0.459-0.93,0.89-1.791,1.291-2.582
			c0.392-0.773,0.731-1.428,1.017-1.966c0.183-0.325,0.339-0.639,0.464-0.934c0.205-0.482,0.309-0.97,0.309-1.45
			c0-1.121-0.476-2.055-1.339-2.631C101.531,10.572,100.824,10.358,100.061,10.358L100.061,10.358z M79.237,29.939
			c0.022-0.07,0.047-0.139,0.075-0.209c0.15-0.375,0.343-0.694,0.591-0.975c0.242-0.273,0.508-0.486,0.814-0.649
			c0.038-0.021,0.076-0.039,0.113-0.056c-0.001,0.002-0.003,0.003-0.004,0.005c-0.244,0.342-0.521,0.698-0.825,1.06
			C79.752,29.413,79.496,29.689,79.237,29.939L79.237,29.939z"/>
	</g>
	<g>
		<path fill="#CE202A" d="M16.021,36.716c-1.479,0-2.762-0.122-3.814-0.361c-1.076-0.246-1.982-0.59-2.693-1.022
			c-0.75-0.457-1.311-1.002-1.667-1.621c-0.357-0.623-0.539-1.289-0.539-1.982c0-0.7,0.177-1.412,0.526-2.117
			c0.334-0.675,0.809-1.319,1.411-1.914c0.591-0.585,1.306-1.111,2.124-1.564c0.816-0.452,1.725-0.802,2.699-1.039l0.088-0.021h0.09
			c0.609,0,1.105,0.28,1.397,0.79c0.224,0.389,0.337,0.831,0.337,1.314c0,0.245-0.026,0.459-0.079,0.654
			c-0.068,0.249-0.199,0.478-0.39,0.679c-0.158,0.167-0.354,0.315-0.597,0.453c-0.197,0.112-0.452,0.234-0.767,0.365
			c-0.553,0.237-0.99,0.519-1.293,0.836c-0.162,0.169-0.355,0.42-0.355,0.651c0,0.053,0.01,0.137,0.1,0.258
			c0.062,0.084,0.198,0.214,0.496,0.358c0.289,0.139,0.682,0.254,1.168,0.341c0.51,0.091,1.143,0.138,1.88,0.138
			c0.74,0,1.45-0.089,2.11-0.265c0.647-0.172,1.217-0.416,1.693-0.723c0.456-0.294,0.821-0.643,1.084-1.036
			c0.24-0.357,0.356-0.732,0.356-1.146c0-0.25-0.125-0.541-0.372-0.861c-0.298-0.387-0.796-0.808-1.483-1.251
			c-1.36-0.887-2.409-1.615-3.119-2.164c-0.713-0.551-1.154-0.899-1.322-1.043c-0.939-0.827-1.651-1.636-2.122-2.413
			c-0.504-0.831-0.759-1.712-0.759-2.622c0-0.831,0.202-1.649,0.6-2.432c0.379-0.745,0.894-1.452,1.53-2.101
			c0.62-0.632,1.344-1.225,2.151-1.761c0.801-0.532,1.65-0.994,2.525-1.373c0.874-0.379,1.766-0.679,2.654-0.894
			c0.903-0.218,1.775-0.329,2.593-0.329c0.636,0,1.236,0.073,1.783,0.218c0.579,0.154,1.095,0.4,1.535,0.734
			c0.458,0.348,0.821,0.799,1.078,1.34c0.251,0.533,0.379,1.167,0.379,1.885c0,1.019-0.293,2-0.872,2.915
			c-0.558,0.882-1.405,1.708-2.519,2.455c-0.573,0.397-1.143,0.602-1.683,0.602c-0.624,0-1.153-0.244-1.53-0.707
			c-0.345-0.423-0.521-0.923-0.521-1.485c0-0.462,0.132-0.921,0.394-1.365c0.263-0.446,0.676-0.824,1.23-1.123
			c0.271-0.141,0.496-0.318,0.699-0.548c0.085-0.096,0.147-0.189,0.181-0.266c-0.044-0.005-0.095-0.008-0.154-0.008
			c-0.438,0-0.926,0.057-1.453,0.168c-0.543,0.115-1.095,0.274-1.64,0.472c-0.543,0.197-1.078,0.437-1.589,0.711
			c-0.5,0.269-0.945,0.562-1.322,0.87c-0.355,0.29-0.642,0.598-0.851,0.914c-0.17,0.258-0.253,0.494-0.253,0.72
			c0,0.147,0.028,0.277,0.086,0.399c0.073,0.153,0.187,0.315,0.34,0.481c0.181,0.196,0.406,0.406,0.671,0.623
			c0.283,0.232,0.611,0.484,0.985,0.756l4.118,3.044c0.542,0.397,1.036,0.793,1.467,1.176c0.451,0.399,0.835,0.808,1.145,1.214
			c0.32,0.42,0.572,0.854,0.749,1.289c0.188,0.463,0.284,0.96,0.284,1.478c0,1.06-0.276,2.105-0.82,3.108
			c-0.533,0.983-1.297,1.869-2.271,2.632c-0.958,0.751-2.12,1.365-3.453,1.824C19.125,36.483,17.633,36.716,16.021,36.716z"/>
		<path fill="#FFFFFF" d="M24.266,10.249c0.574,0,1.104,0.064,1.591,0.193s0.911,0.331,1.274,0.606s0.647,0.63,0.853,1.063
			s0.308,0.955,0.308,1.564c0,0.879-0.252,1.717-0.756,2.514s-1.271,1.541-2.303,2.232c-0.457,0.316-0.879,0.475-1.266,0.475
			c-0.398,0-0.715-0.144-0.949-0.431s-0.352-0.624-0.352-1.011c0-0.328,0.097-0.656,0.29-0.984s0.507-0.609,0.94-0.844
			c0.34-0.176,0.642-0.413,0.905-0.712s0.396-0.589,0.396-0.87c0-0.27-0.091-0.445-0.272-0.527s-0.401-0.123-0.659-0.123
			c-0.492,0-1.028,0.062-1.608,0.185s-1.16,0.29-1.74,0.501s-1.143,0.463-1.688,0.756s-1.025,0.609-1.441,0.949
			s-0.75,0.7-1.002,1.081s-0.378,0.759-0.378,1.134c0,0.258,0.053,0.498,0.158,0.721s0.261,0.445,0.466,0.668
			s0.454,0.454,0.747,0.694s0.633,0.501,1.02,0.782l4.113,3.041c0.527,0.387,0.999,0.765,1.415,1.134s0.765,0.738,1.046,1.107
			s0.498,0.741,0.65,1.116s0.229,0.773,0.229,1.195c0,0.938-0.243,1.854-0.729,2.751s-1.178,1.696-2.074,2.399
			s-1.975,1.271-3.234,1.705s-2.657,0.65-4.192,0.65c-1.43,0-2.646-0.114-3.647-0.343s-1.825-0.539-2.47-0.932
			s-1.113-0.844-1.406-1.354s-0.439-1.046-0.439-1.608c0-0.586,0.149-1.181,0.448-1.784s0.721-1.175,1.266-1.714
			s1.198-1.02,1.96-1.441s1.6-0.744,2.514-0.967c0.34,0,0.589,0.138,0.747,0.413s0.237,0.589,0.237,0.94
			c0,0.176-0.018,0.328-0.053,0.457s-0.105,0.249-0.211,0.36s-0.246,0.217-0.422,0.316s-0.404,0.208-0.686,0.325
			c-0.656,0.281-1.172,0.618-1.547,1.011s-0.562,0.782-0.562,1.169c0,0.246,0.082,0.48,0.246,0.703s0.422,0.419,0.773,0.589
			s0.806,0.305,1.362,0.404s1.228,0.149,2.013,0.149c0.809,0,1.576-0.097,2.303-0.29s1.362-0.466,1.907-0.817
			s0.979-0.768,1.301-1.248s0.483-1.002,0.483-1.564c0-0.422-0.176-0.861-0.527-1.318s-0.908-0.932-1.67-1.424
			c-1.348-0.879-2.37-1.588-3.067-2.127s-1.128-0.879-1.292-1.02c-0.879-0.773-1.535-1.518-1.969-2.232s-0.65-1.459-0.65-2.232
			c0-0.715,0.173-1.412,0.519-2.092s0.812-1.318,1.397-1.916s1.263-1.151,2.03-1.661s1.57-0.946,2.408-1.31s1.682-0.647,2.531-0.853
			S23.504,10.249,24.266,10.249 M24.266,8.749c-0.876,0-1.808,0.118-2.769,0.35c-0.929,0.224-1.863,0.539-2.776,0.935
			c-0.915,0.396-1.804,0.88-2.642,1.436c-0.851,0.565-1.615,1.191-2.271,1.86c-0.69,0.704-1.25,1.474-1.663,2.286
			c-0.452,0.889-0.682,1.822-0.682,2.772c0,1.048,0.292,2.061,0.868,3.01c0.518,0.854,1.257,1.698,2.261,2.581
			c0.097,0.084,0.268,0.225,0.733,0.589c-0.322-0.16-0.687-0.244-1.078-0.244h-0.18l-0.175,0.042
			c-1.04,0.253-2.01,0.627-2.885,1.112c-0.878,0.486-1.648,1.054-2.288,1.687c-0.661,0.653-1.184,1.365-1.555,2.115
			c-0.401,0.81-0.604,1.634-0.604,2.45c0,0.826,0.215,1.618,0.639,2.356c0.418,0.729,1.067,1.363,1.926,1.887
			c0.78,0.475,1.761,0.849,2.917,1.113c1.106,0.252,2.446,0.38,3.981,0.38c1.694,0,3.269-0.246,4.681-0.732
			c1.412-0.486,2.647-1.14,3.672-1.943c1.055-0.827,1.885-1.791,2.467-2.864c0.604-1.114,0.911-2.281,0.911-3.466
			c0-0.614-0.114-1.207-0.339-1.76c-0.202-0.496-0.486-0.988-0.847-1.461c-0.339-0.444-0.757-0.889-1.244-1.32
			c-0.449-0.398-0.961-0.809-1.523-1.221L19.69,19.66c-0.371-0.27-0.691-0.515-0.96-0.736c-0.238-0.195-0.438-0.38-0.595-0.551
			c-0.126-0.137-0.186-0.236-0.214-0.294c-0.004-0.009-0.014-0.029-0.014-0.079c0-0.071,0.047-0.182,0.129-0.306
			c0.167-0.253,0.403-0.504,0.7-0.747c0.34-0.278,0.745-0.543,1.203-0.79c0.479-0.258,0.98-0.482,1.49-0.667
			c0.167-0.061,0.336-0.118,0.504-0.171c-0.101,0.125-0.19,0.255-0.271,0.39c-0.33,0.561-0.498,1.148-0.498,1.746
			c0,0.729,0.238,1.407,0.689,1.959c0.517,0.633,1.267,0.982,2.111,0.982c0.696,0,1.409-0.25,2.12-0.741
			c1.182-0.793,2.103-1.693,2.716-2.664c0.656-1.037,0.988-2.152,0.988-3.315c0-0.83-0.152-1.572-0.452-2.206
			c-0.308-0.652-0.747-1.196-1.302-1.618c-0.518-0.393-1.123-0.683-1.796-0.861C25.631,8.831,24.967,8.749,24.266,8.749
			L24.266,8.749z M13.358,30.725c0.012-0.013,0.025-0.027,0.039-0.042c0.233-0.244,0.587-0.468,1.053-0.668
			c0.326-0.136,0.604-0.269,0.834-0.399c0.304-0.173,0.563-0.371,0.771-0.59c0.277-0.292,0.468-0.628,0.569-0.998
			c0.071-0.26,0.105-0.539,0.105-0.852c0-0.615-0.147-1.183-0.437-1.688c-0.078-0.136-0.167-0.261-0.265-0.375
			c0.73,0.56,1.744,1.261,3.093,2.141c0.77,0.498,1.132,0.863,1.3,1.082c0.177,0.23,0.216,0.37,0.216,0.404
			c0,0.264-0.073,0.496-0.229,0.729c-0.209,0.312-0.493,0.581-0.868,0.823c-0.411,0.265-0.909,0.476-1.48,0.628
			c-0.597,0.159-1.242,0.24-1.917,0.24c-0.693,0-1.281-0.042-1.749-0.126c-0.522-0.093-0.818-0.203-0.974-0.278
			C13.399,30.746,13.377,30.735,13.358,30.725L13.358,30.725z"/>
	</g>
</g>
</svg>
